<?xml version="1.0" encoding="UTF-8" standalone="no"?>
<!-- Created with Inkscape (http://www.inkscape.org/) -->

<svg
   width="210mm"
   height="297mm"
   viewBox="0 0 210 297"
   version="1.1"
   id="svg5"
   xml:space="preserve"
   inkscape:version="1.2.2 (732a01da63, 2022-12-09)"
   sodipodi:docname="alert.svg"
   xmlns:inkscape="http://www.inkscape.org/namespaces/inkscape"
   xmlns:sodipodi="http://sodipodi.sourceforge.net/DTD/sodipodi-0.dtd"
   xmlns="http://www.w3.org/2000/svg"
   xmlns:svg="http://www.w3.org/2000/svg"><sodipodi:namedview
     id="namedview7"
     pagecolor="#ffffff"
     bordercolor="#000000"
     borderopacity="0.25"
     inkscape:showpageshadow="2"
     inkscape:pageopacity="0.0"
     inkscape:pagecheckerboard="0"
     inkscape:deskcolor="#d1d1d1"
     inkscape:document-units="mm"
     showgrid="false"
     inkscape:zoom="0.51843089"
     inkscape:cx="362.63271"
     inkscape:cy="455.21979"
     inkscape:window-width="2560"
     inkscape:window-height="1009"
     inkscape:window-x="1358"
     inkscape:window-y="-8"
     inkscape:window-maximized="1"
     inkscape:current-layer="g416" /><defs
     id="defs2"><clipPath
       clipPathUnits="userSpaceOnUse"
       id="clipPath2522"><rect
         style="fill:#d82b36;fill-opacity:0.47;stroke:#000000;stroke-width:0.22805;stroke-linecap:round;stroke-linejoin:bevel"
         id="rect2524"
         width="30.988567"
         height="28.629789"
         x="86.687836"
         y="128.23198"
         ry="6.2739353"
         rx="5.7414842" /></clipPath><clipPath
       clipPathUnits="userSpaceOnUse"
       id="clipPath2526"><rect
         style="fill:#d82b36;fill-opacity:0.47;stroke:#000000;stroke-width:0.22805;stroke-linecap:round;stroke-linejoin:bevel"
         id="rect2528"
         width="30.988567"
         height="28.629789"
         x="86.687836"
         y="128.23198"
         ry="6.2739353"
         rx="5.7414842" /></clipPath></defs><g
     inkscape:label="Capa 1"
     inkscape:groupmode="layer"
     id="layer1"><g
       id="g416"
       transform="matrix(1,0,0,0.91513284,-15.517619,-6.5608621)"><path
         style="fill:#fdfdfd;stroke-width:1.8451"
         d="m 211.16747,238.26652 c 3.38411,-1.28905 7.4112,-4.69852 8.9491,-7.57651 1.72144,-3.22127 2.32109,-7.15752 1.5601,-10.23981 -0.67986,-2.75389 -14.27915,-28.17096 -30.22061,-56.48242 -15.94154,-28.3114 -31.52325,-55.67342 -34.62612,-60.80442 -3.10289,-5.130967 -7.76608,-12.05311 -10.3628,-15.382506 -2.59665,-3.329442 -7.36659,-7.614447 -10.59985,-9.522286 -3.23325,-1.907871 -8.582,-3.471829 -11.88622,-3.475595 -3.30415,-0.0031 -8.01272,0.877322 -10.46339,1.957864 -3.15011,1.388884 -14.145526,18.80815 -37.521859,59.443083 -18.186321,31.61321 -36.549986,63.06266 -40.808115,69.88768 -7.2461,11.61415 -7.591878,12.77699 -5.397402,18.15053 1.289581,3.15783 3.682756,7.28238 5.318172,9.1658 1.635405,1.88335 5.505595,4.54265 8.600415,5.90953 4.546119,2.00788 20.578238,2.37262 83.466369,1.89908 57.95472,-0.43631 79.4112,-1.18487 83.99221,-2.93002 z M 45.340787,233.79859 c -3.228868,-1.41297 -6.419073,-3.42763 -7.089339,-4.47716 -0.841465,-1.31754 16.650069,-1.93922 56.513194,-2.00848 31.752458,-0.0549 65.750268,-0.5982 75.550468,-1.2063 10.11505,-0.62769 19.64323,-2.20913 22.03891,-3.65769 2.65259,-1.60403 4.2202,-1.82231 4.2202,-0.58791 0,1.08019 0.84403,1.4592 1.87562,0.8422 1.03161,-0.61671 1.87569,-2.34688 1.87569,-3.84431 0,-1.49741 -0.67558,-2.31876 -1.50053,-1.82518 -0.82533,0.49324 -1.50056,-1.75713 -1.50056,-5.00154 0,-4.01717 -5.12815,-14.83632 -16.07537,-33.91509 -8.84146,-15.40887 -23.523,-41.78064 -32.62556,-58.60384 -9.10259,-16.82325 -18.83487,-32.954616 -21.62741,-35.847432 -2.79243,-2.892752 -4.23308,-5.259613 -3.20142,-5.259613 1.03168,0 4.8271,1.35528 8.4343,3.011703 3.9527,1.815112 9.0075,6.682882 12.72231,12.251588 3.39013,5.082012 15.98655,26.800684 27.99216,48.263734 12.00555,21.463 25.95511,46.13684 30.99901,54.83066 5.04387,8.69382 10.11458,18.57463 11.26825,21.95741 1.15369,3.38275 1.5375,7.56286 0.85297,9.28913 -0.68481,1.72626 -3.4506,4.03947 -6.14679,5.14052 -3.21615,1.31334 -31.35189,2.21079 -81.80384,2.60923 -63.301464,0.5001 -77.939804,0.15287 -82.772263,-1.96171 z M 213.45506,223.38866 c 0,-1.87432 -0.84402,-3.40789 -1.87564,-3.40789 -1.03159,0 -1.8757,1.15839 -1.8757,2.57411 0,1.41585 -0.57988,4.07034 -1.28899,5.89894 -1.13469,2.9268 -0.91019,3.02662 1.87569,0.83378 1.74057,-1.37008 3.16464,-4.02465 3.16464,-5.89894 z m -7.48188,0.18452 c 1.1156,-2.01719 1.42172,-4.6175 0.68056,-5.77851 -0.90811,-1.42187 -1.81161,-0.96542 -2.76836,1.39884 -0.78115,1.93028 -1.47962,4.53058 -1.55209,5.77842 -0.0723,1.24793 0.26018,2.26884 0.73996,2.26884 0.47923,0 1.78462,-1.6504 2.90021,-3.66759 z M 34.201857,221.21778 C 33.469445,219.37084 41.826936,203.4291 56.939414,177.84643 70.082011,155.59836 87.97394,125.5522 96.699253,111.07714 105.42456,96.602084 112.89695,84.41848 113.30457,84.002559 c 0.40762,-0.415722 1.13603,-0.373886 1.61865,0.09254 0.48277,0.467165 -3.11187,7.341555 -7.98781,15.276728 -4.87594,7.935173 -22.220999,37.055033 -38.544613,64.710863 -23.04937,39.05075 -29.388023,51.17131 -28.375453,54.25853 1.278087,3.89685 1.771725,3.95263 25.006466,2.82874 13.036459,-0.63044 43.95964,-1.60235 68.71819,-2.15953 24.75857,-0.55704 47.37863,-1.3714 50.26679,-1.80933 2.88823,-0.4377 4.81461,-0.11255 4.28088,0.72317 -0.53381,0.83575 -20.19971,2.05822 -43.70209,2.71665 -23.50238,0.65857 -57.692769,1.71461 -75.978608,2.34703 -29.519141,1.02099 -33.376882,0.82247 -34.405115,-1.7705 z m -8.466043,2.11373 c -1.122113,-2.02901 -1.530337,-5.6549 -0.907158,-8.05763 0.658714,-2.53974 0.307594,-4.36862 -0.838778,-4.36862 -1.084499,0 -2.735168,1.83774 -3.668137,4.08394 -1.618237,3.89588 -1.701794,3.84918 -1.815212,-1.01469 -0.06806,-2.91427 -0.922429,-4.61797 -1.994536,-3.97678 -1.031611,0.61673 -1.875647,2.73279 -1.875647,4.70176 0,1.96896 1.266056,4.05011 2.813472,4.6247 1.547408,0.57487 2.813473,2.01921 2.813473,3.21018 0,1.19089 0.979156,3.11288 2.175903,4.27092 1.196749,1.15811 2.887113,1.6803 3.756368,1.16045 0.869254,-0.52 0.662401,-2.60531 -0.459726,-4.63423 z M 157.75542,84.509913 c 0.65716,-0.635927 -0.48347,-3.43717 -2.53447,-6.22474 -2.05116,-2.787587 -6.45743,-6.690887 -9.79173,-8.673983 -3.33425,-1.983126 -9.22745,-4.173542 -13.09597,-4.867632 -4.11965,-0.739098 -7.03369,-0.545379 -7.03369,0.46785 0,0.951343 3.19511,2.656146 7.10026,3.788342 3.90515,1.132165 9.8134,4.625521 13.12951,7.762905 3.31613,3.137368 6.02931,6.424162 6.02931,7.30397 0,0.879867 1.1254,1.599695 2.50091,1.599695 1.37548,0 3.03858,-0.519993 3.69587,-1.156407 z M 150.8241,60.871878 c -2.80587,-2.335591 -6.79241,-4.246449 -8.85899,-4.246449 -2.06655,0 -3.23575,0.816764 -2.59817,1.815035 0.6373,0.998271 2.24462,1.815111 3.57127,1.815111 1.32665,0 3.92175,1.614224 5.76697,3.587242 1.84512,1.973033 4.22456,3.067144 5.28764,2.431415 1.12595,-0.673646 -0.19707,-2.928629 -3.16872,-5.402354 z"
         id="path432"
         sodipodi:nodetypes="sssssssssssssssssscssssscsssssssssscssssssscssccssscccssscssssscsssccssssscscssssscsssssssscsscsscs" /><path
         style="fill:#d82b36;fill-opacity:0.786561;stroke-width:0.264583"
         d="m 90.839154,152.72517 c -0.212262,-0.39662 0.272689,-1.42696 2.525224,-5.36517 1.533366,-2.68085 3.976854,-6.92811 5.429974,-9.43834 1.453118,-2.51024 2.735768,-4.56407 2.850328,-4.56407 0.11456,0 0.5109,0.45727 0.88075,1.01615 0.36985,0.55888 1.16787,2.00149 1.77339,3.2058 0.60552,1.20432 2.46674,4.6812 4.13605,7.7264 1.66931,3.04521 3.14474,5.8251 3.27874,6.17754 0.134,0.35244 0.1431,0.70293 0.0202,0.77886 -0.12287,0.0759 -4.25574,0.25771 -9.18416,0.40394 -4.928424,0.14623 -9.520355,0.32975 -10.204294,0.40782 -1.0298,0.11756 -1.288678,0.0576 -1.50624,-0.34893 z m 12.286786,-1.76076 c 0.35719,-0.35719 0.64944,-0.93644 0.64944,-1.28723 0,-0.35079 -0.24677,-0.95152 -0.54837,-1.33495 -0.39076,-0.49676 -0.79468,-0.69714 -1.40532,-0.69714 -0.49669,0 -1.10039,0.2268 -1.43601,0.53948 -0.38023,0.35424 -0.579053,0.85389 -0.579053,1.45521 0,0.56295 0.203853,1.11959 0.529163,1.4449 0.2975,0.29749 0.88195,0.52916 1.33495,0.52916 0.50274,0 1.05001,-0.24424 1.4552,-0.64943 z m -2.35226,-0.36359 c -0.24084,-0.26612 -0.43789,-0.72391 -0.43789,-1.01732 0,-0.29341 0.21774,-0.73052 0.48386,-0.97136 0.26612,-0.24083 0.72391,-0.43788 1.01732,-0.43788 0.29341,0 0.73052,0.21773 0.97136,0.48385 0.24083,0.26612 0.43788,0.65635 0.43788,0.86717 0,0.21083 -0.18535,0.64794 -0.41188,0.97136 -0.22653,0.32342 -0.68433,0.58804 -1.01733,0.58804 -0.33299,0 -0.80249,-0.21774 -1.04332,-0.48386 z m 1.61212,-7.71823 c 0.0469,-3.1223 -0.0302,-4.554 -0.27072,-5.02708 -0.20705,-0.4072 -0.6073,-0.69302 -1.04125,-0.74358 -0.51968,-0.0605 -0.82289,0.0979 -1.153901,0.60314 -0.422592,0.64495 -0.42173,0.89878 0.01466,4.31545 0.255011,1.99661 0.568661,3.74331 0.697011,3.88155 0.14082,0.15168 0.23337,0.0436 0.23337,-0.27248 0,-0.28811 -0.18063,-1.98283 -0.4014,-3.76604 -0.29459,-2.37958 -0.32504,-3.38485 -0.11444,-3.77837 0.15783,-0.2949 0.48728,-0.49809 0.73212,-0.45154 0.34086,0.0648 0.48442,0.48703 0.61269,1.8019 0.0921,0.9445 0.18142,2.99718 0.19843,4.56153 0.0288,2.64968 -0.004,2.84427 -0.48262,2.84427 -0.28246,0 -0.59237,0.12752 -0.68869,0.28338 -0.1146,0.18543 0.13149,0.25402 0.71199,0.19844 0.88712,-0.0849 0.88712,-0.0849 0.95275,-4.45057 z m 9.59166,7.01146 c 0,-0.0728 0.0595,-0.13229 0.13229,-0.13229 0.0728,0 0.13229,0.0595 0.13229,0.13229 0,0.0728 -0.0595,0.13229 -0.13229,0.13229 -0.0728,0 -0.13229,-0.0595 -0.13229,-0.13229 z m -0.26458,-0.52917 c 0,-0.0728 0.0595,-0.13229 0.13229,-0.13229 0.0728,0 0.13229,0.0595 0.13229,0.13229 0,0.0728 -0.0595,0.1323 -0.13229,0.1323 -0.0728,0 -0.13229,-0.0595 -0.13229,-0.1323 z m -0.79375,-1.32291 c 0,-0.0728 0.0595,-0.13229 0.13229,-0.13229 0.0728,0 0.13229,0.0595 0.13229,0.13229 0,0.0728 -0.0595,0.13229 -0.13229,0.13229 -0.0728,0 -0.13229,-0.0595 -0.13229,-0.13229 z m -0.26459,-0.52917 c 0,-0.0728 0.0595,-0.13229 0.13229,-0.13229 0.0728,0 0.1323,0.0595 0.1323,0.13229 0,0.0728 -0.0595,0.13229 -0.1323,0.13229 -0.0728,0 -0.13229,-0.0595 -0.13229,-0.13229 z m -1.32291,-2.38125 c 0,-0.0728 0.0595,-0.13229 0.13229,-0.13229 0.0728,0 0.13229,0.0595 0.13229,0.13229 0,0.0728 -0.0595,0.13229 -0.13229,0.13229 -0.0728,0 -0.13229,-0.0595 -0.13229,-0.13229 z m -0.26459,-0.52917 c 0,-0.0728 0.0595,-0.13229 0.13229,-0.13229 0.0728,0 0.1323,0.0595 0.1323,0.13229 0,0.0728 -0.0595,0.1323 -0.1323,0.1323 -0.0728,0 -0.13229,-0.0595 -0.13229,-0.1323 z m -0.52916,-0.79375 c 0,-0.0728 0.0595,-0.13229 0.13229,-0.13229 0.0728,0 0.13229,0.0595 0.13229,0.13229 0,0.0728 -0.0595,0.1323 -0.13229,0.1323 -0.0728,0 -0.13229,-0.0595 -0.13229,-0.1323 z m -0.26459,-0.52916 c 0,-0.0728 0.0595,-0.13229 0.1323,-0.13229 0.0728,0 0.13229,0.0595 0.13229,0.13229 0,0.0728 -0.0595,0.13229 -0.13229,0.13229 -0.0728,0 -0.1323,-0.0595 -0.1323,-0.13229 z m -0.52916,-1.05834 c 0,-0.0728 0.0595,-0.13229 0.13229,-0.13229 0.0728,0 0.13229,0.0595 0.13229,0.13229 0,0.0728 -0.0595,0.1323 -0.13229,0.1323 -0.0728,0 -0.13229,-0.0595 -0.13229,-0.1323 z m -0.52917,-0.92604 c -0.15576,-0.29104 -0.22367,-0.52916 -0.15091,-0.52916 0.0728,0 0.25973,0.23812 0.41549,0.52916 0.15576,0.29104 0.22367,0.52917 0.15091,0.52917 -0.0728,0 -0.25973,-0.23813 -0.41549,-0.52917 z m -0.52917,-0.92604 c 0,-0.0728 0.0595,-0.13229 0.13229,-0.13229 0.0728,0 0.1323,0.0595 0.1323,0.13229 0,0.0728 -0.0595,0.13229 -0.1323,0.13229 -0.0728,0 -0.13229,-0.0595 -0.13229,-0.13229 z m -2.21324,-3.87783 c -1.11405,-1.91452 -1.97162,-3.53487 -1.90572,-3.60077 0.0659,-0.0659 0.52239,0.51826 1.01442,1.29814 0.49204,0.77988 1.39532,2.40023 2.0073,3.60077 0.61197,1.20055 1.06697,2.18282 1.01111,2.18282 -0.0559,0 -1.01306,-1.56643 -2.12711,-3.48096 z"
         id="path428"
         clip-path="url(#clipPath2526)"
         transform="matrix(7.0890641,0,0,6.8600582,-602.86814,-829.17431)" /><path
         style="fill:#100d11;stroke-width:0.264583"
         d="m 92.001418,155.86517 c -0.436562,-0.10538 -1.049686,-0.3523 -1.362497,-0.54872 -0.31281,-0.19643 -0.759295,-0.75671 -0.992187,-1.2451 -0.232893,-0.48838 -0.423441,-1.0829 -0.423441,-1.32117 0,-0.23827 0.164027,-0.62118 0.364505,-0.85092 0.200477,-0.22974 2.713113,-4.64443 5.583634,-9.81042 2.870522,-5.16599 5.408158,-9.54153 5.639188,-9.72343 0.23104,-0.18191 0.54613,-0.32975 0.70022,-0.32855 0.15409,0.001 0.52652,0.44768 0.82762,0.99219 0.30109,0.5445 1.63221,2.85809 2.95802,5.14132 1.52241,2.62178 2.29555,4.19821 2.09838,4.27859 -0.19336,0.0788 -0.16113,0.1381 0.0847,0.15572 0.22535,0.0162 1.42603,1.88338 2.77813,4.32037 1.30969,2.36056 2.41694,4.5393 2.46057,4.84165 0.0436,0.30235 -0.15402,0.83813 -0.43922,1.19062 -0.51748,0.63958 -0.53259,0.64124 -7.35536,0.80965 -3.76026,0.0928 -8.682294,0.18608 -10.937867,0.20725 -4.101041,0.0385 -4.101041,0.0385 -3.480683,0.55539 0.341198,0.2843 1.115104,0.65295 1.719792,0.81923 0.783039,0.21532 3.992815,0.25786 11.153598,0.14781 5.6158,-0.0863 10.45475,-0.27451 10.96161,-0.42633 0.49909,-0.14949 1.00328,-0.42281 1.12043,-0.60737 0.11714,-0.18456 0.21481,-0.67694 0.21704,-1.09417 0.002,-0.43394 -0.63365,-1.90603 -1.48596,-3.43959 -0.8195,-1.47453 -3.08502,-5.598 -5.03449,-9.16326 -1.94947,-3.56526 -3.94185,-6.88101 -4.42752,-7.36833 -0.48567,-0.48731 -1.286,-0.98114 -1.77853,-1.09739 -0.8955,-0.21137 -0.8955,-0.21137 -0.0364,-0.23845 0.63754,-0.0201 1.1311,0.21862 1.91354,0.92551 0.57992,0.52392 1.63989,1.98244 2.35549,3.24114 0.71559,1.25871 2.99235,5.38418 5.05945,9.16772 2.0671,3.78355 3.81737,7.29773 3.88949,7.8093 0.0932,0.66115 -0.0104,1.10156 -0.3584,1.52293 -0.33047,0.40017 -0.9624,0.67116 -1.94475,0.83397 -0.80036,0.13265 -5.86052,0.29816 -11.24479,0.36781 -5.384269,0.0696 -10.146769,0.0404 -10.583332,-0.065 z m 9.921872,-2.54354 c 3.56526,-0.085 7.1654,-0.19838 8.0003,-0.252 0.8349,-0.0536 1.63857,-0.17202 1.78593,-0.26309 0.14737,-0.0911 0.26794,-0.42224 0.26794,-0.73591 0,-0.31368 -0.91281,-2.23765 -2.02847,-4.27549 -1.11566,-2.03785 -2.02847,-3.85777 -2.02847,-4.04428 0,-0.1865 -0.10625,-0.3391 -0.2361,-0.3391 -0.12986,0 -0.17023,-0.10659 -0.0897,-0.23686 0.0805,-0.13027 -0.0391,-0.30803 -0.26574,-0.395 -0.22667,-0.087 -0.3443,-0.26789 -0.26141,-0.40201 0.0829,-0.13412 0.0547,-0.28378 -0.0627,-0.33259 -0.11737,-0.0488 -0.64181,-0.86265 -1.16542,-1.80854 -0.52362,-0.94589 -1.44836,-2.6933 -2.05498,-3.88315 -0.60662,-1.18984 -1.38586,-2.46862 -1.73164,-2.84172 -0.34578,-0.3731 -0.78427,-0.61609 -0.97442,-0.53997 -0.19014,0.0761 -0.82975,0.99771 -1.421343,2.04798 -0.59159,1.05026 -3.062137,5.36955 -5.490103,9.59842 -2.427966,4.22886 -4.414484,7.92972 -4.414484,8.22413 0,0.2944 0.0893,0.62746 0.198437,0.74013 0.109141,0.11266 1.389063,0.13481 2.844271,0.0492 1.455209,-0.0856 5.562865,-0.22517 9.128122,-0.31015 z m -1.05394,-2.04993 c -0.36138,-0.18181 -0.77417,-0.66356 -0.9173,-1.07055 -0.193808,-0.55109 -0.161158,-0.91572 0.1279,-1.42838 0.21347,-0.3786 0.55143,-0.74243 0.75101,-0.8085 0.21905,-0.0725 0.12918,0.19597 -0.22677,0.67741 -0.5311,0.71836 -0.55399,0.87002 -0.23058,1.52781 0.19748,0.40166 0.60974,0.82122 0.91612,0.93235 0.32109,0.11648 0.82543,0.0683 1.19062,-0.1138 0.50895,-0.25374 0.63357,-0.52249 0.63357,-1.36638 0,-0.9361 -0.10087,-1.10091 -0.92604,-1.51314 -0.50933,-0.25443 -0.78282,-0.46279 -0.60776,-0.46302 0.17505,-2.2e-4 0.61561,0.13507 0.97901,0.30065 0.36341,0.16558 0.76937,0.61268 0.90215,0.99355 0.13278,0.38088 0.15202,0.93415 0.0428,1.22949 -0.10926,0.29534 -0.36079,0.66711 -0.55897,0.82614 -0.19818,0.15904 -0.59845,0.36066 -0.88949,0.44805 -0.29105,0.0874 -0.82485,0.0101 -1.18624,-0.17168 z m -0.004,-4.02348 c 0,-0.0728 0.0595,-0.13229 0.13229,-0.13229 0.0728,0 0.13229,0.0595 0.13229,0.13229 0,0.0728 -0.0595,0.13229 -0.13229,0.13229 -0.0728,0 -0.13229,-0.0595 -0.13229,-0.13229 z m 0.7276,-0.30752 c 0.24552,-0.0991 0.33073,-1.23962 0.33073,-4.42646 0,-3.15316 -0.0934,-4.4207 -0.35167,-4.77395 -0.29899,-0.40889 -0.44286,-0.43215 -0.96027,-0.15524 -0.58693,0.31412 -0.60355,0.41653 -0.46707,2.87777 0.0995,1.79476 0.0773,2.1595 -0.0749,1.22915 -0.119023,-0.72761 -0.226836,-1.87001 -0.239583,-2.53868 -0.01646,-0.86332 0.117089,-1.34271 0.460673,-1.65365 0.26612,-0.24083 0.60485,-0.43788 0.75274,-0.43788 0.14789,0 0.46594,0.21773 0.70677,0.48385 0.37167,0.41069 0.43789,1.17086 0.43789,5.02709 0,4.15845 -0.0392,4.54146 -0.46302,4.52234 -0.27661,-0.0125 -0.32987,-0.0746 -0.1323,-0.15434 z m -1.27432,-3.01825 c -0.0285,-0.54406 -0.14859,-1.8391 -0.082,-1.58443 0.20182,0.16839 0.55706,3.04975 0.49056,3.30441 0.08,0.45799 -0.3321,-0.2593 -0.40857,-1.71998 z m -12.100363,9.75514 c -0.174625,-0.17462 -0.3175,-0.57676 -0.3175,-0.89364 0,-0.31688 0.148828,-0.69904 0.330729,-0.84924 0.255729,-0.21116 0.332318,-0.009 0.337734,0.89365 0.0039,0.6417 -0.0021,1.16673 -0.01323,1.16673 -0.01113,0 -0.163109,-0.14287 -0.337733,-0.3175 z m 26.405413,0.18521 c 0,-0.0728 0.0595,-0.13229 0.13229,-0.13229 0.0728,0 0.1323,0.0595 0.1323,0.13229 0,0.0728 -0.0595,0.13229 -0.1323,0.13229 -0.0728,0 -0.13229,-0.0595 -0.13229,-0.13229 z m -0.86486,-0.68267 c 0.0936,-0.35777 0.21349,-0.4777 0.27954,-0.27954 0.0636,0.19088 -0.0101,0.47285 -0.16386,0.6266 -0.19634,0.19634 -0.23077,0.093 -0.11568,-0.34706 z m -0.98722,-0.11108 c 0,-0.0728 0.0595,-0.13229 0.13229,-0.13229 0.0728,0 0.13229,0.0595 0.13229,0.13229 0,0.0728 -0.0595,0.13229 -0.13229,0.13229 -0.0728,0 -0.13229,-0.0595 -0.13229,-0.13229 z m -25.34842,-1.05833 c 0.0054,-0.43656 0.06469,-0.58313 0.131774,-0.3257 0.06708,0.25744 0.06267,0.61462 -0.0098,0.79375 -0.07248,0.17914 -0.127363,-0.0315 -0.121971,-0.46805 z m 18.63408,-19.60716 c -0.41866,-0.52471 -1.2521,-1.17693 -1.85208,-1.44939 -0.59998,-0.27245 -0.87777,-0.49799 -0.61731,-0.50118 0.26046,-0.003 0.93381,0.22899 1.49634,0.51597 0.56253,0.28698 1.27216,0.83882 1.57696,1.22631 0.3048,0.38748 0.55418,0.80753 0.55418,0.93342 0,0.1259 -0.0893,0.2289 -0.19844,0.2289 -0.10914,-10e-6 -0.54098,-0.42932 -0.95965,-0.95403 z m -0.12799,-2.50833 c -0.34355,-0.27851 -0.51513,-0.50639 -0.3813,-0.50639 0.13383,0 0.47425,0.16886 0.7565,0.37525 0.28224,0.20638 0.45383,0.43426 0.3813,0.50639 -0.0725,0.0721 -0.41296,-0.0967 -0.7565,-0.37525 z m -1.09517,-0.63868 c 0,-0.0728 0.0595,-0.13229 0.13229,-0.13229 0.0728,0 0.13229,0.0595 0.13229,0.13229 0,0.0728 -0.0595,0.13229 -0.13229,0.13229 -0.0728,0 -0.13229,-0.0595 -0.13229,-0.13229 z"
         id="path418"
         sodipodi:nodetypes="csssssscssscsssssssssscssssssssssscccssssssssssssssssssssssssssssscssssscssssssssssscssssssssssssccsssscssssssssssssssssssssssscssssscssscsssss"
         clip-path="url(#clipPath2522)"
         transform="matrix(7.0890641,0,0,6.8600582,-602.86814,-829.17431)"
         inkscape:export-filename="path418.png"
         inkscape:export-xdpi="96"
         inkscape:export-ydpi="96" /></g></g></svg>
