<?xml version="1.0" encoding="UTF-8" standalone="no"?>
<!-- Created with Inkscape (http://www.inkscape.org/) -->

<svg
   width="70.571182mm"
   height="68.510353mm"
   viewBox="0 0 70.571182 68.510353"
   version="1.1"
   id="svg5"
   xml:space="preserve"
   xmlns:inkscape="http://www.inkscape.org/namespaces/inkscape"
   xmlns:sodipodi="http://sodipodi.sourceforge.net/DTD/sodipodi-0.dtd"
   xmlns="http://www.w3.org/2000/svg"
   xmlns:svg="http://www.w3.org/2000/svg"><sodipodi:namedview
     id="namedview7"
     pagecolor="#ffffff"
     bordercolor="#000000"
     borderopacity="0.25"
     inkscape:showpageshadow="2"
     inkscape:pageopacity="0.0"
     inkscape:pagecheckerboard="0"
     inkscape:deskcolor="#d1d1d1"
     inkscape:document-units="mm"
     showgrid="false" /><defs
     id="defs2" /><g
     inkscape:label="Capa 1"
     inkscape:groupmode="layer"
     id="layer1"
     transform="translate(-100.75569,-115.12142)"><path
       style="fill:#5fe39f;fill-opacity:1;stroke:#000000;stroke-width:0.185661;stroke-opacity:1"
       d="m 136.17058,120.99879 c 3.95162,-1.73473 0.86906,-4.16639 0.65618,-5.77053 4.38425,0.54105 6.65582,6.5415 5.59163,8.40919 l -0.46787,0.76636 -0.62777,0.68306 c -1.05077,1.11857 -1.40829,2.05571 -1.71806,3.42183 l -0.27974,1.23368 -0.0728,0.7995 -0.0727,0.7995 -0.064,3.64563 c -0.0194,3.90876 -0.14585,7.68889 -0.21111,11.67401 l -0.12691,7.74921 -0.0759,5.48691 -0.0759,5.48691 -0.01,4.02231 c -0.0405,2.88114 -0.10853,4.89235 1.13727,7.33049 0.97529,2.217 1.03163,4.06035 -0.7479,5.57927 -0.97335,1.09139 -2.72604,1.32096 -3.93428,1.18857 l -0.98669,-0.11693 c -2.85009,-1.27917 -4.35401,-3.88737 -3.13752,-6.61556 1.94423,-2.31974 1.12964,-7.54437 1.16201,-11.53738 l 0.0727,-8.95904 0.0689,-6.11921 0.0689,-6.11921 0.0837,-6.21053 0.0837,-6.21053 -0.0189,-0.76625 -0.0188,-0.76625 c -0.84549,-3.02858 -2.66627,-4.35147 -3.413,-7.12805 -0.18542,-1.37935 0.0688,-2.86217 0.28114,-4.108 0.16341,-0.73262 0.62082,-1.26149 1.30338,-1.91713 1.58277,1.95653 2.12153,5.13036 5.55001,4.06817 z"
       id="path3794"
       sodipodi:nodetypes="cccccccccccccccccccccccccccccccc"
       inkscape:export-filename="cruz_green.svg"
       inkscape:export-xdpi="96"
       inkscape:export-ydpi="96" /><path
       style="fill:#5fe39f;fill-opacity:1;stroke:#000000;stroke-width:0.191164;stroke-opacity:1"
       d="m 165.27274,149.74617 c 1.78691,4.06701 4.29173,0.89443 5.94412,0.67533 -0.55732,4.5123 -6.73827,6.8502 -8.66215,5.75493 l -0.78942,-0.48153 -0.7036,-0.64611 c -1.15222,-1.08146 -2.11755,-1.44942 -3.52476,-1.76823 l -1.27079,-0.28791 -0.82356,-0.075 -0.82356,-0.0749 -3.75528,-0.0658 c -4.02636,-0.02 -7.92019,-0.1501 -12.02519,-0.21727 l -7.98233,-0.13062 -5.65196,-0.0781 -5.65197,-0.0781 -4.1433,-0.0101 c -2.96782,-0.0417 -5.03953,-0.11171 -7.55101,1.17048 -2.28369,1.00377 -4.1825,1.06175 -5.7471,-0.76974 -1.12423,-1.00178 -1.3607,-2.80566 -1.22433,-4.04918 l 0.12044,-1.0155 c 1.31765,-2.93333 4.00431,-4.48117 6.81457,-3.22915 2.38953,2.001 7.77133,1.16262 11.88445,1.19594 l 9.22854,0.0748 6.3033,0.071 6.30329,0.071 6.39734,0.0861 6.39736,0.0862 0.7893,-0.0194 0.7893,-0.0193 c 3.11968,-0.87018 4.48237,-2.74414 7.34247,-3.51268 1.42085,-0.19083 2.94827,0.0709 4.23158,0.28936 0.75467,0.16818 1.29944,0.63895 1.97481,1.34144 -2.01539,1.629 -5.2847,2.18349 -4.19056,5.71209 z"
       id="path3794-8"
       sodipodi:nodetypes="cccccccccccccccccccccccccccccccc" /></g></svg>
