<?xml version="1.0" encoding="UTF-8" standalone="no"?>
<!-- Created with Inkscape (http://www.inkscape.org/) -->

<svg
   width="171.23778mm"
   height="117.87044mm"
   viewBox="0 0 171.23778 117.87044"
   version="1.1"
   id="svg5"
   xml:space="preserve"
   xmlns:inkscape="http://www.inkscape.org/namespaces/inkscape"
   xmlns:sodipodi="http://sodipodi.sourceforge.net/DTD/sodipodi-0.dtd"
   xmlns="http://www.w3.org/2000/svg"
   xmlns:svg="http://www.w3.org/2000/svg"><sodipodi:namedview
     id="namedview7"
     pagecolor="#ffffff"
     bordercolor="#000000"
     borderopacity="0.25"
     inkscape:showpageshadow="2"
     inkscape:pageopacity="0.0"
     inkscape:pagecheckerboard="0"
     inkscape:deskcolor="#d1d1d1"
     inkscape:document-units="mm"
     showgrid="false" /><defs
     id="defs2" /><g
     inkscape:label="Capa 1"
     inkscape:groupmode="layer"
     id="layer1"
     transform="translate(-20.858262,-25.989944)"><g
       id="g344"
       transform="matrix(0.35277778,0,0,0.35277778,-16.992589,-13.852991)"><path
         d="m 484.99,231.64 c -44.551,0 -84.543,27.648 -100.45,69.023 -262.68,0.35547 -247.3,-0.85156 -249.32,0.94141 -27.973,24.883 -27.094,23.91 -27.543,24.938 -0.19922,0.45703 -0.32031,0.96094 -0.32031,1.4922 0.57422,19.285 -1.3438,21.773 1.8086,23.672 42.484,25.359 40.637,24.984 42.535,24.984 42.238,-0.74219 22.352,5.9492 47.609,-22.859 17.086,21.164 16.375,22.859 19.605,22.859 h 49.012 c 2.9609,0 2.8945,-1.9844 14.699,-14.867 19.414,19.031 2.2852,14.219 38.512,14.867 0.96094,0 1.8867,-0.37109 2.5859,-1.0391 l 14.918,-14.32 c 23.508,21.828 7.1719,13.816 45.391,15.363 15.551,42.18 55.738,70.367 100.95,70.367 59.391,0 107.71,-48.316 107.71,-107.71 0.0117,-59.395 -48.309,-107.71 -107.7,-107.71 z M 357.66,369.22 c -13.453,-11.453 -17.137,-20.051 -21.59,-15.762 l -16.422,15.762 h -20.609 l -13.59,-15.531 c -1.4219,-1.6172 -4.1992,-1.6211 -5.6211,0 l -13.586,15.527 -45.488,0.004 -18.488,-23.762 c -1.4141,-1.8203 -4.4766,-1.8203 -5.8906,0 l -18.488,23.762 h -25.141 l -37.914,-22.828 v -14.629 c 149.31,-1.6289 153.33,3.4766 153.33,-3.7344 0,-2.0625 -1.668,-3.7344 -3.7344,-3.7344 l -143.5,0.004 18.203,-16.172 h 242.78 c -5.5547,18.301 -6.418,40.262 -0.39062,61.094 z m 127.33,70.371 c -55.754,0 -100.24,-45.27 -100.24,-100.24 0,-55.57 45.215,-100.24 100.24,-100.24 55.273,0 100.24,44.969 100.24,100.24 0,55.273 -44.969,100.24 -100.24,100.24 z"
         id="path250"
         style="fill:#d82b36;fill-opacity:1" /><path
         d="m 412.94,299.2 c -0.89844,1.6133 -0.30469,-2.3281 -0.47266,78.457 0,0.63281 0.16016,1.2578 0.46875,1.8125 14.523,26.145 42.137,42.387 72.055,42.387 45.492,0 82.5,-37.012 82.5,-82.504 0.004,-84.414 -113.11,-114.45 -154.55,-40.152 z m 72.051,115.19 c -26.891,0 -51.73,-14.426 -65.059,-37.715 v -74.676 c 38.27,-66.582 140.09,-39.023 140.09,37.352 0,41.379 -33.66,75.039 -75.035,75.039 z"
         id="path252"
         style="fill:#d82b36;fill-opacity:1" /><path
         d="m 513.7,306.91 c -17.887,0 -32.441,14.551 -32.441,32.438 0,17.887 14.555,32.441 32.441,32.441 17.887,0 32.441,-14.551 32.441,-32.441 0,-17.883 -14.555,-32.438 -32.441,-32.438 z m 0,57.414 c -13.77,0 -24.973,-11.203 -24.973,-24.973 0,-13.77 11.203,-24.973 24.973,-24.973 13.77,0 24.973,11.203 24.973,24.973 0.004,13.77 -11.203,24.973 -24.973,24.973 z"
         id="path254"
         style="fill:#d82b36;fill-opacity:1" /><path
         d="m 554.92,215.05 c 2.0625,0 3.7344,-1.6719 3.7344,-3.7344 -1.5586,-91.848 3.4141,-98.375 -3.7344,-98.375 l -422.82,0.004 c -7.1719,0 -2.1797,6.7773 -3.7344,98.375 0,2.0586 -16.316,1.9961 426.55,3.7305 z M 135.84,120.409 h 415.35 v 87.172 l -415.35,0.004 z"
         id="path256"
         style="fill:#d82b36;fill-opacity:1" /><path
         d="m 199.21,160.26 9.3633,-9.3633 c 3.4922,-3.4922 -1.7891,-8.7695 -5.2773,-5.2773 l -9.3672,9.3672 c -0.78125,-7.9258 2.2812,-16.977 -3.7344,-16.977 -6.0195,0 -2.9453,8.957 -3.7344,16.973 l -9.3633,-9.3633 c -3.4922,-3.4922 -8.7695,1.7891 -5.2773,5.2773 l 9.3633,9.3633 c -7.9258,0.78125 -16.977,-2.2812 -16.977,3.7344 0,6.0195 8.9609,2.9453 16.977,3.7344 l -9.3633,9.3633 c -2.3633,2.3633 -0.65234,6.3711 2.6406,6.3711 2.6797,0 2.9609,-1.8984 12.004,-10.457 0.78125,7.9258 -2.2812,16.977 3.7344,16.977 2.0625,0 3.7344,-1.6719 3.7344,-3.7344 l -0.004,-13.246 c 9.0312,8.5508 9.3242,10.461 12.004,10.461 3.2891,0 5.0039,-4.0078 2.6406,-6.3711 l -9.3633,-9.3633 c 7.9258,-0.78125 16.977,2.2812 16.977,-3.7344 0,-2.0664 -8.957,-2.9453 -16.977,-3.7344 z"
         id="path258"
         style="fill:#d82b36;fill-opacity:1" /><path
         d="m 275.87,160.26 9.3633,-9.3633 c 3.4922,-3.4922 -1.7891,-8.7695 -5.2773,-5.2773 l -9.3633,9.3633 c -0.78125,-7.9258 2.2812,-16.973 -3.7344,-16.973 -6.0195,0 -2.9453,8.9609 -3.7344,16.977 l -9.3672,-9.3672 c -3.4922,-3.4922 -8.7695,1.7891 -5.2773,5.2773 l 9.3633,9.3633 c -7.9258,0.78125 -16.977,-2.2812 -16.977,3.7344 0,6.0195 8.9609,2.9453 16.977,3.7344 l -9.3633,9.3633 c -1.457,1.457 -1.457,3.8203 0,5.2773 0.73047,0.73047 1.6836,1.0938 2.6406,1.0938 0.95703,0 1.9102,-0.36328 2.6406,-1.0938 l 9.3672,-9.3672 v 13.246 c 0,4.9375 7.4648,4.9414 7.4648,0 v -13.242 c 9.0312,8.5508 9.3242,10.457 12.004,10.457 3.2891,0 5.0039,-4.0078 2.6406,-6.3711 l -9.3633,-9.3633 c 7.9258,-0.78125 16.977,2.2812 16.977,-3.7344 -0.004,-2.0664 -8.9648,-2.9453 -16.98,-3.7344 z"
         id="path260"
         style="fill:#d82b36;fill-opacity:1" /><path
         d="m 352.53,160.26 9.3633,-9.3633 c 3.4922,-3.4922 -1.7891,-8.7695 -5.2773,-5.2773 l -9.3672,9.3672 c -0.78125,-7.9258 2.2812,-16.977 -3.7344,-16.977 -6.0195,0 -2.9453,8.957 -3.7344,16.973 l -9.3633,-9.3633 c -3.4922,-3.4922 -8.7695,1.7891 -5.2773,5.2773 l 9.3633,9.3633 c -7.9258,0.78125 -16.977,-2.2812 -16.977,3.7344 0,6.0195 8.9609,2.9453 16.977,3.7344 l -9.3633,9.3633 c -2.3633,2.3633 -0.65234,6.3711 2.6406,6.3711 2.6797,0 2.9609,-1.8984 12.004,-10.457 v 13.242 c 0,4.9375 7.4648,4.9414 7.4648,0 v -13.246 c 9.0312,8.5508 9.3242,10.461 12.004,10.461 3.2891,0 5.0039,-4.0078 2.6406,-6.3711 l -9.3633,-9.3633 c 7.9258,-0.78125 16.977,2.2812 16.977,-3.7344 0,-2.0664 -8.9609,-2.9453 -16.977,-3.7344 z"
         id="path262"
         style="fill:#d82b36;fill-opacity:1" /><path
         d="m 429.19,160.26 9.3633,-9.3633 c 3.4922,-3.4922 -1.7891,-8.7695 -5.2773,-5.2773 l -9.3672,9.3672 c -0.78125,-7.9258 2.2812,-16.977 -3.7344,-16.977 -6.0195,0 -2.9453,8.957 -3.7344,16.973 l -9.3633,-9.3633 c -3.4922,-3.4922 -8.7695,1.7891 -5.2773,5.2773 l 9.3633,9.3633 c -7.9258,0.78125 -16.977,-2.2812 -16.977,3.7344 0,6.0195 8.9609,2.9453 16.977,3.7344 l -9.3633,9.3633 c -2.3633,2.3633 -0.65234,6.3711 2.6406,6.3711 2.6797,0 2.9609,-1.8984 12.004,-10.457 v 13.242 c 0,4.9375 7.4648,4.9414 7.4648,0 v -13.246 c 9.0312,8.5508 9.3242,10.461 12.004,10.461 3.2891,0 5.0039,-4.0078 2.6406,-6.3711 l -9.3633,-9.3633 c 7.9258,-0.78125 16.973,2.2812 16.973,-3.7344 0,-2.0664 -8.957,-2.9453 -16.973,-3.7344 z"
         id="path264"
         style="fill:#d82b36;fill-opacity:1" /><path
         d="m 505.84,160.26 9.3633,-9.3633 c 3.4922,-3.4922 -1.7891,-8.7695 -5.2773,-5.2773 l -9.3633,9.3633 c -0.78125,-7.9258 2.2812,-16.973 -3.7344,-16.973 -6.0195,0 -2.9453,8.9609 -3.7344,16.977 -6.1562,-5.0547 -10.395,-13.617 -14.645,-9.3672 -4.2539,4.2539 4.2539,8.418 9.3633,14.645 h -13.242 c -4.9414,0 -4.9375,7.4648 0,7.4648 h 13.242 c -5.0547,6.1562 -13.617,10.391 -9.3633,14.645 4.2537,4.254 8.418,-4.2539 14.645,-9.3672 0.78125,7.9258 -2.2812,16.98 3.7344,16.98 6.0195,0 2.9453,-8.957 3.7344,-16.977 9.0312,8.5508 9.3242,10.457 12.004,10.457 3.2891,0 5.0039,-4.0078 2.6406,-6.3711 l -9.3633,-9.3633 c 7.9258,-0.78125 16.977,2.2812 16.977,-3.7344 -0.004,-2.0703 -8.9609,-2.9492 -16.98,-3.7383 z"
         id="path266"
         style="fill:#d82b36;fill-opacity:1" /></g></g></svg>
