<?xml version="1.0" encoding="UTF-8" standalone="no"?>
<!-- Created with Inkscape (http://www.inkscape.org/) -->

<svg
   width="130.00441mm"
   height="100.55mm"
   viewBox="0 0 130.00441 100.55"
   version="1.1"
   id="svg5"
   xml:space="preserve"
   xmlns:inkscape="http://www.inkscape.org/namespaces/inkscape"
   xmlns:sodipodi="http://sodipodi.sourceforge.net/DTD/sodipodi-0.dtd"
   xmlns="http://www.w3.org/2000/svg"
   xmlns:svg="http://www.w3.org/2000/svg"><sodipodi:namedview
     id="namedview7"
     pagecolor="#ffffff"
     bordercolor="#000000"
     borderopacity="0.25"
     inkscape:showpageshadow="2"
     inkscape:pageopacity="0.0"
     inkscape:pagecheckerboard="0"
     inkscape:deskcolor="#d1d1d1"
     inkscape:document-units="mm"
     showgrid="false" /><defs
     id="defs2" /><g
     inkscape:label="Capa 1"
     inkscape:groupmode="layer"
     id="layer1"
     transform="translate(-38.904847,-67.76354)"><path
       style="fill:#ffffff;fill-opacity:1;stroke-width:0.193236"
       d="m 115.68229,168.19252 c -9.44967,-1.08761 -18.287724,-4.86403 -25.587865,-10.93346 -3.662516,-3.04506 -9.140969,-9.4768 -10.309928,-12.10391 -0.584218,-1.31297 -0.542681,-3.87241 0.08473,-5.22113 1.656787,-3.56149 6.034198,-4.7632 9.156601,-2.51372 0.408716,0.29445 1.454863,1.52541 2.324771,2.73547 2.015625,2.80376 3.991976,4.9853 6.195307,6.83851 4.597874,3.86725 9.619664,6.42022 15.126164,7.68983 20.67253,4.76639 40.72059,-9.73469 43.68166,-31.59563 0.45592,-3.36601 0.27676,-9.29522 -0.37846,-12.5247 C 153.27081,97.233805 143.926,86.438934 131.5244,82.318775 c -9.69776,-3.221865 -20.39705,-2.01908 -29.08532,3.269689 -4.233065,2.576772 -8.094248,6.18514 -11.066921,10.342301 -0.903523,1.263539 -1.897468,2.485885 -2.208764,2.716322 -2.557136,1.892923 -5.907158,1.698063 -8.024197,-0.46674 -1.608202,-1.644483 -2.269209,-4.39822 -1.576321,-6.566892 0.835374,-2.61464 6.134566,-9.050364 10.41937,-12.65404 3.847142,-3.235588 9.423649,-6.509809 14.044473,-8.246152 2.51693,-0.945772 6.85537,-2.077571 9.57083,-2.496806 2.86461,-0.442262 8.33514,-0.592581 11.18176,-0.307249 8.38645,0.840614 15.72362,3.52915 22.59715,8.2802 11.30911,7.816967 18.94808,20.19024 21.10875,34.191032 0.40495,2.62402 0.56729,10.24767 0.27547,12.93626 -1.26941,11.69535 -5.96027,21.90819 -13.83984,30.13185 -2.92955,3.05747 -4.64512,4.52276 -7.87277,6.7242 -6.08158,4.148 -12.64879,6.69907 -20.18402,7.84058 -1.92647,0.29184 -9.19148,0.40826 -11.18176,0.17919 z M 60.342043,142.37484 c -0.945211,-0.37995 -1.939666,-1.34879 -10.669282,-10.3945 -10.95955,-11.35638 -10.767692,-11.10842 -10.767692,-13.91597 0,-2.80758 -0.191882,-2.5596 10.767692,-13.91569 9.153469,-9.484646 9.682838,-9.996715 10.764043,-10.41229 3.045631,-1.170621 6.454855,0.284223 7.83842,3.344947 0.403491,0.892602 0.488056,1.361489 0.479701,2.659821 -0.01639,2.547962 -0.238541,2.901072 -4.863781,7.731092 l -4.007246,4.18466 34.579823,0.0513 34.579819,0.0513 1.06919,0.54585 c 1.2494,0.63785 2.49209,1.95937 3.06696,3.2615 0.62951,1.42592 0.57966,3.71945 -0.1127,5.18512 -0.6126,1.29682 -1.88223,2.5883 -3.13731,3.19131 l -0.88614,0.42575 -34.579819,0.0513 -34.579823,0.0513 4.007246,4.18466 c 4.62524,4.83002 4.847386,5.18312 4.863781,7.73109 0.0083,1.29356 -0.07706,1.7705 -0.476199,2.65982 -0.591708,1.3184 -1.759637,2.56484 -2.964436,3.16371 -1.310423,0.65137 -3.573682,0.72589 -4.972247,0.16372 z"
       id="path302"
       sodipodi:nodetypes="ssssssssssssssssssssssssssscssssssscccsssscccsssscc" /></g></svg>
