<?xml version="1.0" encoding="UTF-8" standalone="no"?>
<!-- Created with Inkscape (http://www.inkscape.org/) -->

<svg
   width="171.23778mm"
   height="117.87044mm"
   viewBox="0 0 171.23778 117.87044"
   version="1.1"
   id="svg5"
   xml:space="preserve"
   sodipodi:docname="icon_key_open.svg"
   inkscape:version="1.2.2 (732a01da63, 2022-12-09)"
   xmlns:inkscape="http://www.inkscape.org/namespaces/inkscape"
   xmlns:sodipodi="http://sodipodi.sourceforge.net/DTD/sodipodi-0.dtd"
   xmlns="http://www.w3.org/2000/svg"
   xmlns:svg="http://www.w3.org/2000/svg"><sodipodi:namedview
     id="namedview7"
     pagecolor="#ffffff"
     bordercolor="#000000"
     borderopacity="0.25"
     inkscape:showpageshadow="2"
     inkscape:pageopacity="0.0"
     inkscape:pagecheckerboard="0"
     inkscape:deskcolor="#d1d1d1"
     inkscape:document-units="mm"
     showgrid="false"
     inkscape:zoom="1.795757"
     inkscape:cx="368.64675"
     inkscape:cy="219.40607"
     inkscape:window-width="2560"
     inkscape:window-height="1009"
     inkscape:window-x="-8"
     inkscape:window-y="-8"
     inkscape:window-maximized="1"
     inkscape:current-layer="g344" /><defs
     id="defs2" /><g
     inkscape:label="Capa 1"
     inkscape:groupmode="layer"
     id="layer1"
     transform="translate(-20.858262,-25.989944)"><g
       id="g344"
       transform="matrix(0.35277778,0,0,0.35277778,-16.992589,-13.852991)"><path
         d="m 484.98999,165.65112 c -44.551,0 -84.543,27.648 -100.45,69.023 -262.68,0.35547 -247.3,-0.85156 -249.32,0.94141 -27.973,24.883 -27.094,23.91 -27.543,24.938 -0.19922,0.45703 -0.32031,0.96094 -0.32031,1.4922 0.57422,19.285 -1.3438,21.773 1.8086,23.672 42.484,25.359 40.637,24.984 42.535,24.984 42.238,-0.74219 22.352,5.9492 47.609,-22.859 17.086,21.164 16.375,22.859 19.605,22.859 h 49.012 c 2.9609,0 2.8945,-1.9844 14.699,-14.867 19.414,19.031 2.2852,14.219 38.512,14.867 0.96094,0 1.8867,-0.37109 2.5859,-1.0391 l 14.918,-14.32 c 23.508,21.828 7.1719,13.816 45.391,15.363 15.551,42.18 55.738,70.367 100.95,70.367 59.391,0 107.71,-48.316 107.71,-107.71 0.0117,-59.395 -48.309,-107.71 -107.7,-107.71 z m -127.33,137.58 c -13.453,-11.453 -17.137,-20.051 -21.59,-15.762 l -16.422,15.762 h -20.609 l -13.59,-15.531 c -1.4219,-1.6172 -4.1992,-1.6211 -5.6211,0 l -13.586,15.527 -45.488,0.004 -18.488,-23.762 c -1.4141,-1.8203 -4.4766,-1.8203 -5.8906,0 l -18.488,23.762 h -25.141 l -37.914,-22.828 v -14.629 c 149.31,-1.6289 153.33,3.4766 153.33,-3.7344 0,-2.0625 -1.668,-3.7344 -3.7344,-3.7344 l -143.5,0.004 18.203,-16.172 h 242.78 c -5.5547,18.301 -6.418,40.262 -0.39062,61.094 z m 127.33,70.371 c -55.754,0 -100.24,-45.27 -100.24,-100.24 0,-55.57 45.215,-100.24 100.24,-100.24 55.273,0 100.24,44.969 100.24,100.24 0,55.273 -44.969,100.24 -100.24,100.24 z"
         id="path250"
         style="fill:#d82b36;fill-opacity:1" /><path
         d="m 412.93999,233.21112 c -0.89844,1.6133 -0.30469,-2.3281 -0.47266,78.457 0,0.63281 0.16016,1.2578 0.46875,1.8125 14.523,26.145 42.137,42.387 72.055,42.387 45.492,0 82.5,-37.012 82.5,-82.504 0.004,-84.414 -113.11,-114.45 -154.55,-40.152 z m 72.051,115.19 c -26.891,0 -51.73,-14.426 -65.059,-37.715 v -74.676 c 38.27,-66.582 140.09,-39.023 140.09,37.352 0,41.379 -33.66,75.039 -75.035,75.039 z"
         id="path252"
         style="fill:#d82b36;fill-opacity:1" /><path
         d="m 513.69999,240.92112 c -17.887,0 -32.441,14.551 -32.441,32.438 0,17.887 14.555,32.441 32.441,32.441 17.887,0 32.441,-14.551 32.441,-32.441 0,-17.883 -14.555,-32.438 -32.441,-32.438 z m 0,57.414 c -13.77,0 -24.973,-11.203 -24.973,-24.973 0,-13.77 11.203,-24.973 24.973,-24.973 13.77,0 24.973,11.203 24.973,24.973 0.004,13.77 -11.203,24.973 -24.973,24.973 z"
         id="path254"
         style="fill:#d82b36;fill-opacity:1" /></g></g></svg>
