<?xml version="1.0" encoding="UTF-8" standalone="no"?>
<!-- Created with Inkscape (http://www.inkscape.org/) -->

<svg
   version="1.1"
   id="svg3110"
   width="85.168472"
   height="148.47153"
   viewBox="0 0 85.168472 148.47153"
   sodipodi:docname="Screenshot 2023-04-28 164509.png"
   xmlns:inkscape="http://www.inkscape.org/namespaces/inkscape"
   xmlns:sodipodi="http://sodipodi.sourceforge.net/DTD/sodipodi-0.dtd"
   xmlns="http://www.w3.org/2000/svg"
   xmlns:svg="http://www.w3.org/2000/svg">
  <defs
     id="defs3114" />
  <sodipodi:namedview
     id="namedview3112"
     pagecolor="#ffffff"
     bordercolor="#000000"
     borderopacity="0.25"
     inkscape:showpageshadow="2"
     inkscape:pageopacity="0.0"
     inkscape:pagecheckerboard="0"
     inkscape:deskcolor="#d1d1d1"
     showgrid="false" />
  <g
     inkscape:groupmode="layer"
     inkscape:label="Image"
     id="g3116"
     transform="translate(-31.184395,-20.524296)">
    <path
       style="fill:#ffffff;fill-opacity:1;stroke-width:0.776413"
       d="m 46.728136,167.02008 c -2.4048,-3.13585 -2.652624,-8.01948 -2.165203,-42.66787 0.247854,-17.61893 0.460575,-37.054371 0.47271,-43.189883 l 0.02208,-11.155474 2.491497,-0.246406 2.491497,-0.246405 0.117062,-8.649702 0.117062,-8.649702 h 2.566089 2.566089 l 0.216768,8.846286 0.21676,8.846287 h 4.191273 4.191266 v -8.649702 -8.649703 h 3.066458 3.066458 v 8.649703 8.649702 h 2.732214 2.732215 l -0.240718,46.590449 c -0.218125,42.21818 -2.085834,48.62646 -2.865559,48.51741 -2.500272,4.74054 -8.915639,3.36262 -9.695868,-1.13219 -1.284161,-7.39792 -0.366129,-21.60606 -0.398812,-23.69602 l -1.07954,-24.27896 -1.693298,-0.24702 -1.693306,-0.24704 -0.22323,24.3707 c -0.213802,23.34063 -0.291276,24.46447 -1.833106,26.58931 -2.323448,3.20202 -7.153403,3.53518 -9.36885,0.64623 z M 69.589379,78.950081 v -2.752178 h -9.582682 -9.582681 v 2.752178 2.752178 h 9.582681 9.582682 z m 37.856201,22.996329 c -60.236572,-53.168992 -30.118284,-26.584494 0,0 z M 93.35443,123.8673 c 0,-0.16342 0.534954,-1.61038 1.188777,-3.21546 1.1516,-2.82708 1.126409,-3.00218 -0.805631,-5.60039 -1.096926,-1.47514 -2.270344,-2.68206 -2.607609,-2.68206 -1.476338,0 -5.441683,1.79347 -5.441683,2.46119 0,0.40407 -0.54044,2.05024 -1.200978,3.65818 l -1.200978,2.9235 -1.071697,-1.96584 c -1.33591,-2.45048 -1.412249,-7.63058 -0.150141,-10.1888 0.52431,-1.06275 2.314279,-2.88034 3.977717,-4.0391 2.498918,-1.74076 3.329384,-3.03414 4.779581,-7.443826 0.965329,-2.93534 1.637277,-5.44889 1.503362,-5.595255 -0.03834,-0.04191 -1.681642,-0.0044 -6.426936,-2.801322 C 82.322274,86.237201 82.310893,82.847892 81.303127,78.044629 79.785968,68.435903 79.024625,64.585621 77.253746,64.009106 75.9169,63.573894 75.722295,62.817819 75.722295,58.059173 v -5.451367 h 2.263775 c 3.315002,0 6.006808,1.511059 7.701141,4.323064 0.821972,1.364195 2.660812,7.364574 4.086309,13.334175 2.499608,10.467669 3.821458,13.135837 5.8657,11.839928 1.568907,-0.994582 2.553992,-6.431233 1.648206,-9.096409 -1.96307,-5.77615 -0.08077,-12.291558 4.117944,-14.253833 2.45479,-1.147253 3.16822,-0.397542 2.03958,2.143286 -1.28734,2.898094 -1.10459,4.401 0.83791,6.890753 1.66394,2.132717 1.82188,2.172113 4.72886,1.179505 2.27986,-0.77847 3.17543,-1.597614 3.7018,-3.385915 1.46572,-4.979584 1.35815,-4.844646 2.54418,-3.191638 0.62,0.864114 1.09517,3.311464 1.09517,5.640607 0,4.674589 -2.09642,8.02426 -6.08178,9.717519 -2.96784,1.260945 -4.88286,6.715518 -4.18672,11.925078 0.44679,3.343561 0.32189,3.702136 -1.83946,5.280752 -1.61239,1.177657 -2.79328,3.134723 -3.87621,6.423962 -1.410484,4.28412 -1.453192,4.98614 -0.45276,7.44212 2.15716,5.29563 0.90873,11.38392 -2.894629,14.11644 -1.559432,1.12037 -3.666881,1.65492 -3.666881,0.9301 z m -62.145496,-22.94887 -0.02454,-18.420156 0.688313,-17.714342 0.694481,-5.058935 c 0.445631,-3.246195 4.704598,-6.805127 8.849108,-7.557012 l 2.874805,-0.521539 v 6.058653 c 0,5.343936 -0.176207,6.105917 -1.493726,6.45932 -1.41724,0.38015 -1.178819,1.333935 -1.724882,18.47472 L 40.47853,101.28347 c -1.620255,6.10087 -9.127027,2.69024 -9.269594,-0.36504 z M 53.570685,46.512458 c -5.317916,-2.522105 -6.703126,-7.701904 -6.711848,-12.528198 0,-8.435083 5.482221,-13.967972 13.647869,-13.423027 3.296428,0.219991 5.012901,0.821034 7.174631,2.512284 3.144369,2.460031 4.197793,7.295685 4.197793,10.926339 0,3.630655 -1.053424,8.724391 -4.197793,11.184422 -3.72925,2.917612 -10.222652,3.52881 -14.110652,1.32818 z"
       id="path3237"
       sodipodi:nodetypes="ssccccccccccccccccccccscsccccsssscccccccccccsssssscsssssccsscssssssssssssssssssssccsscsssccsccssssc" />
  </g>
</svg>
