<?xml version="1.0" encoding="UTF-8" standalone="no"?>
<!-- Created with Inkscape (http://www.inkscape.org/) -->

<svg
   version="1.1"
   id="svg1118"
   width="376.83197"
   height="387.75464"
   viewBox="0 0 376.83197 387.75464"
   sodipodi:docname="686317.png"
   xmlns:inkscape="http://www.inkscape.org/namespaces/inkscape"
   xmlns:sodipodi="http://sodipodi.sourceforge.net/DTD/sodipodi-0.dtd"
   xmlns="http://www.w3.org/2000/svg"
   xmlns:svg="http://www.w3.org/2000/svg">
  <defs
     id="defs1122" />
  <sodipodi:namedview
     id="namedview1120"
     pagecolor="#ffffff"
     bordercolor="#000000"
     borderopacity="0.25"
     inkscape:showpageshadow="2"
     inkscape:pageopacity="0.0"
     inkscape:pagecheckerboard="0"
     inkscape:deskcolor="#d1d1d1"
     showgrid="false" />
  <g
     inkscape:groupmode="layer"
     inkscape:label="Image"
     id="g1124"
     transform="translate(-84.996155,-56.212917)">
    <path
       style="fill:#ffffff;fill-opacity:1;stroke-width:0.746593"
       d="m 157.26825,442.35284 -3.1679,-1.61354 -34.5521,-71.08052 C 98.576847,326.51644 85.00251,297.756 85.012321,296.48625 c 0.0089,-1.15061 0.654696,-3.53949 1.435124,-5.30864 1.383166,-3.13548 1.83298,-3.42732 17.831835,-11.56957 21.09575,-10.73621 25.24479,-11.56096 37.16264,-7.38722 l 4.55777,1.59617 5.39556,-4.85804 c 2.96755,-2.67193 8.62503,-7.75485 12.57215,-11.29538 12.80515,-11.48608 24.35337,-17.75781 38.78875,-21.06578 7.60934,-1.74374 24.2201,-1.69992 31.47178,0.083 13.31867,3.27462 21.83352,7.62537 34.89996,17.8325 4.17794,3.26369 8.31968,6.33005 9.20387,6.81412 1.14954,0.62936 10.62876,0.88015 33.26777,0.88015 20.65495,0 33.01589,0.29622 35.56038,0.85219 9.44081,2.06282 19.16386,9.904 22.70163,18.30781 0.99363,2.36032 2.00051,4.2973 2.23751,4.3044 0.23701,0.007 8.10067,-8.47336 17.47481,-18.8455 9.37413,-10.37212 18.58455,-19.9085 20.46759,-21.19191 7.85606,-5.35448 16.63802,-7.10044 25.50463,-5.07062 21.37484,4.89329 32.28536,28.32434 22.42088,48.15029 -3.63166,7.29903 -57.1038,80.24773 -63.68647,86.88347 -12.15378,12.25177 -27.85237,19.96898 -45.04105,22.14156 -3.89953,0.49289 -31.10259,0.78829 -72.59108,0.78829 h -66.35439 l -0.76891,5.33073 c -1.02342,7.0952 -4.36389,14.1928 -9.11027,19.35688 -3.41979,3.72072 -5.8063,5.2158 -19.93626,12.48954 -8.82829,4.54457 -16.9494,8.26259 -18.04691,8.26226 -1.09751,-3.3e-4 -3.42103,-0.72669 -5.16337,-1.61412 z m 26.10219,-33.66967 c 1.31344,-1.01566 2.88313,-3.29922 3.60524,-5.24484 1.10216,-2.96964 1.15059,-3.88682 0.35026,-6.63546 -0.51076,-1.75422 -11.48483,-24.89638 -24.3868,-51.42701 -25.98073,-53.42477 -25.31141,-52.33418 -32.18483,-52.44224 -2.60907,-0.041 -5.03549,0.73347 -10.06216,3.21178 -3.6432,1.7962 -7.36665,3.76193 -8.27434,4.3683 -1.64871,1.10139 -1.62299,1.15878 26.02405,58.07816 15.22091,31.33664 28.00013,57.38932 28.39827,57.89485 0.54786,0.69567 2.36273,0.0774 7.46395,-2.54273 3.70704,-1.90405 7.78689,-4.27141 9.06636,-5.26081 z m 167.17453,-33.97976 c 11.10899,-2.40458 20.7212,-7.58949 28.41907,-15.32949 1.98875,-1.99963 16.36286,-21.11339 31.94247,-42.47502 26.59552,-36.46585 28.34505,-39.05756 28.62938,-42.41066 0.73978,-8.72455 -8.4333,-15.09305 -15.77988,-10.95534 -1.29423,0.72893 -14.09208,14.27573 -28.43967,30.104 -14.34759,15.82826 -27.2618,29.57888 -28.69824,30.55693 -1.43644,0.97804 -4.69663,2.68204 -7.24484,3.78666 l -4.63313,2.00841 -35.69599,0.24397 c -24.28853,0.16602 -36.56069,-0.0198 -38.40176,-0.58167 -7.13581,-2.17749 -9.82045,-12.38363 -4.76769,-18.12524 3.33587,-3.79067 4.16265,-3.8784 36.55112,-3.8784 28.84386,0 30.36207,-0.0699 33.13374,-1.52486 3.26512,-1.71402 5.86858,-6.07716 5.86858,-9.83514 0,-3.75797 -2.60346,-8.12111 -5.86858,-9.83514 -2.77606,-1.45729 -4.28769,-1.52486 -34.11363,-1.52486 -17.79545,0 -32.91277,-0.32721 -35.17332,-0.76132 -5.87505,-1.12824 -11.91461,-4.52548 -20.15646,-11.33795 -11.84752,-9.79282 -21.59667,-14.02778 -34.37277,-14.9313 -11.55527,-0.81717 -23.72338,2.37542 -33.33922,8.74731 -3.41729,2.26445 -19.6982,16.3851 -26.73344,23.18628 -0.79763,0.77108 2.75845,8.62021 19.68929,43.45901 l 20.66272,42.51797 h 71.71059 c 60.00006,0 72.54361,-0.18032 76.81166,-1.10415 z M 224.32152,215.19218 c -2.2706,-1.1565 -3.51969,-2.48618 -4.70771,-5.01145 -1.52237,-3.23595 -1.58977,-4.10841 -1.15082,-14.89721 0.47673,-11.7175 1.36565,-17.17233 4.06871,-24.96746 4.27883,-12.33939 14.80907,-26.01849 25.51193,-33.14081 l 4.74247,-3.15592 -1.49342,-1.98321 c -12.15553,-16.14206 -14.19954,-32.947517 -6.07796,-49.971702 3.83153,-8.03152 12.39542,-16.843647 20.20071,-20.786235 22.45513,-11.34249 48.34934,-2.125792 59.23655,21.084459 7.32152,15.608632 5.73026,33.574618 -4.16862,47.065618 -1.60117,2.18221 -2.91122,4.10442 -2.91122,4.27159 0,0.16717 1.7388,1.49205 3.864,2.94418 8.61851,5.88893 17.64963,16.22559 22.13637,25.33639 5.28554,10.73285 7.0946,18.69786 7.65173,33.68943 0.38492,10.35765 0.30523,11.31609 -1.20825,14.53314 -1.20802,2.5678 -2.41734,3.84121 -4.75247,5.00439 -3.08049,1.53446 -4.0779,1.56018 -60.49175,1.55959 -56.60003,-5.9e-4 -57.40056,-0.0214 -60.45025,-1.57479 z m 104.77162,-25.71941 c -2.83182,-27.8787 -28.69559,-46.91908 -54.50634,-40.12647 -3.12664,0.82285 -7.73362,2.60721 -10.23773,3.96527 -6.00806,3.25835 -15.58288,13.1107 -18.74944,19.2929 -2.5699,5.0173 -5.30749,14.7729 -5.30749,18.91357 v 2.52953 h 44.63285 44.63284 z m -36.22597,-65.90339 c 4.93901,-1.90148 10.21451,-6.96101 12.41303,-11.90485 2.24489,-5.0481 2.19919,-13.494246 -0.10169,-18.795789 -1.95999,-4.516059 -6.48197,-9.293846 -11.15838,-11.789586 -4.75831,-2.539456 -12.90447,-2.500527 -18.0128,0.08608 -4.66925,2.364281 -9.16808,6.993506 -11.46576,11.798099 -2.51435,5.25768 -2.55168,13.639396 -0.0825,18.534906 5.64142,11.18515 17.55757,16.24854 28.40815,12.07115 z"
       id="path1128" />
  </g>
</svg>
