<?xml version="1.0" encoding="UTF-8" standalone="no"?>
<!-- Created with Inkscape (http://www.inkscape.org/) -->

<svg
   version="1.1"
   id="svg182"
   width="338.64752"
   height="324.33398"
   viewBox="0 0 338.64752 324.33398"
   sodipodi:docname="Screenshot 2023-04-28 162351.png"
   inkscape:export-filename="..\..\Documents\B&amp;H Repuestos\ux_taller\ux_taller\src\assets\icon_sells.svg"
   inkscape:export-xdpi="96"
   inkscape:export-ydpi="96"
   xmlns:inkscape="http://www.inkscape.org/namespaces/inkscape"
   xmlns:sodipodi="http://sodipodi.sourceforge.net/DTD/sodipodi-0.dtd"
   xmlns="http://www.w3.org/2000/svg"
   xmlns:svg="http://www.w3.org/2000/svg">
  <defs
     id="defs186" />
  <sodipodi:namedview
     id="namedview184"
     pagecolor="#ffffff"
     bordercolor="#000000"
     borderopacity="0.25"
     inkscape:showpageshadow="2"
     inkscape:pageopacity="0.0"
     inkscape:pagecheckerboard="0"
     inkscape:deskcolor="#d1d1d1"
     showgrid="false" />
  <g
     inkscape:groupmode="layer"
     inkscape:label="Image"
     id="g188"
     transform="translate(-18.422028,-13.91565)">
    <path
       style="fill:#ffffff;fill-opacity:1;stroke-width:1.02451"
       d="M 168.87304,337.42966 C 58.912708,323.3448 -2.6341075,210.86279 25.007558,125.0625 29.064663,113.30217 40.301796,92.41948 48.405898,81.57984 57.051756,70.01556 75.701494,52.060252 87.018147,44.40533 125.08635,18.654856 173.393,8.483594 218.58554,16.703007 300.88607,31.671455 359.95336,101.83047 356.96077,181.0625 c -0.95464,25.27497 -6.11028,44.86455 -17.63325,67 -8.5576,16.43904 -18.02842,28.8138 -32.94286,43.04381 -36.4139,34.74285 -85.0395,51.12329 -137.51162,46.32335 z m 33.57068,-42.97572 c 13.2912,-1.55177 25.42681,-5.07355 38.83633,-11.27036 33.91668,-15.67359 57.69477,-43.63547 67.28258,-79.12108 2.69369,-9.96963 2.97209,-12.59239 2.97209,-28 0,-15.40761 -0.2784,-18.03037 -2.97209,-28 C 302.82477,126.82597 292.95474,109.61882 277.8052,94.44074 245.17686,61.750954 197.2562,49.031935 152.58628,61.205356 140.23529,64.571241 122.28986,73.202243 111.59741,80.91929 79.673001,103.96004 61.958179,137.91393 61.958179,176.0625 c 0,38.19427 17.798236,72.29011 49.639231,95.09319 26.92609,19.28325 57.68046,27.17045 90.84631,23.29825 z M 172.99228,267.1455 c -1.6167,-1.12437 -2.14585,-3.01743 -2.56228,-9.16671 l -0.52482,-7.7497 -6.8226,-1.31677 c -11.39213,-2.1987 -20.76189,-5.25668 -23.84291,-7.78155 -5.74429,-4.7074 -2.95947,-15.21322 4.50581,-16.9983 1.46033,-0.34919 6.95065,0.65871 13.15735,2.4154 5.8582,1.65804 11.30756,3.01463 12.10969,3.01463 1.20854,0 1.40995,-3.70283 1.17554,-21.6117 l -0.28288,-21.6117 -6.30947,-2.17592 c -16.93638,-5.84078 -27.03421,-18.47032 -28.55121,-35.70952 -1.07687,-12.23744 4.24966,-25.44475 13.39111,-33.20375 5.23343,-4.44198 8.94721,-6.45942 17.00864,-9.23965 4.98575,-1.71948 4.98575,-1.71948 4.98575,-10.08362 0,-9.48562 1.69283,-12.36414 7.27123,-12.36414 5.03616,0 7.42359,3.89644 7.42359,12.11581 0,6.46687 0.14523,6.88081 2.62173,7.47298 5.00078,1.19578 5.77531,0.1152 5.77531,-8.05741 0,-8.63323 1.84919,-11.53138 7.35769,-11.53138 5.10402,0 6.73661,2.8097 7.33714,12.6273 l 0.52481,8.5798 12.02321,3.28377 c 13.94381,3.80832 16.84163,5.98351 16.84163,12.64182 0,3.14113 -0.69419,4.68252 -3.172,7.04318 -2.78057,2.64909 -3.71964,2.96099 -7.60982,2.52748 -2.4408,-0.27199 -7.62607,-1.41302 -11.52283,-2.53562 l -7.085,-2.04109 v 21.7994 21.79941 l 7.00656,3.28621 c 16.13995,7.56998 24.28851,21.59534 23.27239,40.05667 -0.78236,14.21436 -10.24318,27.55723 -23.80276,33.56973 l -6.45434,2.86194 -0.0109,7.57569 c -0.009,6.61831 -0.31794,7.85046 -2.44025,9.75 -3.03574,2.71708 -7.41841,2.79222 -10.16624,0.17431 -1.66864,-1.58974 -2.09927,-3.33333 -2.09927,-8.5 0,-6.5 0,-6.5 -4.19852,-6.5 -4.19852,0 -4.19852,0 -4.19852,5.86514 0,4.41941 -0.53623,6.51462 -2.17544,8.5 -2.45153,2.96924 -6.69291,3.48801 -9.9571,1.21786 z m 20.28764,-57.833 0.28288,-21.75 h -4.21899 -4.21899 v 22.06037 22.06036 l 3.93612,-0.31036 3.93611,-0.31037 z m 22.38633,9.03984 c 2.44205,-4.53676 2.6101,-12.45636 0.37257,-17.55831 -1.66636,-3.79959 -5.41126,-8.23153 -6.95546,-8.23153 -0.47667,0 -0.86667,7.72844 -0.86667,17.17431 0,17.17432 0,17.17432 2.72623,14.75 1.49941,-1.33337 3.62492,-4.09388 4.72333,-6.13447 z M 193.52186,145.5625 v -22 h -4.19852 -4.19852 v 22 22 h 4.19852 4.19852 z m -23.09186,0 c 0,-21.34587 -0.0732,-21.51173 -6.95085,-15.75858 -9.97478,8.34386 -10.32374,21.76433 -0.7933,30.50858 7.69429,7.05956 7.74415,6.96459 7.74415,-14.75 z"
       id="path300"
       sodipodi:nodetypes="ccsssssscssssssssssssscsssssscssssssssssscssssscccsssccsssssssscccccccccsssssscccccccccssss" />
  </g>
</svg>
