<?xml version="1.0" encoding="UTF-8" standalone="no"?>
<!-- Created with Inkscape (http://www.inkscape.org/) -->

<svg
   version="1.1"
   id="svg182"
   width="108.459"
   height="145.47055"
   viewBox="0 0 108.459 145.47055"
   sodipodi:docname="Screenshot 2023-04-28 155645.png"
   xmlns:inkscape="http://www.inkscape.org/namespaces/inkscape"
   xmlns:sodipodi="http://sodipodi.sourceforge.net/DTD/sodipodi-0.dtd"
   xmlns="http://www.w3.org/2000/svg"
   xmlns:svg="http://www.w3.org/2000/svg">
  <defs
     id="defs186" />
  <sodipodi:namedview
     id="namedview184"
     pagecolor="#ffffff"
     bordercolor="#000000"
     borderopacity="0.25"
     inkscape:showpageshadow="2"
     inkscape:pageopacity="0.0"
     inkscape:pagecheckerboard="0"
     inkscape:deskcolor="#d1d1d1"
     showgrid="false" />
  <g
     inkscape:groupmode="layer"
     inkscape:label="Image"
     id="g188"
     transform="translate(-69.780823,-33.744617)">
    <path
       style="fill:#ffffff;fill-opacity:1;stroke-width:0.695334"
       d="m 74.087647,178.72122 c -0.78308,-0.34052 -2.07244,-1.49632 -2.86525,-2.56847 -1.44147,-1.94937 -1.44147,-1.94937 -1.44147,-60.33658 0,-62.674243 -0.0682,-61.378192 3.33354,-63.314835 0.73939,-0.420938 6.08362,-0.738417 12.43004,-0.738417 11.13299,0 11.13299,0 11.33676,-3.765075 0.20378,-3.765076 0.20378,-3.765076 6.608453,-4.001559 6.40467,-0.236483 6.40467,-0.236483 8.42719,-3.548148 5.45871,-8.938027 18.81162,-8.938027 24.27033,0 2.02253,3.311665 2.02253,3.311665 8.4272,3.548148 6.40467,0.236483 6.40467,0.236483 6.60844,4.001559 0.20378,3.765075 0.20378,3.765075 11.59194,3.765075 11.0661,0 11.44166,0.04894 13.27974,1.730633 1.89158,1.730632 1.89158,1.730632 2.07153,61.292059 0.17994,59.56142 0.17994,59.56142 -1.79849,61.91707 -1.97843,2.35566 -1.97843,2.35566 -51.4173,2.49665 -27.191383,0.0776 -50.079573,-0.1376 -50.862653,-0.47811 z M 174.39363,175.3614 c 1.17526,-1.1314 1.23289,-3.92833 1.23289,-59.83141 0,-52.35699 -0.11358,-58.765346 -1.05942,-59.771481 -0.87712,-0.933047 -2.9652,-1.126962 -12.13516,-1.126962 -11.07574,0 -11.07574,0 -11.07574,3.922292 0,3.922291 0,3.922291 8.25865,4.123654 8.25865,0.201363 8.25865,0.201363 8.25865,52.912427 0,52.71106 0,52.71106 -43.82142,52.71106 -43.821423,0 -43.821423,0 -43.821423,-52.71106 0,-52.711064 0,-52.711064 8.25865,-52.912427 8.25865,-0.201363 8.25865,-0.201363 8.25865,-4.123654 0,-3.922292 0,-3.922292 -11.07574,-3.922292 -9.16996,0 -11.25804,0.193915 -12.13516,1.126962 -0.9458,1.006096 -1.05942,7.403163 -1.05942,59.646881 0,53.44699 0.0967,58.6336 1.11575,59.8314 1.06152,1.24775 3.50859,1.3115 50.341553,1.3115 44.85903,0 49.33516,-0.10529 50.45869,-1.18689 z m -9.04374,-59.95077 C 165.1768,65.030327 165.1768,65.030327 158.2665,64.82595 c -6.9103,-0.204378 -6.9103,-0.204378 -6.9103,3.688347 0,2.952218 -0.26814,4.002177 -1.10979,4.34574 -1.23991,0.506135 -51.330353,0.385079 -52.655733,-0.127255 -0.53306,-0.206059 -0.84272,-1.756147 -0.84272,-4.218485 0,-3.892725 0,-3.892725 -6.9103,-3.688347 -6.9103,0.204377 -6.9103,0.204377 -7.0834,50.58468 -0.17309,50.3803 -0.17309,50.3803 41.297823,50.3803 41.47091,0 41.47091,0 41.29781,-50.3803 z m -73.658243,44.79265 c -3.76341,-1.4184 -5.05632,-3.56756 -5.05632,-8.40494 0,-2.72378 0.35852,-3.7109 1.97066,-5.42582 1.90593,-2.02744 2.18448,-2.09631 8.47906,-2.09631 6.294583,0 6.573133,0.0688 8.479053,2.09631 1.65895,1.76471 1.97067,2.67044 1.97067,5.72594 0,2.97242 -0.34592,4.04148 -1.91045,5.90412 -1.80013,2.14315 -2.21861,2.28703 -7.247383,2.49167 -2.93532,0.11947 -5.9437,-0.0115 -6.68529,-0.29097 z m 11.913533,-3.48797 c 1.88581,-1.81545 1.71563,-7.69515 -0.26547,-9.17123 -2.19143,-1.63279 -10.674953,-1.5395 -12.605143,0.13863 -2.17801,1.89356 -2.53099,5.82593 -0.74033,8.24753 1.37625,1.86116 1.76496,1.97196 6.91811,1.97196 4.134443,0 5.759253,-0.28814 6.692833,-1.18689 z m 16.86727,-4.37108 c 0.21037,-1.16198 1.72545,-1.25503 20.43402,-1.25503 18.70857,0 20.22366,0.0931 20.43402,1.25503 0.2124,1.17322 -1.11955,1.25502 -20.43402,1.25502 -19.31447,0 -20.64642,-0.0818 -20.43402,-1.25502 z M 90.246887,137.86137 c -2.34398,-1.06063 -3.61156,-3.65646 -3.61156,-7.39595 0,-6.23627 2.71113,-8.42108 10.44972,-8.42108 7.789713,0 10.449723,2.17405 10.449723,8.54066 0,2.74025 -0.37835,4.03915 -1.62627,5.5832 -1.54293,1.90905 -1.94892,2.02075 -7.921573,2.17954 -3.4624,0.092 -6.94543,-0.12682 -7.74004,-0.48637 z m 13.782173,-3.05164 c 1.19626,-1.27253 1.0208,-7.41755 -0.25041,-8.7698 -0.79239,-0.84292 -2.44915,-1.1242 -6.573213,-1.11599 -3.03259,0.006 -5.8476,0.24808 -6.25559,0.53787 -2.30624,1.6381 -2.78261,6.7757 -0.85709,9.24371 0.99038,1.26942 12.758213,1.35741 13.936303,0.10421 z m 16.77435,-3.19283 c -0.25262,-0.26871 -0.4593,-0.91886 -0.4593,-1.44478 0,-0.77599 3.88475,-0.95621 20.61179,-0.95621 19.2673,0 20.59699,0.0819 20.38482,1.25502 -0.20912,1.15634 -1.79382,1.26995 -20.1525,1.44479 -10.95903,0.10437 -20.1322,-0.0301 -20.38481,-0.29882 z M 88.380697,114.10058 c -1.36845,-1.72999 -1.74537,-2.9809 -1.74537,-5.79242 0,-3.00719 0.31805,-3.92426 1.97066,-5.68223 1.90593,-2.02744 2.18448,-2.09631 8.47906,-2.09631 6.294583,0 6.573133,0.0688 8.479053,2.09631 1.65262,1.75797 1.97067,2.67504 1.97067,5.68223 0,2.81152 -0.37692,4.06243 -1.74537,5.79242 -1.74139,2.20147 -1.76121,2.2065 -8.704353,2.2065 -6.94313,0 -6.96296,-0.005 -8.70435,-2.2065 z m 14.959013,-1.06137 c 1.20076,-0.89468 1.49836,-1.81244 1.49836,-4.62086 0,-4.72813 -1.37693,-5.73726 -7.828343,-5.73726 -5.71017,0 -7.51305,1.14336 -8.11547,5.1467 -0.33055,2.19673 -0.10727,2.94459 1.33822,4.48223 1.54794,1.64664 2.26715,1.84559 6.67192,1.84559 3.377203,0 5.410333,-0.35272 6.435313,-1.1164 z m 17.13274,-4.44157 c 0.21037,-1.16198 1.72545,-1.25503 20.43402,-1.25503 18.70857,0 20.22366,0.093 20.43402,1.25503 0.2124,1.17322 -1.11955,1.25502 -20.43402,1.25502 -19.31447,0 -20.64642,-0.0818 -20.43402,-1.25502 z M 89.854607,93.674456 c -2.44125,-1.40929 -3.21928,-3.13231 -3.21928,-7.12941 0,-6.307482 2.45785,-8.24731 10.44972,-8.24731 7.991873,0 10.449723,1.939828 10.449723,8.24731 0,4.06282 -0.79208,5.75301 -3.35738,7.16415 -2.61798,1.44012 -11.806533,1.41783 -14.322783,-0.0348 z m 13.924043,-2.87769 c 0.58268,-0.61983 1.09734,-1.58799 1.14369,-2.15147 0.53456,-6.49876 -0.482,-7.478931 -7.756593,-7.478931 -7.01473,0 -8.17081,0.761024 -8.17081,5.378681 0,4.61765 1.15608,5.37868 8.17081,5.37868 4.149723,0 5.821283,-0.28486 6.612903,-1.12696 z m 16.56546,-4.25172 c 0,-0.9327 2.73416,-1.07574 20.56236,-1.07574 17.8282,0 20.56236,0.14304 20.56236,1.07574 0,0.9327 -2.73416,1.07574 -20.56236,1.07574 -17.8282,0 -20.56236,-0.14304 -20.56236,-1.07574 z m 28.31538,-27.969134 c 0,-11.833094 0,-11.833094 -5.73672,-11.833094 -5.73673,0 -5.73673,0 -7.72699,-3.406497 -2.94774,-5.045297 -6.05068,-6.992283 -11.1437,-6.992283 -5.09302,0 -8.19596,1.946986 -11.1437,6.992283 -1.99026,3.406497 -1.99026,3.406497 -7.72699,3.406497 -5.736723,0 -5.736723,0 -5.736723,11.833094 0,11.833095 0,11.833095 24.607413,11.833095 24.60741,0 24.60741,0 24.60741,-11.833095 z m -46.36972,-0.179289 c 0.18869,-9.143755 0.18869,-9.143755 6.01743,-9.349875 5.82874,-0.206119 5.82874,-0.206119 6.24451,-2.563721 0.41752,-2.367442 2.83505,-5.324255 5.57954,-6.824155 2.27283,-1.242141 6.38495,-0.95027 8.81476,0.625656 2.35115,1.524904 4.87496,5.314855 4.87909,7.326815 0.002,1.048506 0.8611,1.257263 5.90156,1.434315 5.89904,0.20721 5.89904,0.20721 6.08773,9.350965 0.18868,9.143755 0.18868,9.143755 -21.76231,9.143755 -21.95099,0 -21.95099,0 -21.76231,-9.143755 z m 41.50725,0 c 0.19384,-6.633705 0.19384,-6.633705 -5.89904,-6.633705 -6.08127,0 -6.09288,-0.0035 -6.09288,-1.828507 0,-2.394546 -1.63381,-5.689261 -3.51703,-7.092424 -1.93205,-1.43953 -6.53993,-1.43953 -8.47198,0 -1.88323,1.403163 -3.51703,4.697878 -3.51703,7.092424 0,1.82446 -0.0134,1.828507 -6.06759,1.828507 -6.06757,0 -6.06757,0 -6.06757,6.334889 0,3.48419 0.20681,6.554889 0.45958,6.823778 0.25277,0.268889 9.12661,0.403356 19.71964,0.298816 19.26005,-0.190074 19.26005,-0.190074 19.4539,-6.823778 z"
       id="path300" />
  </g>
</svg>
