<?xml version="1.0" encoding="UTF-8" standalone="no"?>
<!-- Created with Inkscape (http://www.inkscape.org/) -->

<svg
   version="1.1"
   id="svg2555"
   width="114.13177"
   height="61.052765"
   viewBox="0 0 114.13177 61.052765"
   sodipodi:docname="Screenshot 2023-04-28 164035.png"
   inkscape:export-filename="..\..\Documents\B&amp;H Repuestos\ux_taller\ux_taller\src\assets\icon_vehicles.svg"
   inkscape:export-xdpi="96"
   inkscape:export-ydpi="96"
   xmlns:inkscape="http://www.inkscape.org/namespaces/inkscape"
   xmlns:sodipodi="http://sodipodi.sourceforge.net/DTD/sodipodi-0.dtd"
   xmlns="http://www.w3.org/2000/svg"
   xmlns:svg="http://www.w3.org/2000/svg">
  <defs
     id="defs2559" />
  <sodipodi:namedview
     id="namedview2557"
     pagecolor="#ffffff"
     bordercolor="#000000"
     borderopacity="0.25"
     inkscape:showpageshadow="2"
     inkscape:pageopacity="0.0"
     inkscape:pagecheckerboard="0"
     inkscape:deskcolor="#d1d1d1"
     showgrid="false" />
  <g
     inkscape:groupmode="layer"
     inkscape:label="Image"
     id="g2561"
     transform="translate(-6.2452168,-14.536483)">
    <path
       style="fill:#ffffff;fill-opacity:1"
       d="M 67.397599,73.056356 C 65.631996,71.570699 63.683557,68.61433 63.028045,66.426427 61.692131,61.967543 62.016726,62.095109 48.17497,60.589172 c -7.179412,-0.781096 -9.597154,-0.746153 -9.897727,0.143051 -2.77565,8.211365 -16.88905,8.048855 -21.119331,-0.24318 -1.47429,-2.889847 -2.649376,-3.966564 -4.328952,-3.966564 -4.4043245,0 -7.4164829,-4.559461 -4.8305989,-7.312009 1.9515643,-2.077344 2.0232339,-2.50871 0.7061184,-4.25 C 2.6316251,36.931873 7.4760821,33.20016 26.929457,30.921664 c 17.588839,-2.06011 15.548703,-1.205477 21.486514,-9.000912 5.455867,-7.162718 6.484375,-7.410408 30.65569,-7.382652 22.118249,0.0254 27.331179,1.967828 30.820819,11.484379 1.57959,4.307672 2.24533,5.043231 4.80797,5.312217 6.57749,0.690397 7.70702,9.055061 1.97452,14.622079 -1.925,1.869429 -3.5,4.366063 -3.5,5.548075 0,5.346876 -6.06331,8.595407 -7.78222,4.169474 -1.48419,-3.821541 -16.72304,4.009467 -18.222254,9.364134 -2.636055,9.415064 -13.079616,13.649921 -19.772897,8.017898 z m 15.202962,-4.04809 c 4.839143,-5.221521 1.669252,-21.913963 -3.230916,-17.013796 -0.275,0.275 0.693698,1.438963 2.152663,2.586585 3.685202,2.89878 3.788003,9.896992 0.198117,13.486879 -3.874256,3.874255 -6.975794,3.235804 -9.936631,-2.045455 -1.478222,-2.636713 -1.602597,-2.697261 -1.027078,-0.5 1.639876,6.260847 7.6364,8.025696 11.843845,3.485787 z M 80.17497,66.522479 c 4.055634,-4.055634 1.464706,-13.389438 -3.046528,-10.975099 -3.940992,2.109154 -5.029724,6.993522 -2.396769,10.752593 1.918763,2.739416 2.886815,2.778988 5.443297,0.222506 z m -3.668129,-3.577541 c -0.337415,-0.879291 0.1708,-2.317805 1.1482,-3.25 1.649038,-1.572773 1.695046,-1.55325 0.771871,0.327541 -0.539928,1.1 -0.779994,2.5625 -0.533481,3.25 0.659921,1.840451 -0.675725,1.524944 -1.38659,-0.327541 z M 32.73384,61.036218 c 1.775905,-1.359754 1.664497,-1.393986 -1.30887,-0.402175 -3.393486,1.131948 -4.171082,1.888436 -1.94113,1.888436 0.719879,0 2.182379,-0.668818 3.25,-1.486261 z M 72.803122,57.967143 C 74.14994,55.92766 73.930983,55.890804 44.41769,53.189091 12.390614,50.257261 8.1749705,50.049163 8.1749705,51.400034 c 0,4.945319 61.5677615,11.201449 64.6281515,6.567109 z m 29.371848,-5.467002 c 6.67171,-2.806068 8.63221,-4.376124 9.42912,-7.551258 0.64324,-2.562876 3.05457,-3.288111 3.91142,-1.176404 1.30466,3.215343 4.23972,-4.801927 3.2303,-8.823757 -0.56734,-2.260487 -1.10122,-2.540886 -4.38627,-2.303698 -2.05717,0.148532 -4.2662,-0.05496 -4.90896,-0.452211 -3.41126,-2.10827 -22.228236,0.06178 -38.756959,4.469611 -3.981348,1.061734 -3.981348,1.061734 -1.178731,2.530173 2.438503,1.277661 2.782687,2.011593 2.649219,5.649161 -0.336608,9.17406 1.206408,10.325293 6.273646,4.680721 5.560129,-6.193621 9.972048,-4.560976 11.383561,4.212522 0.597285,3.712523 0.597285,3.712523 3.725469,2.395459 1.720505,-0.724384 5.603184,-2.358028 8.628185,-3.630319 z m 9.90032,-0.786679 c -0.0997,-2.690983 -0.0997,-2.690983 -0.90032,-0.190983 -0.44035,1.375 -0.8455,1.8625 -0.90032,1.083333 -0.0548,-0.779166 -0.33527,-1.181074 -0.62322,-0.893128 -0.28794,0.287946 -0.24079,1.260362 0.10479,2.160923 0.91606,2.387225 2.4351,0.972285 2.31907,-2.160145 z m -39.900321,0.809017 c 0,-0.567497 -2.703143,-0.969601 -6.25,-0.929715 -4.417853,0.04968 -5.663713,0.322222 -4.25,0.929715 2.806582,1.20603 10.5,1.20603 10.5,0 z M 58.842648,50.683002 c 0.708813,-1.13499 0.806802,-2.379683 0.255859,-3.25 -0.491102,-0.775788 -0.961085,-2.760523 -1.044407,-4.410523 -0.119837,-2.37308 -0.242058,-2.52981 -0.584864,-0.75 -0.371649,1.929557 -1.06435,2.25 -4.863817,2.25 -3.887523,0 -4.447137,-0.275725 -4.566631,-2.25 -0.134274,-2.218474 -0.142453,-2.216957 -0.583737,0.108253 -0.386766,2.037945 -0.860631,2.275637 -3.488818,1.75 -1.672695,-0.334539 -4.560013,-0.608253 -6.416263,-0.608253 -2.503428,0 -3.404957,-0.451926 -3.491001,-1.75 -0.110478,-1.666667 -0.137779,-1.666667 -0.573325,0 -0.502782,1.923956 -1.057853,2.017712 -6.560674,1.108152 -2.456226,-0.405989 -3.790021,-1.178456 -3.866001,-2.238994 -0.08888,-1.24064 -0.228259,-1.182288 -0.596197,0.249608 -0.397231,1.545898 -1.154661,1.778302 -4.383998,1.345157 -2.934339,-0.393577 -3.903804,-0.174733 -3.903804,0.881234 0,1.830625 -2.422135,1.806054 -3.954319,-0.04012 -2.0885109,-2.516501 -0.9068475,-6.078683 1.954319,-5.891397 40.800379,2.670719 44.400557,2.703451 51.324304,0.46662 3.685832,-1.190769 9.733204,-2.848552 13.438605,-3.683962 9.6543,-2.176635 10.379006,-2.665993 5.237091,-3.536353 -11.512236,-1.948648 -40.242942,2.031801 -44.45,6.158252 -0.5225,0.512489 -1.85,0.931798 -2.95,0.931798 -4.630207,0 0.746496,-2.320004 11.54028,-4.979539 6.355769,-1.566029 10.03822,-2.850018 8.35972,-2.914847 -6.564121,-0.253528 -42.097712,4.191626 -44.25,5.535552 -4.2365469,2.645375 -1.4287045,11.358834 3.660293,11.358834 1.190851,0 2.089707,0.645203 2.089707,1.5 0,1.052143 1.119642,1.524392 3.75,1.581695 2.0625,0.04493 10.05,0.655936 17.75,1.357786 19.906083,1.814427 19.859957,1.815035 21.167678,-0.278958 z M 33.949149,49.031014 C 20.24402,47.892307 16.17497,46.832135 16.17497,44.400034 c 0,-1.659064 5.877001,-0.918106 6.919901,0.872445 0.953825,1.637617 1.021234,1.630127 1.04969,-0.116631 0.02351,-1.443314 0.540668,-1.729888 2.280409,-1.263655 1.2375,0.331637 3.454504,0.609121 4.926676,0.616631 1.700638,0.0087 2.843436,0.651785 3.133998,1.763655 0.406467,1.555391 0.470223,1.54008 0.573325,-0.137681 0.154191,-2.509151 10.661167,-1.55106 12.77834,1.165208 1.266282,1.6246 1.307939,1.623036 0.733126,-0.02753 -0.522943,-1.501616 0.04444,-1.749997 3.997546,-1.749997 4.247454,0 4.606988,0.195103 4.606988,2.5 0,2.945734 0.05892,2.943176 -23.22582,1.008535 z m 36.02582,-0.708535 c 1.646345,-1.646345 1.510457,-6.297454 -0.226095,-7.738664 -2.861981,-2.375234 -10.034167,-0.905441 -10.384482,2.128087 -0.58589,5.073478 7.089267,9.131887 10.610577,5.610577 z m -7.281547,-1.741861 c -1.127249,-3.551646 0.332009,-6.213032 3.216525,-5.866278 5.505223,0.661794 5.505223,6.954484 0,7.616278 -1.868111,0.224569 -2.740458,-0.250044 -3.216525,-1.75 z m 5.481547,-0.05814 c 0,-0.55 -0.926558,-1 -2.059017,-1 -1.132459,0 -1.780902,0.45 -1.440983,1 0.339919,0.55 1.266476,1 2.059017,1 0.792541,0 1.440983,-0.45 1.440983,-1 z m -0.8,-4.2 c -0.933333,-0.933333 -1.466667,-0.933333 -2.4,0 -0.933333,0.933333 -0.666667,1.2 1.2,1.2 1.866667,0 2.133333,-0.266667 1.2,-1.2 z M 14.42497,47.860197 c -0.6875,-0.277412 -1.8125,-0.277412 -2.5,0 -0.6875,0.277413 -0.125,0.504386 1.25,0.504386 1.375,0 1.9375,-0.226973 1.25,-0.504386 z m -1.25,-5.337719 c 0,-0.55 -0.476558,-1 -1.059017,-1 -0.582459,0 -0.780902,0.45 -0.440983,1 0.339919,0.55 0.816476,1 1.059017,1 0.242541,0 0.440983,-0.45 0.440983,-1 z m 0,-4.059017 c 0,-0.517541 -0.45,-0.940983 -1,-0.940983 -0.55,0 -1,0.701558 -1,1.559017 0,0.857459 0.45,1.280902 1,0.940983 0.55,-0.339919 1,-1.041476 1,-1.559017 z m 84.75,-10.64815 c 1.934067,-4.164536 1.612349,-7.292833 -0.75,-7.292833 -1.1,0 -2,-0.45 -2,-1 0,-0.55 1.08277,-1 2.40616,-1 2.213227,0 4.72152,7.464507 3.78032,11.25 -0.10257,0.4125 1.592,0.75 3.76569,0.75 7.66268,0 1.86188,-11.815776 -6.249661,-12.730064 -4.440929,-0.500557 -7.914291,9.326658 -4.228869,11.964751 1.5958,1.142304 1.93831,0.939304 3.27636,-1.941854 z m 6.65008,-1.042833 c -0.35091,-1.5125 -1.26985,-3.7625 -2.0421,-5 -1.23252,-1.975065 -1.21174,-2.25 0.16999,-2.25 1.55906,0 4.47203,5.515779 4.47203,8.467881 0,2.594605 -1.92455,1.693086 -2.59992,-1.217881 z M 91.682091,23.461121 c 0.89648,-7.724127 2.347879,-7.127831 -17.349329,-7.127831 -21.562641,0 -20.250895,-0.521978 -27.461671,10.927714 -0.641602,1.018772 1.478016,1.166603 10.499999,0.732316 6.217133,-0.299272 15.353879,-0.140385 20.30388,0.353081 4.95,0.493466 9.968316,0.959956 11.151813,1.036645 1.910914,0.123823 2.230571,-0.539145 2.855308,-5.921925 z M 51.398515,22.772479 c 3.410743,-4.75 3.410743,-4.75 21.593598,-5.022559 18.596722,-0.278762 26.651426,1.415053 9.432857,1.983626 -8.750001,0.288933 -8.750001,0.288933 -9.063359,3.538933 -0.231262,2.398534 -0.80414,3.25 -2.186642,3.25 -1.382502,0 -1.95538,-0.851466 -2.186642,-3.25 -0.480248,-4.980901 -4.44853,-5.211624 -5.367688,-0.312087 -0.413217,2.202632 -1.24072,3.562087 -2.168252,3.562087 -1.172686,0 -1.356723,-0.763732 -0.843396,-3.5 0.995333,-5.305581 -3.175885,-4.999564 -6.815323,0.5 -1.455891,2.2 -3.35781,4 -4.226485,4 -1.182185,0 -0.7216,-1.194637 1.831332,-4.75 z m 26.276455,3.75 c 0.785914,-1.271636 5.532284,-1.271636 7.5,0 1.083464,0.700188 0.16458,0.973627 -3.309017,0.984687 -2.954772,0.0094 -4.570717,-0.370264 -4.190983,-0.984687 z"
       id="path2682" />
  </g>
</svg>
