<?xml version="1.0" encoding="UTF-8" standalone="no"?>
<!-- Created with Inkscape (http://www.inkscape.org/) -->

<svg
   width="152.66458mm"
   height="119.85625mm"
   viewBox="0 0 152.66458 119.85625"
   version="1.1"
   id="svg187"
   xml:space="preserve"
   inkscape:version="1.2.2 (732a01da63, 2022-12-09)"
   sodipodi:docname="Logo.svg"
   xmlns:inkscape="http://www.inkscape.org/namespaces/inkscape"
   xmlns:sodipodi="http://sodipodi.sourceforge.net/DTD/sodipodi-0.dtd"
   xmlns="http://www.w3.org/2000/svg"
   xmlns:svg="http://www.w3.org/2000/svg"><sodipodi:namedview
     id="namedview189"
     pagecolor="#ffffff"
     bordercolor="#000000"
     borderopacity="0.25"
     inkscape:showpageshadow="2"
     inkscape:pageopacity="0.0"
     inkscape:pagecheckerboard="0"
     inkscape:deskcolor="#d1d1d1"
     inkscape:document-units="mm"
     showgrid="false"
     inkscape:zoom="1.0368618"
     inkscape:cx="-237.25438"
     inkscape:cy="106.08936"
     inkscape:window-width="2560"
     inkscape:window-height="1009"
     inkscape:window-x="1358"
     inkscape:window-y="-8"
     inkscape:window-maximized="1"
     inkscape:current-layer="layer1" /><defs
     id="defs184"><linearGradient
       id="linearGradient5193"
       inkscape:swatch="solid"><stop
         style="stop-color:#000000;stop-opacity:1;"
         offset="0"
         id="stop5191" /></linearGradient></defs><g
     inkscape:label="Capa 1"
     inkscape:groupmode="layer"
     id="layer1"
     transform="translate(-28.682291,-89.11319)"><g
       id="g5209"
       transform="translate(35.039528,17.047769)"><path
         style="fill:#1d1d19;stroke-width:0.264583"
         d="m 40.974458,185.63201 -1.463688,1.445 0.237548,-0.38667 0.237546,-0.38666 3.030868,-4.10105 3.030868,-4.10104 2.801043,-3.80017 2.801043,-3.80016 2.18662,-2.94671 2.186617,-2.94671 -0.07311,-0.39687 -0.07311,-0.39688 -3.29919,-0.0832 -3.299193,-0.0832 -0.09133,-0.0913 -0.09133,-0.0913 2.417979,-3.45338 2.417979,-3.45338 2.298618,-0.0762 2.298616,-0.0762 0.278574,-1.5875 0.278577,-1.5875 0.515173,0.10634 0.515176,0.10635 6.680729,0.1086 6.68073,0.10861 v 0.22602 0.22602 l -0.23544,0.0882 -0.23544,0.0882 -9.210257,8.99584 -9.210254,8.99583 -6.074138,5.95312 -6.074137,5.95313 z m 26.623864,-4.28546 -8.128444,0.07 -0.07364,-3.64183 -0.07364,-3.64184 -1.12448,-0.38872 -1.124479,-0.38871 0.0056,-0.14045 0.0056,-0.14045 2.09151,-2.09727 2.091507,-2.09727 4.319019,0.0643 4.319026,0.0643 1.85208,-0.28838 1.85208,-0.28839 1.45521,-0.41086 1.45521,-0.41087 2.42487,-0.92103 2.42487,-0.92102 2.46992,-1.50613 2.46994,-1.50613 2.92256,-2.91042 2.92257,-2.91041 1.2099,-1.85699 1.2099,-1.85699 0.79402,-1.58259 0.79402,-1.5826 0.69354,-2.02194 0.69354,-2.02195 0.39412,-1.87359 0.39412,-1.87359 0.16363,-2.85134 -0.06193,-2.1747 -0.107653,-2.9256 -0.242981,-4.00822 -0.82619,-3.4513 c -1.24524,-2.62884 -1.429248,-3.01399 -2.730536,-4.71615 l -0.820963,-1.0124 -1.23417,-1.67419 -1.23418,-1.6742 -0.90968,-1.05833 -0.90968,-1.05833 2.75499,-2.24896 2.75499,-2.24896 3.46169,-2.4474 3.461692,-2.44739 h 0.33542 0.33542 l 1.86017,2.44739 1.86016,2.4474 1.33935,1.71979 1.33935,1.71979 -0.008,0.26459 -0.008,0.26458 -2.70192,2.04006 -2.70192,2.04007 -0.91809,0.76857 -0.9181,0.76857 0.69814,2.08616 0.69815,2.08615 0.34216,1.25102 0.34216,1.25102 4.77258,0.0719 4.77258,0.0719 v 8.06979 8.06979 l -4.62072,0.13229 -4.62073,0.13229 -0.23873,0.92604 -0.23874,0.92605 -0.92262,2.90951 -0.92261,2.90951 -0.89865,1.89373 -0.898652,1.89374 v 0.35181 0.3518 l 2.836992,2.84582 2.837,2.84582 -5.41668,5.4415 -5.416682,5.4415 -0.42283,0.23762 -0.42283,0.23761 -2.48759,-2.50132 -2.48759,-2.50132 -0.17748,-2e-5 -0.17748,-2e-5 -2.07147,1.27826 -2.07148,1.27827 -1.80205,0.84568 -1.80205,0.84568 -1.90211,0.62999 -1.90213,0.62999 -0.52916,0.0934 -0.52917,0.0934 -0.13229,3.70109 -0.13229,3.7011 z m -28.01661,-9.7353 -0.367442,-0.008 -0.529167,-0.29685 -0.529167,-0.29684 -4.80369,-4.79632 -4.803693,-4.79633 -0.0563,-0.38889 -0.0563,-0.38889 0.03135,-0.35103 0.03135,-0.35104 2.607932,-2.61889 2.607931,-2.61889 0.318149,-0.38335 0.318148,-0.38335 -0.508969,-1.01235 -0.508968,-1.01235 -0.97595,-2.84573 -0.97595,-2.84574 -0.191413,-1.12301 -0.191413,-1.12302 -3.961727,-0.0704 -3.961728,-0.0704 -0.330729,-0.44317 -0.33073,-0.44318 0.0041,-7.29161 0.0041,-7.29162 0.250234,-0.39688 0.250234,-0.39687 4.161237,-0.13229 4.161235,-0.1323 0.441325,-1.71979 0.441325,-1.71979 0.968393,-2.48536 0.968394,-2.48536 0.578135,-1.02865 0.578136,-1.02865 -2.831498,-2.84032 -2.831502,-2.8403 v -0.40087 -0.40087 l 5.550707,-5.52781 5.550704,-5.527817 0.522902,0.47322 0.522901,0.473217 2.062329,2.08344 2.062332,2.08343 0.193778,0.003 0.193776,0.003 1.715537,-1.05002 1.715537,-1.05003 1.6188,-0.81717 1.6188,-0.81716 2.022102,-0.778637 2.022099,-0.77865 h 0.469056 0.469056 l 0.02043,-0.33072 0.02043,-0.33073 -0.03825,-3.33671 -0.03825,-3.3367 0.412887,-0.41289 0.412888,-0.41289 7.608594,0.15022 7.608592,0.15021 0.19439,0.29209 0.19438,0.29208 0.004,3.12236 0.004,3.12235 0.8599,0.35377 0.85989,0.35378 1.06375,0.17488 1.06374,0.17489 0.39147,0.24711 0.39146,0.24711 -1.96103,3.870517 -1.96104,3.87053 -1.08167,-0.15059 -1.08168,-0.15058 -1.85208,-0.26722 -1.85208,-0.26722 -2.031382,-0.009 -2.031376,-0.009 -2.0043,0.27877 -2.004299,0.27877 -2.04974,0.61475 -2.049743,0.61474 -1.719791,0.71722 -1.719792,0.71721 -1.984375,1.21154 -1.984375,1.21155 -1.455208,1.19 -1.455209,1.19001 -1.499285,1.54444 -1.499282,1.54445 c -6.515422,6.68279 -6.447585,9.1378 -7.501932,16.27091 l -0.06442,4.36563 c -0.171312,2.15499 0.199134,4.15397 0.739551,6.21771 l 0.485,1.85208 0.540255,1.5875 0.540256,1.5875 1.012825,2.02824 1.012822,2.02824 1.992521,2.6451 1.992522,2.64509 2.174361,2.02002 2.174365,2.02003 -4.386506,4.35299 -4.386516,4.35299 -0.367441,-0.008 z m 22.074214,-25.92112 h -0.115594 l 0.191659,-0.33073 0.191659,-0.33072 1.497872,-2.11667 1.497873,-2.11667 1.393991,-2.03917 1.393985,-2.03917 4.74059,-0.0775 4.74059,-0.0775 -0.12392,0.32198 -0.12392,0.32199 -0.99418,1.33166 -0.99417,1.33166 h -0.47269 -0.47269 v 0.54926 0.54927 l -1.19463,1.5525 -1.19462,1.5525 -0.39592,0.39593 -0.39593,0.39592 -3.573803,0.0144 -3.573807,0.0144 -0.953375,0.39834 -0.953376,0.39835 h -0.115594 z m 12.759275,-24.71066 -5.43531,0.0319 v -0.10534 -0.10534 l 1.67162,-2.3058 1.67162,-2.3058 3.92628,-5.42396 3.92628,-5.42395 1.15954,-1.51246 1.15954,-1.51245 0.68173,-1.48911 0.68174,-1.489097 0.13678,-2.19249 c -0.09871,-2.077839 -0.732335,-3.50933 -0.945081,-5.32957 l 0.237801,-1.93266 0.32802,-1.21091 0.65642,-1.32292 0.65642,-1.32292 1.15962,-1.50885 1.15961,-1.50886 2.30926,-2.121038 2.30926,-2.121041 2.11416,-1.576082 2.11416,-1.576083 0.0704,0.07043 0.0704,0.07043 -1.19075,3.415752 -1.19076,3.415752 -0.22837,0.52917 -0.22837,0.52916 -0.81836,1.85209 -0.976233,1.85208 -0.768538,1.613181 c -0.418219,0.889823 -0.291528,1.204946 0.08406,2.054041 0.845038,0.845038 1.101314,0.947924 2.112679,1.557508 l 2.27503,0.93622 2.00228,0.94358 2.00227,0.94358 1.040441,0.15542 c 0.86559,0.255376 1.18062,0.06777 1.89837,-0.38096 1.24435,-0.582867 1.5522,-1.950748 2.12669,-3.12114 l 1.26875,-2.58476 1.39906,-2.60621 1.39905,-2.60621 0.47719,-0.78467 0.47719,-0.78467 0.43524,1.711863 c 0.17733,1.273599 0.3269,1.794139 0.3269,3.656758 l -0.0182,3.072639 -0.13872,2.25479 -0.31914,1.53304 -0.81563,2.147874 c -0.70878,1.515058 -1.43852,2.309406 -2.50544,3.559473 -0.85373,1.01338 -2.18777,1.53975 -3.35597,2.07219 l -1.35039,0.61548 -2.116661,0.44425 -2.11667,0.44425 -1.60212,0.7325 -1.60212,0.73249 -1.04371,1.27314 -1.04372,1.27314 -4.23763,4.38727 -4.23763,4.38727 -1.90258,1.98236 -1.90259,1.98236 z"
         id="path5211"
         sodipodi:nodetypes="ccccccccccccccccccccccccccccccccccccccccccccccccccccccccccccccccccccccccccccccccccccccccccccccccccccccccccccccccccccccccccccccccccccccccccccccccccccccccccccccccccccccccccccccccccccccccccccccccccccccccccccccccccccccccccccccccccccccccccccccccccccccccccccccccccccccccccccccccccccccccccccccccccccccccccccccccccccccccccccccccccccccccccccccc" /></g><g
       id="g5334"
       transform="translate(341.42158,-18.57003)"><path
         style="fill:#ca1924;stroke-width:0.264583"
         d="m -256.34822,191.81978 h -3.70416 v -0.26459 -0.26458 h 4.10104 4.10104 v -0.26458 -0.26459 h -4.10104 -4.10104 v -7.01616 -7.01616 l 6.41614,0.0708 6.41615,0.0709 0.0737,3.64898 c 0.16332,1.95763 -0.0162,3.49587 0.0586,5.11438 v 0.72835 l 0.77671,-0.74413 0.77671,-0.74414 -0.0142,-1.03159 -0.0142,-1.0316 -0.42065,0.33717 -0.42064,0.33716 0.89365,-1.25677 c 0.14024,-0.25216 1.34129,-2.01106 0.8957,-0.84984 l -0.15616,0.40693 1.00119,-0.59071 1.00118,-0.59071 3.85963,-0.11028 c 2.41971,0.23323 2.29115,-0.004 4.1917,-0.0514 h 0.54595 0.54595 l 0.16014,0.25912 0.16015,0.25912 -0.28613,0.53463 -0.28613,0.53463 h -0.99611 -0.9961 l -0.635,0.635 v -0.6986 l -1.60853,0.11635 -1.60852,0.11635 -0.24323,0.37847 -0.24322,0.37848 0.0681,0.39687 0.0681,0.39688 1.14175,0.0823 1.14175,0.0823 c 0.88818,-0.83031 1.19087,0.049 3.13589,-0.0323 h 2.38125 v -3.19062 -3.19061 l -0.33073,0.19338 c -0.58145,0.40043 -0.10208,-0.0681 0.12597,-0.32896 l 0.4567,-0.52235 0.0907,-0.59465 0.0907,-0.59464 c 0.54621,-0.12704 1.77832,-1.29882 1.12889,-0.24803 l 6.14225,0.0711 6.14225,0.071 0.11009,0.33073 0.11009,0.33073 h -6.63663 -6.63663 v 0.26458 0.26459 h 6.61458 6.61458 v 7.01146 7.01145 h -6.86133 -6.86134 l -0.16917,-0.533 -0.16917,-0.53301 -0.2425,0.14987 -0.24251,0.14988 0.15006,-0.39104 0.15005,-0.39104 -0.7484,-0.11222 -0.74839,-0.11223 0.85989,-0.0396 0.85989,-0.0396 v -1.9449 -1.94489 l -0.85989,0.27198 -0.8599,0.27198 -0.52917,1.07722 -0.52916,1.07723 -0.8776,0.58125 -0.87759,0.58125 1.40676,0.10959 1.40676,0.10958 -5.68854,-0.0714 -5.68854,-0.0714 -0.81865,-0.18001 -0.81866,-0.18001 -0.34198,1.61148 -0.34198,1.61148 h -2.15988 c -2.96735,0.0604 -3.24072,-4e-5 -6.49898,-4e-5 z m 2.31952,-2.91042 h 2.4959 l 0.89958,-0.89958 0.89959,-0.89959 0.0293,-0.62177 0.0293,-0.62177 -0.0456,-0.66146 -0.0456,-0.66145 -0.53326,-0.74449 -0.53326,-0.74449 0.17028,-1.00787 0.17028,-1.00787 -0.39362,-0.94205 -0.39361,-0.94205 -0.80146,-0.41444 -0.80145,-0.41445 h -1.579 -1.579 l -0.41851,0.1606 -0.41852,0.1606 v 4.95467 4.95468 l 0.17639,0.17639 0.17639,0.17639 z m 0.38781,-1.85208 h -1.03163 l -0.17639,-0.17639 -0.17639,-0.17639 v -0.99641 -0.9964 l 0.53511,-0.16984 0.53511,-0.16984 0.85395,0.18256 0.85396,0.18256 0.33072,0.26643 0.33073,0.26643 v 0.61975 0.61975 l -0.51177,0.2739 -0.51177,0.27389 z m -0.18208,-4.49792 h -0.84955 l -0.17639,-0.17639 -0.17639,-0.17639 v -0.86411 -0.86412 l 0.50667,-0.16081 0.50666,-0.16081 0.68626,0.17225 0.68627,0.17224 0.15953,0.63563 0.15953,0.63563 -0.32652,0.39344 -0.32653,0.39344 z m 25.93325,6.35 h 0.58905 l 0.1606,-0.41851 0.1606,-0.41852 v -1.03669 -1.0367 h 1.85208 1.85209 l 0.004,0.8599 0.004,0.8599 0.15954,0.59531 0.15953,0.59531 h 0.61499 0.61498 l 0.15698,-0.25399 0.15698,-0.254 5.3e-4,-4.17778 5.2e-4,-4.17777 -0.01,-0.70978 -0.01,-0.70977 -0.54186,-0.17198 -0.54187,-0.17198 -0.38418,0.31884 -0.38417,0.31884 v 2.48114 2.48115 h -1.84251 -1.8425 l -0.0757,-2.55161 -0.0757,-2.55161 -0.44085,-0.27732 -0.44084,-0.27732 -0.41905,0.34778 -0.41905,0.34779 v 4.8183 4.81829 l 0.17639,0.17639 0.17638,0.17639 h 0.58906 z m -0.14808,-9.525 h -0.35278 l 0.17639,-0.17639 0.17639,-0.17639 0.17639,0.17639 0.17638,0.17639 z m -12.86272,7.9375 h 0.63103 l 0.3862,-0.59531 0.38621,-0.59531 -0.11324,-0.33073 -0.11324,-0.33073 h -0.48822 -0.48822 l -0.41578,0.41577 -0.41577,0.41578 v 0.51026 0.51027 z m 15.77313,4.49792 h -6.87916 v -0.26459 -0.26458 h 6.87916 6.87917 v 0.26458 0.26459 z m -28.59704,-15.61042 h -6.37205 l 0.11009,-0.33073 0.1101,-0.33073 6.26195,-0.0709 6.26196,-0.0709 v 0.40167 0.40166 z m 19.60121,-4.15316 -15.21354,0.0521 -9.98802,-0.0693 -9.98802,-0.0693 v -0.2614 -0.2614 l 14.92185,0.21746 13.82124,-0.20335 0.0184,-0.73821 -2.48058,-0.0764 -12.88242,0.20185 -13.10797,0.20186 -0.237,-0.26459 -0.237,-0.26458 0.15788,-6.69051 0.15787,-6.69051 0.39688,-0.25689 0.39687,-0.25689 1.71979,0.0682 1.71581,-0.0394 c 2.4672,0.0144 9.47979,-0.0247 13.97315,-0.0247 h 13.30854 l 0.3175,-0.3175 c 0.27212,-0.24575 0.3175,-0.45186 0.3175,-0.005 v 0.31233 l 12.03854,0.002 14.14375,-0.28507 2.59292,0.0618 0.0673,6.16664 0.0609,8.5188 -2.46783,-0.009 -1.06437,0.0225 -6.31984,0.0631 -22.25361,-0.45556 -0.0427,0.83215 22.51549,-0.0902 h 9.56909 v 0.26459 0.26458 l -5.35781,0.014 -5.35781,0.014 -15.21354,0.0521 z m -29.91141,-2.72601 h 0.21329 l 0.28919,-0.34846 0.2892,-0.34846 0.0739,-3.68644 0.0899,-3.73428 1.04239,-0.005 1.04238,-0.0366 0.016,-0.96919 v -0.79375 h -3.01434 l -3.34925,-0.0319 c 0.0128,0.54853 0.008,0.83282 0.0548,1.72999 -0.0124,0.95945 -2.8585,-0.23388 1.38316,0.0217 l 0.90434,0.0159 -0.0797,3.66932 v 3.68527 l 0.41577,0.41577 0.41578,0.41577 z m -0.11879,-1.05833 h -0.1323 v -0.13229 -0.13229 h 0.1323 0.13229 v 0.13229 0.13229 z m 6.89739,1.05833 h 0.39649 l 0.54638,-0.92604 0.54638,-0.92604 h 1.83971 1.83971 l 0.26931,0.77254 0.26931,0.77253 0.37839,0.14521 0.37838,0.1452 0.39688,-0.1523 0.39687,-0.1523 -1.4e-4,-0.43471 -1.4e-4,-0.43471 -1.3506,-3.70417 -1.3506,-3.70416 -0.37585,-0.72761 -0.37584,-0.7276 h -0.48998 -0.48997 l -0.27875,0.33587 -0.27875,0.33587 -1.56921,4.22819 -1.56921,4.22819 0.23737,0.46302 0.23738,0.46302 z m 3.19806,-3.75285 -1.01704,0.0836 0.18848,-0.87734 0.18848,-0.87735 0.33294,-0.64523 0.33294,-0.64521 0.40183,0.77751 0.40183,0.77751 0.0938,0.66146 0.0938,0.66146 z m 11.06955,3.63315 2.11501,-0.16802 0.26029,-0.26029 0.2603,-0.2603 -0.28589,-0.45574 -0.28588,-0.45574 -1.42482,-0.0822 -1.42482,-0.0822 -0.41685,-0.37725 -0.41686,-0.37725 -0.37301,0.32711 -0.37302,0.32712 0.456,-0.55 0.456,-0.55 v -3.33478 -3.33477 l -0.54186,-0.17198 -0.54186,-0.17198 -0.38418,0.31884 -0.38418,0.31884 v 4.23333 4.23333 l 0.39688,-0.32937 0.39687,-0.32938 v 0.28137 0.28136 l -0.30466,0.18829 -0.30467,0.1883 0.5031,0.38064 0.50311,0.38064 z m 9.12978,0.11219 1.45521,2.6e-4 0.57701,-0.15475 0.57701,-0.15475 0.15516,-0.40434 0.15516,-0.40434 -0.30155,-0.36333 -0.30154,-0.36334 h -1.53949 -1.53949 l -0.18732,-0.3031 -0.18732,-0.30309 0.042,-2.80576 0.042,-2.80576 -0.22002,-0.79375 -0.22003,-0.79375 h -0.64242 -0.64242 v 4.4901 4.4901 l 0.66146,0.33465 0.66145,0.33464 1.45521,2.6e-4 z m 10.17715,0.008 h 1.97507 l 0.27294,-0.51 0.27295,-0.51 -0.15965,-0.41604 -0.15966,-0.41604 h -1.47221 -1.47221 l -0.55,0.456 -0.55,0.456 0.32443,-0.37033 0.32443,-0.37033 -0.28788,-0.34688 -0.28789,-0.34689 0.15359,-0.40024 0.15358,-0.40025 h 0.58279 0.58278 l 0.49524,-0.44818 0.49524,-0.44819 -0.18092,0.47147 -0.18092,0.47147 0.63256,-0.0894 0.63255,-0.0894 0.0721,-0.79375 0.0721,-0.79375 -0.40286,0.51359 -0.40287,0.51359 v -0.57973 -0.57974 h -1.31787 -1.31788 l -0.1662,-0.66218 -0.16619,-0.66217 0.10803,-0.92533 0.10802,-0.92532 -0.40989,-0.05 -0.40989,-0.05 2.38125,-0.14844 2.38125,-0.14843 v -0.66146 -0.66146 l -2.6978,-0.0752 -2.6978,-0.0752 -0.31226,0.58346 -0.31226,0.58347 0.48094,0.35167 0.48094,0.35168 h -0.44744 -0.44745 l 0.0313,3.10885 0.0313,3.10886 0.17336,0.79375 0.17335,0.79375 0.72139,-0.0104 0.72138,-0.0104 v 0.20887 0.20886 h 1.97506 z m 7.43817,0 h 0.31156 l 0.27356,-0.33073 0.27357,-0.33072 0.0896,-0.79149 0.0896,-0.79149 0.52174,-0.0991 0.52175,-0.0991 1.09603,1.26341 1.09604,1.2634 0.43874,-0.16836 0.43874,-0.16836 0.16193,-0.42197 0.16193,-0.42198 -0.54585,-0.73829 -0.54584,-0.7383 0.67002,-0.94169 0.67002,-0.94169 0.0141,-1.54206 0.0141,-1.54206 -0.4283,-0.8271 -0.42829,-0.8271 -1.07386,-0.42967 -1.07385,-0.42967 h -1.52923 -1.52923 l -0.3175,0.3175 -0.3175,0.3175 v 4.39208 4.39208 l 0.3175,0.3175 0.3175,0.3175 z m 2.60746,-4.27896 -0.7759,0.20972 -0.47418,-0.1036 -0.47418,-0.10359 0.0773,-1.89668 0.0773,-1.89668 1.13485,0.0236 1.13485,0.0236 0.29469,0.29469 0.2947,0.2947 0.0257,1.18971 0.0257,1.18971 -0.28243,0.28255 -0.28242,0.28255 -0.77591,0.20972 z m -38.08215,-7.37542 13.09688,-0.006 v -0.25498 -0.25498 h -13.09688 -13.09687 v 0.26146 0.26146 l 13.09687,-0.006 z m 32.26355,0.0127 h 7.02707 v -0.26459 -0.26458 h -6.86355 -6.86355 l -0.16352,0.26458 -0.16352,0.26459 z"
         id="path5338"
         sodipodi:nodetypes="cccccccccccccccccccccccccccccccccccccccccccccccccccccccccccccccccccccccccccccccccccccccccccccccccccccccccccccccccccccccccccccccccccccccccccccccccccccccccccccccccccccccccccccccccccccccccccccccccccccccccccccccccccccccccccccccccccccccccccccccccccccccccccccccccccccccccccccccccccccccccccccccccccccccccccccccccccccccccccccccccccccccccccccccccccccccccccccccccccccccccccccccccccccccccccccccccccccccccccccccccccccccccccccccccccccccccccccccccccccccccccccccccccccccccccccccccccccccccccccccccccccccccccccccccccccccccccccccccccccccccccccccc" /></g></g></svg>
