<?xml version="1.0" encoding="UTF-8" standalone="no"?>
<svg
   width="43"
   height="45"
   viewBox="0 0 43 45"
   fill="none"
   version="1.1"
   id="svg247"
   sodipodi:docname="Logo_login.svg"
   inkscape:version="1.2.2 (732a01da63, 2022-12-09)"
   xmlns:inkscape="http://www.inkscape.org/namespaces/inkscape"
   xmlns:sodipodi="http://sodipodi.sourceforge.net/DTD/sodipodi-0.dtd"
   xmlns="http://www.w3.org/2000/svg"
   xmlns:svg="http://www.w3.org/2000/svg">
  <defs
     id="defs251" />
  <sodipodi:namedview
     id="namedview249"
     pagecolor="#ffffff"
     bordercolor="#000000"
     borderopacity="0.25"
     inkscape:showpageshadow="2"
     inkscape:pageopacity="0.0"
     inkscape:pagecheckerboard="0"
     inkscape:deskcolor="#d1d1d1"
     showgrid="false"
     inkscape:zoom="9.1444444"
     inkscape:cx="13.560146"
     inkscape:cy="27.44836"
     inkscape:window-width="1366"
     inkscape:window-height="697"
     inkscape:window-x="-8"
     inkscape:window-y="309"
     inkscape:window-maximized="1"
     inkscape:current-layer="svg247" />
  <path
     d="M9.32777 44.2331L8.68257 44.8069L8.78728 44.6533L8.89199 44.4998L10.228 42.8712L11.564 41.2427L12.7988 39.7336L14.0335 38.2245L14.9974 37.0543L15.9612 35.8842L15.929 35.7266L15.8968 35.569L14.4425 35.5359L12.9882 35.5029L12.9479 35.4666L12.9076 35.4304L13.9735 34.059L15.0394 32.6876L16.0526 32.6574L17.0659 32.6271L17.1886 31.9967L17.3114 31.3663L17.5385 31.4085L17.7656 31.4507L20.7105 31.4939L23.6554 31.537V31.6267V31.7165L23.5517 31.7515L23.4479 31.7865L19.3879 35.3589L15.328 38.9312L12.6505 41.2953L9.97297 43.6593L9.32777 44.2331ZM21.0637 42.5313L17.4807 42.5591L17.4482 41.1129L17.4157 39.6666L16.9201 39.5123L16.4244 39.3579L16.4269 39.3021L16.4293 39.2464L17.3513 38.4135L18.2732 37.5807L20.1771 37.6062L22.0809 37.6317L22.8973 37.5172L23.7137 37.4027L24.3552 37.2396L24.9967 37.0764L26.0656 36.7106L27.1345 36.3449L28.2232 35.7468L29.312 35.1487L30.6003 33.9929L31.8885 32.8372L32.4219 32.0997L32.9552 31.3623L33.3052 30.7339L33.6552 30.1054L33.9609 29.3025L34.2667 28.4995L34.4404 27.7555L34.6141 27.0115L34.6863 25.8792L34.659 25.0156L34.6115 23.8538L34.5044 22.2621L34.1402 20.8915C33.5913 19.8476 33.5102 19.6947 32.9366 19.0187L32.5747 18.6167L32.0307 17.9518L31.4866 17.287L31.0856 16.8667L30.6846 16.4465L31.899 15.5534L33.1135 14.6603L34.6394 13.6884L36.1653 12.7165H36.3132H36.461L37.281 13.6884L38.101 14.6603L38.6914 15.3432L39.2818 16.0262L39.2782 16.1312L39.2747 16.2363L38.0837 17.0464L36.8927 17.8566L36.488 18.1618L36.0833 18.467L36.391 19.2954L36.6988 20.1239L36.8496 20.6206L37.0004 21.1174L39.1042 21.146L41.208 21.1745V24.3791V27.5837L39.1711 27.6363L37.1343 27.6888L37.0291 28.0565L36.9238 28.4243L36.5171 29.5797L36.1104 30.7351L35.7143 31.4871L35.3182 32.2391V32.3788V32.5185L36.5687 33.6486L37.8193 34.7787L35.4316 36.9396L33.0439 39.1005L32.8575 39.1949L32.6711 39.2892L31.5746 38.2959L30.478 37.3026L30.3998 37.3026L30.3216 37.3026L29.4084 37.8102L28.4953 38.3178L27.701 38.6537L26.9066 38.9895L26.0682 39.2397L25.2297 39.4898L24.9964 39.5269L24.7632 39.564L24.7049 41.0338L24.6465 42.5035L21.0637 42.5313ZM8.71384 38.6653L8.55187 38.6621L8.31861 38.5442L8.08535 38.4263L5.96785 36.5217L3.85036 34.617L3.82554 34.4626L3.80072 34.3081L3.81454 34.1687L3.82836 34.0293L4.97795 32.9894L6.12754 31.9494L6.26779 31.7971L6.40803 31.6449L6.18367 31.2429L5.95932 30.8409L5.52911 29.7108L5.09891 28.5807L5.01453 28.1348L4.93015 27.6888L3.1838 27.6609L1.43745 27.6329L1.29166 27.4569L1.14587 27.2809L1.14768 24.3853L1.14949 21.4898L1.25979 21.3322L1.3701 21.1746L3.2044 21.122L5.03869 21.0695L5.23323 20.3865L5.42777 19.7036L5.85464 18.7166L6.28152 17.7297L6.53636 17.3212L6.79121 16.9127L5.54307 15.7848L4.29492 14.6569V14.4977V14.3385L6.74171 12.1433L9.18849 9.94818L9.41899 10.1361L9.64949 10.324L10.5586 11.1514L11.4677 11.9787L11.5531 11.9799L11.6385 11.9811L12.3947 11.5641L13.1509 11.1472L13.8645 10.8227L14.5781 10.4981L15.4694 10.1889L16.3608 9.87973H16.5676H16.7743L16.7833 9.7484L16.7923 9.61707L16.7755 8.29202L16.7586 6.96699L16.9406 6.80302L17.1226 6.63906L20.4765 6.69871L23.8304 6.75836L23.9161 6.87436L24.0018 6.99034L24.0036 8.23026L24.0053 9.47018L24.3844 9.61067L24.7634 9.75116L25.2323 9.8206L25.7012 9.89005L25.8738 9.98818L26.0464 10.0863L25.1819 11.6233L24.3175 13.1604L23.8407 13.1006L23.3639 13.0408L22.5475 12.9347L21.7311 12.8285L20.8356 12.825L19.9402 12.8214L19.0567 12.9321L18.1732 13.0428L17.2696 13.2869L16.3661 13.531L15.608 13.8158L14.8499 14.1007L13.9752 14.5818L13.1004 15.0629L12.459 15.5355L11.8175 16.008L11.1566 16.6213L10.4957 17.2347C7.6237 19.8885 7.6536 20.8634 7.18884 23.696L7.16044 25.4296C7.08492 26.2854 7.24822 27.0792 7.48644 27.8988L7.70023 28.6342L7.93838 29.2646L8.17652 29.8951L8.62298 30.7005L9.06944 31.5059L9.94776 32.5563L10.8261 33.6067L11.7845 34.4089L12.743 35.2111L10.8094 36.9397L8.87582 38.6683L8.71384 38.6653ZM18.4443 28.3717H18.3933L18.4778 28.2404L18.5623 28.1091L19.2226 27.2685L19.8828 26.428L20.4973 25.6182L21.1118 24.8084L23.2015 24.7776L25.2912 24.7469L25.2365 24.8747L25.1819 25.0026L24.7437 25.5314L24.3054 26.0602H24.0971H23.8887V26.2783V26.4965L23.3621 27.113L22.8355 27.7295L22.661 27.8867L22.4865 28.0439L20.9111 28.0497L19.3357 28.0554L18.9155 28.2136L18.4952 28.3717L18.4443 28.3717ZM24.0686 18.5589L21.6727 18.5715V18.5297V18.4879L22.4096 17.5722L23.1465 16.6566L24.8772 14.5027L26.6079 12.3488L27.119 11.7481L27.6302 11.1475L27.9307 10.5562L28.2312 9.96486L28.2915 9.09419C28.248 8.26906 27.9687 7.7006 27.8749 6.97777L27.9797 6.21029L28.1243 5.72942L28.4137 5.20408L28.703 4.67873L29.2142 4.07955L29.7253 3.48037L30.7433 2.63808L31.7612 1.7958L32.6932 1.16991L33.6251 0.544037L33.6561 0.572004L33.6872 0.599974L33.1623 1.9564L32.6374 3.31284L32.5367 3.52297L32.436 3.73311L32.0753 4.46859L31.645 5.20407L31.3062 5.84468C31.1218 6.19804 31.1777 6.32318 31.3432 6.66036C31.7157 6.99594 31.8287 7.0368 32.2745 7.27887L33.2774 7.65065L34.16 8.02535L35.0426 8.40006L35.5012 8.46178C35.8828 8.56319 36.0217 8.48869 36.3381 8.3105C36.8866 8.07903 37.0223 7.53583 37.2755 7.07106L37.8348 6.04462L38.4515 5.00967L39.0682 3.97472L39.2785 3.66312L39.4889 3.35152L39.6808 4.03132C39.7589 4.53708 39.8249 4.74379 39.8249 5.48345L39.8168 6.70363L39.7557 7.59903L39.615 8.20782L39.2555 9.06076C38.943 9.6624 38.6214 9.97785 38.1511 10.4743C37.7747 10.8767 37.1867 11.0857 36.6717 11.2971L36.0765 11.5416L35.1434 11.718L34.2104 11.8944L33.5042 12.1853L32.7979 12.4762L32.3379 12.9817L31.8778 13.4873L30.0098 15.2295L28.1418 16.9718L27.3032 17.759L26.4645 18.5462L24.0686 18.5589Z"
     fill="white"
     id="path245"
     style="fill:#cccccc;fill-opacity:0.30830041" />
</svg>
