<svg width="75" height="67" viewBox="0 0 75 67" fill="none" xmlns="http://www.w3.org/2000/svg">
<g clip-path="url(#clip0_101_2)">
<path d="M10.3442 6.76773C7.64408 6.76773 5.45551 8.97852 5.45551 11.706C5.45551 14.433 7.64408 16.6444 10.3442 16.6444H65.746C68.4462 16.6444 70.6347 14.4336 70.6347 11.706C70.6347 8.97852 68.4462 6.76773 65.746 6.76773H10.3442ZM10.3442 28.1658C7.64408 28.1658 5.45551 30.3766 5.45551 33.1041C5.45551 35.8311 7.64408 38.0424 10.3442 38.0424H65.746C68.4462 38.0424 70.6347 35.8317 70.6347 33.1041C70.6347 30.3766 68.4462 28.1658 65.746 28.1658H10.3442ZM10.3442 49.5639C7.64408 49.5639 5.45551 51.7747 5.45551 54.5022C5.45551 57.2291 7.64408 59.4405 10.3442 59.4405H65.746C68.4462 59.4405 70.6347 57.2297 70.6347 54.5022C70.6347 51.7747 68.4462 49.5639 65.746 49.5639H10.3442Z" fill="#D82B36"/>
</g>
<defs>
<clipPath id="clip0_101_2">
<rect width="75" height="67" fill="white"/>
</clipPath>
</defs>
</svg>
