<svg width="87" height="77" viewBox="0 0 87 77" fill="none" xmlns="http://www.w3.org/2000/svg">
<g clip-path="url(#clip0_101_2)">
<path d="M11.3917 7.5524C8.41814 7.5524 6.00793 10.0195 6.00793 13.0633C6.00793 16.1064 8.41814 18.5741 11.3917 18.5741H72.4039C75.3774 18.5741 77.7876 16.107 77.7876 13.0633C77.7876 10.0195 75.3774 7.5524 72.4039 7.5524H11.3917ZM11.3917 31.4314C8.41814 31.4314 6.00793 33.8985 6.00793 36.9423C6.00793 39.9854 8.41814 42.4532 11.3917 42.4532H72.4039C75.3774 42.4532 77.7876 39.986 77.7876 36.9423C77.7876 33.8985 75.3774 31.4314 72.4039 31.4314H11.3917ZM11.3917 55.3104C8.41814 55.3104 6.00793 57.7776 6.00793 60.8213C6.00793 63.8644 8.41814 66.3322 11.3917 66.3322H72.4039C75.3774 66.3322 77.7876 63.8651 77.7876 60.8213C77.7876 57.7776 75.3774 55.3104 72.4039 55.3104H11.3917Z" fill="black"/>
</g>
<defs>
<clipPath id="clip0_101_2">
<rect width="87" height="77" fill="white"/>
</clipPath>
</defs>
</svg>
