<?xml version="1.0" encoding="UTF-8" standalone="no"?>
<svg
   width="516.9317pt"
   height="323.12125pt"
   version="1.1"
   viewBox="0 0 516.9317 323.12125"
   id="svg376"
   sodipodi:docname="noun-motorcycle-1086248.svg"
   xmlns:inkscape="http://www.inkscape.org/namespaces/inkscape"
   xmlns:sodipodi="http://sodipodi.sourceforge.net/DTD/sodipodi-0.dtd"
   xmlns="http://www.w3.org/2000/svg"
   xmlns:svg="http://www.w3.org/2000/svg">
  <sodipodi:namedview
     id="namedview378"
     pagecolor="#ffffff"
     bordercolor="#000000"
     borderopacity="0.25"
     inkscape:showpageshadow="2"
     inkscape:pageopacity="0.0"
     inkscape:pagecheckerboard="0"
     inkscape:deskcolor="#d1d1d1"
     inkscape:document-units="pt"
     showgrid="false" />
  <defs
     id="defs326" />
  <g
     id="g374"
     transform="translate(-91.535103,-118.43936)"
     style="fill:#636363;fill-opacity:1">
    <path
       d="m 191.7,323.03 14.398,-32.59 c 3.7734,0.17578 7.5508,0.34766 11.332,0.34766 h 56.539 c 18.094,0.004 32.953,-14.859 32.953,-32.953 0,-17.445 -14.215,-31.66 -31.66,-31.66 H 217.43 c -18.309,0 -36.723,-2.2617 -54.492,-6.7852 l -32.094,-7.9688 c -2.5859,-0.64453 -5.168,-0.96875 -7.7539,-0.96875 -17.445,0 -31.551,14.215 -31.551,31.66 0,14.539 9.8008,27.246 23.906,30.691 l 42.215,10.555 c 8.5312,2.1562 17.156,3.7539 25.824,4.9727 l -11.504,26.039 c -5.0742,-1.2852 -10.355,-2.043 -15.828,-2.043 -35.645,0 -64.617,28.969 -64.617,64.617 0,35.645 28.969,64.617 64.617,64.617 35.645,0 64.617,-28.969 64.617,-64.617 0,-22.516 -11.574,-42.344 -29.07,-53.914 z"
       id="path328"
       style="fill:#636363;fill-opacity:1" />
    <path
       d="m 543.85,301.56 c -6.0273,0 -11.836,0.89062 -17.375,2.4375 l -59.066,-125.52 c -2.5312,-5.3828 -8.9453,-7.6875 -14.328,-5.1641 -5.3789,2.5352 -7.6914,8.9492 -5.1602,14.336 l 59.066,125.52 c -16.754,11.684 -27.754,31.066 -27.754,53.008 0,35.645 28.969,64.617 64.617,64.617 35.645,0 64.617,-28.969 64.617,-64.617 -0.004,-35.645 -28.973,-64.617 -64.617,-64.617 z"
       id="path330"
       style="fill:#636363;fill-opacity:1" />
    <path
       d="M 457.66,302.29 H 293.43 c -5.207,0 -10.238,1.8867 -14.16,5.3086 l -35.484,30.961 c -6.8945,6.0156 -9.2344,15.73 -5.8359,24.227 l 15.863,39.664 c 1.5312,3.8281 5.1172,6.4453 9.2305,6.7422 l 150.77,10.77 c 0.25781,0.0195 0.51562,0.0312 0.77344,0.0312 4.2188,0 8.0781,-2.4727 9.8242,-6.3633 l 43.078,-96.164 c 1.4922,-3.332 1.1953,-7.1953 -0.78906,-10.266 -1.9922,-3.0586 -5.3945,-4.9102 -9.043,-4.9102 z"
       id="path332"
       style="fill:#636363;fill-opacity:1" />
    <path
       d="m 396.45,150.2 24.504,-8.1602 16.973,25.461 c 2.0781,3.1133 5.4883,4.7969 8.9727,4.7969 2.0508,0 4.1289,-0.58984 5.9648,-1.8086 4.9492,-3.3008 6.2852,-9.9805 2.9883,-14.934 l -21.539,-32.309 c -2.6992,-4.0508 -7.75,-5.8047 -12.367,-4.2383 l -32.309,10.77 c -5.6406,1.8711 -8.6914,7.9727 -6.8086,13.621 1.8789,5.6367 7.9688,8.6836 13.621,6.8008 z"
       id="path334"
       style="fill:#636363;fill-opacity:1" />
    <path
       d="m 341.6,290.79 h 68.492 c 20.352,0 37.586,-14.648 40.922,-34.676 l 2.0469,-12.602 c 1.7227,-9.6914 -1.0781,-19.602 -7.4297,-27.137 -6.3555,-7.4297 -15.617,-11.738 -25.523,-11.738 h -40.277 c -34.246,-0.004 -62.141,27.887 -62.141,62.133 0,13.25 10.77,24.02 23.91,24.02 z"
       id="path336"
       style="fill:#636363;fill-opacity:1" />
  </g>
</svg>
