<?xml version="1.0" encoding="UTF-8" standalone="no"?>
<!-- Created with Inkscape (http://www.inkscape.org/) -->

<svg
   width="121.40889mm"
   height="95.954788mm"
   viewBox="0 0 121.40889 95.954788"
   version="1.1"
   id="svg5"
   xml:space="preserve"
   xmlns:inkscape="http://www.inkscape.org/namespaces/inkscape"
   xmlns:sodipodi="http://sodipodi.sourceforge.net/DTD/sodipodi-0.dtd"
   xmlns="http://www.w3.org/2000/svg"
   xmlns:svg="http://www.w3.org/2000/svg"><sodipodi:namedview
     id="namedview7"
     pagecolor="#ffffff"
     bordercolor="#000000"
     borderopacity="0.25"
     inkscape:showpageshadow="2"
     inkscape:pageopacity="0.0"
     inkscape:pagecheckerboard="0"
     inkscape:deskcolor="#d1d1d1"
     inkscape:document-units="mm"
     showgrid="false" /><defs
     id="defs2" /><g
     inkscape:label="Capa 1"
     inkscape:groupmode="layer"
     id="layer1"
     transform="translate(-35.766957,-171.17039)"><path
       style="fill:#f47a82;fill-opacity:1;stroke-width:0.211299"
       d="m 118.37777,266.94206 c -0.45417,-0.0377 -2.31214,-0.17318 -4.12883,-0.3011 -1.81668,-0.12791 -4.74298,-0.37681 -6.50289,-0.55311 -1.75991,-0.1763 -4.16526,-0.41118 -5.34522,-0.52196 -3.859065,-0.36229 -3.97444,-0.86344 -4.133838,-17.95604 l -0.01724,-1.84732 -1.102765,-0.5666 c -3.149002,-1.61795 -5.925412,-5.2799 -8.213008,-10.83254 -0.726608,-1.76369 -1.117341,-2.4577 -1.458037,-2.58973 -0.255977,-0.0992 -1.086108,-0.80812 -1.844729,-1.57539 -1.573342,-1.59126 -2.076401,-1.70841 -4.51999,-1.05258 -3.930345,1.05486 -4.281743,-2.60134 -0.383431,-3.98951 l 1.068535,-0.3805 -1.319522,-0.50404 c -2.454861,-0.93771 -3.449383,-2.79105 -2.097008,-3.90787 0.784722,-0.64805 1.828647,-0.46825 3.178062,0.54738 0.589403,0.4436 1.008596,0.65154 0.940896,0.46671 -0.882538,-2.40937 -0.414922,-4.90732 1.093377,-5.84072 1.300317,-0.80469 2.142417,-0.0812 2.597404,2.23138 0.340423,1.73031 0.499516,2.1347 0.499516,1.26968 0,-2.61158 1.743312,-4.37286 3.167016,-3.19965 0.886301,0.73037 1.025498,1.76934 0.551941,4.11986 -0.566828,2.81353 -0.471833,3.17436 0.275077,1.04483 0.729674,-2.08041 2.676576,-3.16567 3.886486,-2.16643 0.869464,0.71806 0.913415,1.48918 0.1841,3.22999 -0.542234,1.29426 -0.632743,1.77149 -0.632743,3.33625 0,1.60773 -0.0639,1.92453 -0.53444,2.65098 l -0.53444,0.82504 0.482826,1.09004 c 2.173175,4.9061 4.889442,7.99126 4.638311,5.26821 -0.190045,-2.06079 -0.214202,-18.56382 -0.02824,-19.30222 0.257225,-1.0214 0.914172,-2.27104 1.192815,-2.26898 0.139626,8.2e-4 1.409619,0.14465 2.822209,0.31913 3.13462,0.3872 2.69653,1.37899 3.12621,-7.07739 0.80747,-15.89182 1.11793,-17.38349 4.31046,-20.71033 7.29538,-7.6023 26.75168,-6.4649 31.79026,1.85843 1.36139,2.24892 1.35797,2.20923 1.28507,14.91731 l -0.0659,11.47686 1.61415,-0.16997 c 0.88778,-0.0935 2.33853,-0.28294 3.22389,-0.42099 3.57755,-0.55784 4.1017,1.65109 3.6674,15.4556 l -0.26445,8.40542 0.43278,0.56984 c 2.83335,3.73061 3.92067,7.89734 4.09472,15.69149 l 0.11554,5.17315 0.66993,0.91946 c 1.68892,2.31797 1.17536,5.84695 -0.82744,5.6857 -0.35186,-0.0284 -0.93457,0.15364 -1.3438,0.41964 -0.82821,0.53836 -0.91404,0.55276 -1.46225,0.2454 -0.30198,-0.16932 -0.51694,-0.14223 -0.85813,0.10813 -0.65692,0.48203 -1.86885,0.42899 -2.32744,-0.10187 -0.37293,-0.43171 -0.38068,-0.43187 -0.80615,-0.016 -1.02578,1.00254 -2.42596,0.67979 -2.69892,-0.6221 -0.0757,-0.36089 -0.17055,-0.65615 -0.21088,-0.65615 -0.0403,0 -0.72913,0.14452 -1.53068,0.32117 -5.77862,1.27345 -19.03561,2.03847 -25.71664,1.48403 z m 15.50471,-0.72333 c 3.51312,-0.28473 5.86678,-0.58217 8.75211,-1.10605 3.21976,-0.58459 3.02998,-0.4866 3.19659,-1.65054 0.1939,-1.35458 0.81581,-3.05017 1.44799,-3.94784 0.49408,-0.70159 0.51645,-0.86687 0.51645,-3.81629 0,-3.61554 0.47283,-6.59446 1.54597,-9.73995 l 0.69488,-2.03677 0.2698,-7.18055 c 0.75891,-20.19795 0.41211,-22.79681 -2.96818,-22.24305 -10.65002,1.74466 -29.97257,1.8498 -44.01248,0.2395 -2.03384,-0.23327 -3.768224,-0.42413 -3.854177,-0.42413 -0.711112,0 -0.912268,2.23801 -0.855302,9.51594 0.28735,36.71395 0.44908,40.18509 1.900039,40.77933 0.55797,0.22853 9.82797,1.18148 15.48752,1.59213 3.51197,0.25482 14.8176,0.26637 17.87879,0.0183 z m 2.91292,-9.01843 c -0.20429,-0.3669 0.48892,-2.17412 1.06574,-2.77841 0.55364,-0.58 0.58176,-0.67999 0.33303,-1.18388 -3.03123,-6.14089 -18.96751,-6.34594 -25.80516,-0.33203 l -0.79318,0.69763 0.52803,0.73831 c 1.05156,1.47032 1.49622,2.79384 0.93805,2.79208 -0.14193,-4.3e-4 -0.42996,-0.43873 -0.64007,-0.97397 -0.46385,-1.18164 -1.87008,-2.53028 -3.01205,-2.88871 -0.79186,-0.24855 -1.03783,-0.52328 -0.67743,-0.75663 0.0883,-0.0571 0.64749,0.0687 1.24265,0.27983 l 1.08211,0.38378 1.26152,-1.06064 c 7.20754,-6.05988 22.61872,-5.67991 26.40429,0.65101 0.28053,0.46917 0.35975,0.48566 1.28598,0.26791 1.07149,-0.2519 2.07033,-0.10562 1.94749,0.28523 -0.0423,0.13449 -0.58048,0.29619 -1.19603,0.35934 -1.74778,0.17929 -2.7043,0.96712 -3.16688,2.60838 -0.25121,0.89131 -0.59222,1.28047 -0.79809,0.91077 z m -15.46428,-12.507 c -0.27854,-0.29181 0.36637,-1.94622 1.05375,-2.70321 1.58352,-1.74389 3.37651,-1.45688 5.21251,0.83438 0.35662,0.44506 0.73651,0.68524 1.08381,0.68524 0.33769,0 0.53474,0.11954 0.53474,0.32441 0,0.86558 -1.31196,0.36542 -2.40326,-0.91621 -1.72941,-2.03105 -4.19506,-1.52258 -4.76038,0.98167 -0.16465,0.72934 -0.46601,1.06103 -0.72117,0.79372 z m -12.76252,-4.39565 c -2.81844,-1.56937 -3.84072,-7.71125 -1.80505,-10.84482 1.88472,-2.90122 5.55725,-2.01731 6.78553,1.63316 1.92368,5.71721 -1.12606,11.35788 -4.98048,9.21166 z m 0.7545,-3.16844 c 0.27374,-0.74732 -0.80586,-2.7029 -1.49218,-2.7029 -0.41146,0 -0.3888,1.92066 0.03,2.54713 0.36796,0.55035 1.28193,0.64773 1.46212,0.15577 z m -1.47383,-5.15398 c 0,-0.56372 -0.40481,-0.52834 -0.48187,0.0421 -0.0473,0.35013 0.0176,0.48047 0.20645,0.41453 0.15148,-0.0529 0.27542,-0.25839 0.27542,-0.45664 z m 28.07599,8.38284 c -2.63111,-1.43357 -3.37085,-4.8334 -2.03312,-9.34411 1.1762,-3.96601 5.6229,-4.40639 7.26959,-0.71994 2.23012,4.99256 -1.47501,12.11351 -5.23647,10.06405 z m 0.99782,-2.93944 c 0.39988,-0.66527 -0.93385,-3.0435 -1.50091,-2.67633 -0.1207,0.0781 -0.21946,0.56116 -0.21946,1.07337 0,1.56311 1.11812,2.60493 1.72037,1.60296 z m -1.30748,-5.17306 c 0,-0.52706 -0.48241,-0.45257 -0.58285,0.09 -0.0395,0.21341 0.0658,0.36056 0.25805,0.36056 0.1915,0 0.3248,-0.18492 0.3248,-0.45057 z m -32.49973,-3.5659 c -1.33938,-1.40317 3.06101,-6.06659 5.96224,-6.31863 2.49918,-0.21712 3.35148,2.68595 0.97001,3.30402 -0.86056,0.22334 -3.69597,1.76436 -4.77946,2.59759 -1.07569,0.82723 -1.65424,0.9393 -2.15279,0.41702 z m 37.80006,-0.95423 c -1.00205,-0.70063 -2.42515,-1.49899 -3.16247,-1.77414 -2.23698,-0.83476 -2.71387,-1.76841 -1.53442,-3.00401 1.19069,-1.2474 3.1521,-0.69593 5.86616,1.64936 3.77516,3.26221 2.79035,5.89738 -1.16927,3.12879 z m 7.20897,38.25145 c 0.30915,-0.35974 0.39327,-0.78758 0.39327,-2.00052 0,-1.98003 0.3716,-2.22431 0.53762,-0.35341 0.21184,2.38734 0.80861,3.13086 2.07269,2.58233 0.54011,-0.23438 0.59809,-0.33987 0.45655,-0.83066 -0.23379,-0.81063 -0.21318,-2.92205 0.0297,-3.0493 0.12215,-0.064 0.2552,0.48628 0.32588,1.34776 0.16566,2.01938 0.91705,2.81862 1.9244,2.04695 0.3247,-0.24873 0.33967,-0.3921 0.12725,-1.21853 -0.24966,-0.97132 -0.14529,-1.95991 0.20691,-1.95991 0.11138,0 0.20251,0.431 0.20251,0.95777 0,1.53016 1.21703,2.25235 1.94948,1.15682 1.03375,-1.54616 -0.55854,-5.23092 -2.54598,-5.89175 -0.23963,-0.0797 -0.4357,-0.21942 -0.4357,-0.31053 0,-0.37477 0.29103,-0.41929 0.83047,-0.12705 l 0.5717,0.30972 0.14694,-1.94507 c 0.47348,-6.26706 -0.84328,-13.09039 -3.24811,-16.83139 l -0.72344,-1.1254 -0.13065,0.68435 c -0.0719,0.3764 -0.13065,1.56479 -0.13065,2.64087 0,1.60288 -0.0971,2.21079 -0.53723,3.36332 -1.3244,3.46812 -2.53356,13.33637 -1.5566,12.70383 0.66935,-0.43339 0.5696,0.22289 -0.14818,0.97484 -1.66475,1.74402 -2.7316,5.8573 -1.83171,7.06222 0.31057,0.41584 1.07593,0.3211 1.51282,-0.18726 z M 98.249764,241.39368 v -3.62994 l -1.146154,-1.18211 c -1.247152,-1.28626 -2.708934,-3.53914 -3.880315,-5.98027 -0.72944,-1.52013 -0.759027,-1.5501 -1.353593,-1.37146 -0.579593,0.17414 -0.845377,0.10743 -0.845377,-0.2122 0,-0.0803 0.353929,-0.25708 0.786515,-0.39285 1.375658,-0.43178 1.643112,-0.93922 1.729853,-3.28195 0.06265,-1.69229 0.175119,-2.26799 0.637815,-3.26493 0.909373,-1.95935 0.640054,-3.00694 -0.773025,-3.00694 -0.886816,0 -1.783627,0.86637 -2.2387,2.16272 -0.1879,0.53527 -0.505844,1.45162 -0.706539,2.03634 -0.742829,2.16417 -1.204784,-0.39823 -0.580342,-3.21901 0.476482,-2.15237 0.423308,-2.85013 -0.27276,-3.57934 -1.417267,-1.48476 -2.500644,0.73931 -2.503999,5.14048 -6.24e-4,0.86239 -0.08272,1.56797 -0.18236,1.56797 -0.420344,0 -0.628015,-0.68326 -0.953145,-3.13594 -0.534011,-4.02839 -0.902257,-4.71111 -2.160566,-4.00561 -1.675348,0.93932 -1.634217,4.05552 0.09132,6.91911 0.977911,1.62288 0.43925,1.49459 -1.358378,-0.32351 -2.176217,-2.20101 -3.808181,-2.73279 -4.219552,-1.37495 -0.327191,1.07997 0.678076,1.89125 3.579244,2.88854 1.967984,0.6765 2.085536,1.02645 0.409165,1.21801 -1.873462,0.21408 -3.877451,1.49474 -3.877451,2.47791 0,0.93177 1.377796,1.20583 3.181036,0.63275 2.072203,-0.65856 3.141387,-0.3122 4.534577,1.46897 0.90115,1.1521 1.749273,1.60161 2.367699,1.25488 0.717235,-0.40214 0.977011,0.009 0.322462,0.51076 -1.287443,0.98623 4.272809,10.08524 7.554602,12.36262 1.953026,1.35531 1.857968,1.49243 1.857968,-2.68005 z m 37.004566,-26.35392 2.21924,-0.14362 0.0516,-8.45579 c 0.0789,-12.93279 0.0511,-13.22542 -1.43049,-15.03875 -3.96494,-4.85271 -15.52695,-5.76855 -21.35481,-1.69153 -3.26904,2.28693 -3.62946,3.91729 -4.37402,19.78579 l -0.24583,5.23944 0.82581,0.1213 c 3.17517,0.46642 18.18405,0.57951 24.30849,0.18316 z m -25.65031,-0.73855 c 0,-5.25966 1.06753,-18.69212 1.64911,-20.75022 2.48951,-8.80999 22.20972,-9.54169 26.22927,-0.97321 l 0.50727,1.08135 0.0591,10.55042 0.0591,10.55041 1.90211,-0.14471 c 1.04616,-0.0796 1.93342,-0.17239 1.97168,-0.20622 0.30898,-0.2732 0.26334,-22.18401 -0.0488,-23.45329 -2.82396,-11.48135 -28.70663,-12.74248 -33.87473,-1.65054 -1.33404,2.86315 -1.58456,4.65423 -2.06101,14.73497 -0.16866,3.56847 -0.36427,7.33093 -0.43468,8.361 l -0.12803,1.87287 1.3107,0.12754 c 1.37318,0.13361 2.44232,0.25681 2.70417,0.31162 0.0852,0.0178 0.15484,-0.16758 0.15484,-0.41199 z"
       id="path856"
       sodipodi:nodetypes="csssscsssssscsssssssssssssccssscssssscssscsscsssssssssscccssssscsssssssccsssscsssssscsssssssssssssssssssssssssssssssssssssssssssssssssssssssssssssssssscsscssssssssscsssssssssssscsssssssssssscssccsssscsscsssccccscssscssss" /><path
       style="fill:#f47a82;fill-opacity:1;stroke-width:0.211299"
       d="m 54.424074,263.82792 c -4.651388,-4.90653 -4.750221,-5.54648 -3.749196,-24.27648 0.374027,-6.99836 0.765755,-14.61951 0.82184,-15.98907 l 0.03482,-0.85008 -1.139023,-0.35637 C 36.630213,218.05005 31.062473,195.71907 40.351161,182.0823 c 16.293893,-23.92116 51.476297,-5.03339 43.105878,23.1415 l -0.396838,1.33576 0.672616,0.13219 c 3.490196,0.68594 5.448674,-1.06736 5.276512,-2.81487 0.877656,-1.90626 3.69733,0.30348 5.717522,0.31417 0.899831,0 1.499175,0.49408 1.499175,1.23587 0,0.24467 0.129085,0.70553 0.286867,1.02414 0.284674,0.57484 0.236915,1.31927 -0.09858,1.5365 -0.09612,0.0622 -0.119792,0.4011 -0.05259,0.75304 0.07937,2.52682 -6.879551,2.08351 -9.17931,2.71294 -1.793443,0.54866 -4.777114,0.7515 -6.066708,0.41241 -0.456906,-0.12013 -0.642034,0.0384 -1.563663,1.339 -2.80051,3.95209 -6.844195,7.17448 -11.36787,9.05899 -2.929222,1.22027 -2.940797,1.64087 -0.141951,5.15845 1.628197,2.04632 1.665298,2.15797 0.793302,2.38726 -2.552459,0.67113 -3.333444,4.15399 -1.366878,6.0957 0.451889,0.44617 0.510541,0.59464 0.26852,0.67971 -2.338387,0.82195 -3.054849,6.62675 -1.00368,8.13186 1.832368,1.34456 1.573864,3.32776 -0.572539,4.39243 -1.755416,0.87073 -1.939834,1.90766 -0.666724,3.74882 2.185559,3.16075 1.739233,4.89035 -2.519801,9.76468 -5.10952,5.84768 -4.262321,5.72829 -8.550336,1.20507 z m 4.719684,2.21176 c 0.847499,-0.77954 0.854844,-0.84923 1.162047,-11.02483 0.96281,-31.89141 0.64364,-30.20956 6.192702,-32.63209 6.254755,-2.73061 9.796286,-5.4638 12.845057,-9.91325 17.227083,-25.14155 -14.96056,-55.14301 -35.793374,-33.36229 -12.229905,12.78637 -7.919321,38.57615 7.13332,42.6779 1.653793,0.45066 1.646145,0.43607 1.393671,2.65935 -0.11957,1.05293 -0.272792,3.32558 -0.340493,5.05034 -0.0677,1.72477 -0.303295,6.78552 -0.52354,11.24613 -0.220246,4.4606 -0.424508,10.15394 -0.453915,12.65187 l -0.05347,4.54171 0.558054,1.18949 c 0.562388,1.19873 6.39808,7.5695 6.933743,7.5695 0.129457,0 0.555246,-0.29422 0.946198,-0.65383 z m -2.2806,-48.23312 c -1.994202,-0.41309 -2.846333,-1.29533 -3.361986,-3.48074 -0.348177,-1.47562 -0.456458,-1.66321 -1.48081,-2.56526 -3.18513,-2.80487 -6.144045,-6.59762 -5.595476,-7.17232 0.155901,-0.16331 0.385125,0.0449 0.785467,0.71338 1.228162,2.05086 2.483723,3.52361 4.244417,4.97862 1.988683,1.64342 2.352567,2.17609 2.664791,3.90084 0.517632,2.85943 5.829725,4.50503 7.266368,2.251 0.286819,-0.45 0.156082,-0.56237 -0.654333,-0.56237 -0.954573,0 -1.871409,-0.32287 -1.871409,-0.65902 0,-0.16069 0.358148,-0.19031 1.110395,-0.0918 1.250469,0.16368 1.986221,-0.11429 1.986221,-0.75039 0,-0.2977 -0.108743,-0.37489 -0.411334,-0.292 -0.226233,0.062 -0.835638,0.046 -1.354235,-0.0355 -1.256548,-0.1974 -1.11382,-0.67708 0.180544,-0.60676 2.551904,0.13865 2.66997,-1.3678 0.139937,-1.78549 -0.958875,-0.15831 -1.445087,-0.42977 -1.445087,-0.8068 0,-0.12485 0.258844,-0.16259 0.610236,-0.089 1.512632,0.31693 2.312072,-3.10939 0.871358,-3.73457 -0.822263,-0.35681 -1.5191,0.0213 -2.104292,1.14186 -0.701316,1.34289 -1.438125,2.08637 -2.067653,2.08637 -1.611127,0 -8.326022,-6.49848 -7.541909,-7.29883 0.08758,-0.0894 0.588389,0.37273 1.112915,1.02696 4.357164,5.43452 6.629308,6.57533 7.903651,3.96831 0.898503,-1.83814 2.42966,-2.28366 3.607545,-1.04968 0.671664,0.70365 0.671113,2.05434 -0.0012,3.28634 l -0.49469,0.90633 0.574471,0.13218 c 0.891576,0.20515 1.533986,1.042 1.362439,1.77481 -0.07799,0.33318 -0.193947,0.89775 -0.257667,1.25461 -0.06372,0.35684 -0.24037,0.79838 -0.392552,0.98119 -0.152183,0.18281 -0.226495,0.53349 -0.165141,0.77928 0.352459,1.41199 -2.440994,2.37424 -5.220841,1.79841 z m 4.267986,-13.20967 c -0.786546,-0.32857 -1.445193,-1.07282 -1.445193,-1.63303 0,-0.69234 0.339391,-0.63038 0.714977,0.1305 0.674731,1.36692 3.06344,1.18506 3.817301,-0.29062 0.302593,-0.59233 0.835191,-0.76061 0.835191,-0.26389 0,1.30287 -2.53947,2.6347 -3.922276,2.05704 z m 7.122112,-3.85742 c -2.545305,-1.11022 -2.943156,-6.06056 -0.656144,-8.1642 2.750817,-2.53026 6.023874,1.14172 4.903392,5.50102 -0.547193,2.12888 -2.567658,3.39579 -4.247248,2.66318 z m 0.412121,-1.22001 c -1.517248,-2.34225 -0.540075,-6.21776 1.614854,-6.4046 0.722502,-0.0626 0.701216,-0.26964 -0.06178,-0.60073 -3.067554,-1.33112 -4.934506,5.03609 -2.149557,7.33104 0.882833,0.72751 1.175281,0.56781 0.59648,-0.32571 z m -15.581426,0.6283 c -2.427579,-1.31874 -2.784281,-5.8889 -0.619544,-7.93774 3.079394,-2.91452 6.514469,1.49927 4.779833,6.1417 -0.639659,1.71194 -2.687598,2.59605 -4.160289,1.79604 z m 0.660843,-0.87688 c -1.571279,-2.36368 -0.886785,-5.95552 1.249794,-6.55823 0.975969,-0.27532 0.652562,-0.84907 -0.478592,-0.84907 -2.87635,0 -3.969492,5.92085 -1.396551,7.56422 0.926527,0.59179 1.094967,0.54952 0.625349,-0.15692 z m 19.050166,-9.32074 c -1.829719,-1.84179 -3.67286,-2.19389 -5.064186,-0.96742 -0.873448,0.76996 -1.339804,0.35352 -0.508243,-0.45385 1.570707,-1.525 4.092122,-1.13576 6.070835,0.93718 1.535727,1.60885 1.069169,2.06201 -0.498406,0.48409 z m -24.360001,0.39961 c -0.197734,-0.33517 1.175773,-1.81532 2.371532,-2.55566 1.682353,-1.04161 3.995141,-0.72384 4.830593,0.66369 0.36774,0.61075 -0.03265,0.67442 -0.675803,0.10746 -1.534093,-1.35232 -3.367982,-0.92875 -5.625248,1.29924 -0.513776,0.5071 -0.797918,0.66013 -0.901074,0.48527 z m 10.322008,-7.39737 c -3.039519,-1.11004 -3.140888,-5.64578 -0.149293,-6.68011 1.267777,-0.43833 3.246914,-0.16376 3.957027,0.54897 2.648763,2.65852 -0.302848,7.41115 -3.807734,6.13114 z m 2.73723,-0.81985 c 1.358857,-0.86796 1.870342,-2.67523 1.18521,-4.18778 -0.847208,-1.87038 -4.208597,-1.85331 -5.384834,0.0274 -1.567452,2.50614 1.708555,5.75158 4.199624,4.16044 z m 4.180127,76.03778 c 0.925735,-1.91534 0.803066,-2.80552 -0.70259,-5.09859 -1.318128,-2.00747 -1.010122,-3.62876 0.843525,-4.44015 1.857028,-0.81285 2.042022,-1.93899 0.577783,-3.51723 -1.854061,-1.9984 -1.890817,-6.17495 -0.07112,-8.0813 0.739883,-0.77511 0.750878,-0.80946 0.373646,-1.1671 -1.704032,-1.61557 -1.010191,-5.19619 1.210157,-6.2451 l 0.851514,-0.40227 -1.336955,-1.67925 c -1.290967,-1.62149 -2.240464,-3.35693 -2.030955,-3.71206 0.05573,-0.0945 -0.02677,-0.17178 -0.183349,-0.17178 -0.424566,0 -1.970643,1.45887 -2.372299,2.2385 -1.073277,2.08323 -1.054615,1.77602 -2.089215,34.39419 l -0.129533,4.08383 2.220823,-2.46179 c 1.403828,-1.55615 2.448075,-2.93198 2.838564,-3.7399 z m 21.508592,-47.37093 c 1.547173,-0.4795 2.149241,-0.55175 4.360016,-0.52327 2.14117,0.0276 2.697332,-0.0347 3.365983,-0.37669 1.015974,-0.51968 1.145987,-1.31374 0.197567,-1.20668 -0.820433,0.0926 -1.610873,-0.13769 -1.514301,-0.44121 0.04362,-0.13696 0.503074,-0.25734 1.021105,-0.26754 1.015487,-0.02 1.667529,-0.41548 1.568968,-0.95163 -0.04713,-0.25656 -0.301481,-0.32312 -1.092665,-0.28591 -0.567163,0.0266 -1.159225,-0.0399 -1.315704,-0.14792 -0.463507,-0.31998 -0.0646,-0.67476 0.601659,-0.53516 0.698105,0.14627 1.231156,-0.20765 1.231156,-0.81744 0,-0.35713 -0.167941,-0.40607 -1.393479,-0.40611 -1.150737,-4e-5 -1.591274,-0.11157 -2.528908,-0.64024 -1.949181,-1.099 -2.374073,-0.89254 -2.374073,1.15364 0,2.0107 -1.598791,2.58948 -5.470683,1.98041 l -0.928985,-0.14612 -0.925105,1.90805 c -0.50881,1.04942 -0.955717,1.97443 -0.993129,2.05556 -0.267017,0.57911 3.96245,0.33879 6.190578,-0.35174 z"
       id="path856-4"
       sodipodi:nodetypes="ssscssscsccsssccscsssscsssssssssssssssscsssscsssssssssssscssscsssscssccsssssccssssssssssscsssssssssssssssssssssssssssscscccssssscscssssscsssscsscccscsssssscsss" /></g></svg>
