<?xml version="1.0" encoding="UTF-8" standalone="no"?>
<!-- Created with Inkscape (http://www.inkscape.org/) -->

<svg
   width="77.67263mm"
   height="70.711891mm"
   viewBox="0 0 77.67263 70.711891"
   version="1.1"
   id="svg5"
   xml:space="preserve"
   inkscape:export-filename="star.svg"
   inkscape:export-xdpi="96"
   inkscape:export-ydpi="96"
   sodipodi:docname="star.svg"
   inkscape:version="1.2.2 (732a01da63, 2022-12-09)"
   xmlns:inkscape="http://www.inkscape.org/namespaces/inkscape"
   xmlns:sodipodi="http://sodipodi.sourceforge.net/DTD/sodipodi-0.dtd"
   xmlns:xlink="http://www.w3.org/1999/xlink"
   xmlns="http://www.w3.org/2000/svg"
   xmlns:svg="http://www.w3.org/2000/svg"><sodipodi:namedview
     id="namedview7"
     pagecolor="#ffffff"
     bordercolor="#000000"
     borderopacity="0.25"
     inkscape:showpageshadow="2"
     inkscape:pageopacity="0.0"
     inkscape:pagecheckerboard="0"
     inkscape:deskcolor="#d1d1d1"
     inkscape:document-units="mm"
     showgrid="false"
     inkscape:zoom="2.1166304"
     inkscape:cx="152.36482"
     inkscape:cy="174.80615"
     inkscape:window-width="2560"
     inkscape:window-height="1009"
     inkscape:window-x="1358"
     inkscape:window-y="-8"
     inkscape:window-maximized="1"
     inkscape:current-layer="layer1" /><defs
     id="defs2"><linearGradient
       inkscape:collect="always"
       id="linearGradient2433"><stop
         style="stop-color:#faec52;stop-opacity:0.30094042;"
         offset="0.61358809"
         id="stop2429" /><stop
         style="stop-color:#000000;stop-opacity:0;"
         offset="0.9511677"
         id="stop2431" /></linearGradient><linearGradient
       inkscape:collect="always"
       xlink:href="#linearGradient2433"
       id="linearGradient2435"
       x1="60.328835"
       y1="124.41288"
       x2="136.63725"
       y2="124.41288"
       gradientUnits="userSpaceOnUse"
       gradientTransform="matrix(1.2198397,0,0,1.0834967,48.724992,86.725969)" /></defs><g
     inkscape:label="Capa 1"
     inkscape:groupmode="layer"
     id="layer1"
     transform="matrix(0.8197798,0,0,0.92293776,-39.943766,-80.042668)"><path
       style="fill:url(#linearGradient2435);fill-opacity:1;stroke:#faec5c;stroke-width:3.81067;stroke-dasharray:none;stroke-opacity:1"
       d="m 93.197963,154.56551 c -1.400696,-4.68536 -2.694517,-8.72225 -2.875185,-8.97084 -0.180763,-0.24858 -4.985086,0.90465 -10.676489,2.56274 -14.420862,4.20127 -14.503914,4.22251 -14.969087,3.82967 -0.228899,-0.19327 -0.09389,-0.67962 0.300195,-1.08063 0.394056,-0.40097 3.035943,-3.99155 5.870839,-7.97905 5.154324,-7.24996 5.154324,-7.24996 -0.138901,-9.33061 -17.632371,-6.93083 -19.505563,-7.75633 -18.55807,-8.17832 0.53382,-0.23772 5.411041,-1.3561 10.838253,-2.48529 5.427232,-1.12918 9.867678,-2.2837 9.867678,-2.56562 0,-0.28192 -1.900907,-5.08208 -4.224232,-10.66698 -2.32333,-5.58496 -4.083534,-10.273239 -3.911586,-10.418446 0.311862,-0.263372 7.407127,3.059556 15.112762,7.077746 4.065164,2.11987 4.065164,2.11987 9.938478,-8.008953 3.230277,-5.570865 5.200334,-8.669602 5.439173,-8.669602 0.238896,0 1.547252,2.312097 3.913809,7.420433 3.49087,7.535242 4.61063,10.149422 5.72334,9.980302 0.68825,-0.1044 4.94204,-2.2312 10.90011,-4.89416 5.97259,-2.669456 11.62685,-3.252708 11.7703,-3.056678 0.14354,0.195999 -0.8259,1.817538 -2.15412,3.603308 -3.14982,4.23476 -8.50797,12.12442 -8.50797,12.5275 0,0.17339 5.45957,2.54719 12.13238,5.275 9.88197,4.0397 11.89232,5.04689 10.83823,5.43002 -0.71176,0.2587 -5.37059,1.36191 -10.35297,2.45158 -4.98231,1.08966 -9.29453,2.16963 -9.58261,2.39995 -0.28811,0.23027 1.3696,5.05734 3.6838,10.72678 2.31416,5.66942 4.08849,10.4086 3.943,10.53147 -0.14556,0.12292 -4.54065,-1.90301 -9.76696,-4.5021 -5.22632,-2.59902 -9.55704,-4.66024 -9.62383,-4.58049 -0.0669,0.0798 -3.09861,4.31793 -6.11485,10.00535 -2.75935,5.20299 -5.467675,8.0643 -5.696875,8.0643 -0.229203,0 -1.717843,-1.81302 -3.118538,-6.49838 z"
       id="path302"
       sodipodi:nodetypes="sssssssssssssssscssssssssssssssss" /><text
       xml:space="preserve"
       style="font-style:normal;font-variant:normal;font-weight:normal;font-stretch:normal;font-size:18.6454px;line-height:0.7;font-family:'Thalib Textured DEMO';-inkscape-font-specification:'Thalib Textured DEMO';fill:#000000;fill-opacity:1;stroke:#faec5c;stroke-width:10.1339;stroke-linecap:round;stroke-linejoin:bevel;stroke-dasharray:none;stroke-opacity:0.979747;paint-order:markers stroke fill"
       x="72.746521"
       y="133.84248"
       id="text2898"
       transform="scale(0.99787721,1.0021273)"><tspan
         sodipodi:role="line"
         id="tspan2896"
         style="font-style:normal;font-variant:normal;font-weight:normal;font-stretch:normal;font-size:18.6454px;font-family:'Thalib Textured DEMO';-inkscape-font-specification:'Thalib Textured DEMO';fill:#000000;fill-opacity:1;stroke:#faec5c;stroke-width:10.1339;stroke-dasharray:none;stroke-opacity:0.979747"
         x="72.746521"
         y="133.84248">Dto</tspan></text></g></svg>
