<?xml version="1.0" encoding="UTF-8" standalone="no"?>
<!-- Created with Inkscape (http://www.inkscape.org/) -->

<svg
   width="210mm"
   height="297mm"
   viewBox="0 0 210 297"
   version="1.1"
   id="svg5"
   xml:space="preserve"
   inkscape:version="1.2.2 (732a01da63, 2022-12-09)"
   sodipodi:docname="user.svg"
   xmlns:inkscape="http://www.inkscape.org/namespaces/inkscape"
   xmlns:sodipodi="http://sodipodi.sourceforge.net/DTD/sodipodi-0.dtd"
   xmlns="http://www.w3.org/2000/svg"
   xmlns:svg="http://www.w3.org/2000/svg"><sodipodi:namedview
     id="namedview7"
     pagecolor="#ffffff"
     bordercolor="#000000"
     borderopacity="0.25"
     inkscape:showpageshadow="2"
     inkscape:pageopacity="0.0"
     inkscape:pagecheckerboard="0"
     inkscape:deskcolor="#d1d1d1"
     inkscape:document-units="mm"
     showgrid="false"
     inkscape:zoom="0.51843089"
     inkscape:cx="545.87797"
     inkscape:cy="513.08671"
     inkscape:window-width="1366"
     inkscape:window-height="697"
     inkscape:window-x="-8"
     inkscape:window-y="309"
     inkscape:window-maximized="1"
     inkscape:current-layer="g274" /><defs
     id="defs2"><symbol
       id="p"
       overflow="visible"><path
         d="m34.109-2.0312c-1.7617 0.90625-3.5938 1.5898-5.5 2.0469-1.9062 0.46875-3.8984 0.70312-5.9688 0.70312-6.1797 0-11.074-1.7227-14.688-5.1719-3.6172-3.457-5.4219-8.1445-5.4219-14.062 0-5.9375 1.8047-10.629 5.4219-14.078 3.6133-3.457 8.5078-5.1875 14.688-5.1875 2.0703 0 4.0625 0.23438 5.9688 0.70312 1.9062 0.46094 3.7383 1.1484 5.5 2.0625v7.6719c-1.7812-1.207-3.5391-2.0938-5.2656-2.6562-1.7188-0.5625-3.5273-0.84375-5.4219-0.84375-3.418 0-6.1055 1.0938-8.0625 3.2812-1.9609 2.1875-2.9375 5.2031-2.9375 9.0469 0 3.8242 0.97656 6.8281 2.9375 9.0156 1.957 2.1875 4.6445 3.2812 8.0625 3.2812 1.8945 0 3.7031-0.28125 5.4219-0.84375 1.7266-0.5625 3.4844-1.4453 5.2656-2.6562z"
         id="path182" /></symbol><symbol
       id="i"
       overflow="visible"><path
         d="m24.953-20.266c-0.78125-0.36328-1.5586-0.62891-2.3281-0.79688-0.77344-0.17578-1.543-0.26562-2.3125-0.26562-2.293 0-4.0586 0.73438-5.2969 2.2031-1.2305 1.4688-1.8438 3.5703-1.8438 6.2969v12.828h-8.8906v-27.844h8.8906v4.5781c1.1445-1.8203 2.457-3.1484 3.9375-3.9844 1.4883-0.84375 3.2695-1.2656 5.3438-1.2656 0.28906 0 0.60938 0.015625 0.95312 0.046875 0.35156 0.023438 0.86328 0.074219 1.5312 0.15625z"
         id="path185" /></symbol><symbol
       id="b"
       overflow="visible"><path
         d="m32.062-14v2.5469h-20.797c0.20703 2.0859 0.95703 3.6523 2.25 4.7031 1.2891 1.043 3.0977 1.5625 5.4219 1.5625 1.875 0 3.7891-0.27344 5.75-0.82812 1.9688-0.5625 3.9883-1.4062 6.0625-2.5312v6.8594c-2.1055 0.79297-4.2109 1.3906-6.3125 1.7969-2.1055 0.40625-4.2109 0.60938-6.3125 0.60938-5.043 0-8.9609-1.2734-11.75-3.8281-2.793-2.5625-4.1875-6.1562-4.1875-10.781 0-4.5391 1.3672-8.1133 4.1094-10.719 2.75-2.6016 6.5234-3.9062 11.328-3.9062 4.375 0 7.875 1.3203 10.5 3.9531 2.625 2.6367 3.9375 6.1562 3.9375 10.562zm-9.1406-2.9531c0-1.6875-0.49609-3.0469-1.4844-4.0781-0.99219-1.0391-2.2773-1.5625-3.8594-1.5625-1.7305 0-3.1367 0.48438-4.2188 1.4531-1.0742 0.96875-1.7422 2.3672-2 4.1875z"
         id="path188" /></symbol><symbol
       id="a"
       overflow="visible"><path
         d="m16.75-12.531c-1.8555 0-3.25 0.32031-4.1875 0.95312-0.9375 0.625-1.4062 1.5547-1.4062 2.7812 0 1.125 0.375 2.0117 1.125 2.6562 0.75781 0.63672 1.8125 0.95312 3.1562 0.95312 1.6758 0 3.082-0.59766 4.2188-1.7969 1.1445-1.207 1.7188-2.7188 1.7188-4.5312v-1.0156zm13.594-3.3594v15.891h-8.9688v-4.125c-1.1875 1.6875-2.5312 2.918-4.0312 3.6875-1.4922 0.76953-3.3047 1.1562-5.4375 1.1562-2.8867 0-5.2305-0.83594-7.0312-2.5156-1.793-1.6875-2.6875-3.875-2.6875-6.5625 0-3.2578 1.1172-5.6484 3.3594-7.1719 2.25-1.5312 5.7734-2.2969 10.578-2.2969h5.25v-0.6875c0-1.4062-0.55859-2.4375-1.6719-3.0938-1.1055-0.65625-2.8359-0.98438-5.1875-0.98438-1.9062 0-3.6836 0.19531-5.3281 0.57812-1.6367 0.375-3.1562 0.94531-4.5625 1.7031v-6.7812c1.9062-0.46875 3.8164-0.82031 5.7344-1.0625 1.9258-0.23828 3.8477-0.35938 5.7656-0.35938 5.0195 0 8.6445 0.99609 10.875 2.9844 2.2266 1.9805 3.3438 5.1953 3.3438 9.6406z"
         id="path191" /></symbol><symbol
       id="h"
       overflow="visible"><path
         d="m14-35.75v7.9062h9.1719v6.375h-9.1719v11.797c0 1.293 0.25391 2.168 0.76562 2.625 0.50781 0.46094 1.5312 0.6875 3.0625 0.6875h4.5625v6.3594h-7.625c-3.5117 0-6-0.73438-7.4688-2.2031s-2.2031-3.957-2.2031-7.4688v-11.797h-4.4219v-6.375h4.4219v-7.9062z"
         id="path194" /></symbol><symbol
       id="g"
       overflow="visible"><path
         d="m23.219-23.766v-14.906h8.9531v38.672h-8.9531v-4.0312c-1.2305 1.6484-2.5859 2.8516-4.0625 3.6094-1.4688 0.75781-3.1719 1.1406-5.1094 1.1406-3.4297 0-6.2461-1.3594-8.4531-4.0781-2.2109-2.7266-3.3125-6.2383-3.3125-10.531 0-4.2891 1.1016-7.8008 3.3125-10.531 2.207-2.7266 5.0234-4.0938 8.4531-4.0938 1.9141 0 3.6133 0.38672 5.0938 1.1562 1.4883 0.77344 2.8477 1.9688 4.0781 3.5938zm-5.875 18.031c1.9062 0 3.3594-0.69531 4.3594-2.0938 1.0078-1.3945 1.5156-3.4141 1.5156-6.0625 0-2.6562-0.50781-4.6758-1.5156-6.0625-1-1.3945-2.4531-2.0938-4.3594-2.0938-1.8867 0-3.3281 0.69922-4.3281 2.0938-1 1.3867-1.5 3.4062-1.5 6.0625 0 2.6484 0.5 4.668 1.5 6.0625 1 1.3984 2.4414 2.0938 4.3281 2.0938z"
         id="path197" /></symbol><symbol
       id="f"
       overflow="visible"><path
         d="m19.094-5.7344c1.9062 0 3.3594-0.69531 4.3594-2.0938 1-1.3945 1.5-3.4141 1.5-6.0625 0-2.6562-0.5-4.6758-1.5-6.0625-1-1.3945-2.4531-2.0938-4.3594-2.0938s-3.3711 0.70312-4.3906 2.1094c-1.0234 1.3984-1.5312 3.4141-1.5312 6.0469 0 2.6367 0.50781 4.6562 1.5312 6.0625 1.0195 1.3984 2.4844 2.0938 4.3906 2.0938zm-5.9219-18.031c1.2266-1.625 2.5859-2.8203 4.0781-3.5938 1.4883-0.76953 3.2031-1.1562 5.1406-1.1562 3.4375 0 6.2539 1.3672 8.4531 4.0938 2.207 2.7305 3.3125 6.2422 3.3125 10.531 0 4.293-1.1055 7.8047-3.3125 10.531-2.1992 2.7188-5.0156 4.0781-8.4531 4.0781-1.9375 0-3.6523-0.38672-5.1406-1.1562-1.4922-0.76953-2.8516-1.9688-4.0781-3.5938v4.0312h-8.8906v-38.672h8.8906z"
         id="path200" /></symbol><symbol
       id="e"
       overflow="visible"><path
         d="m0.625-27.844h8.8906l7.4844 18.891 6.3594-18.891h8.9062l-11.703 30.484c-1.1797 3.0938-2.5547 5.2539-4.125 6.4844-1.5625 1.2383-3.6328 1.8594-6.2031 1.8594h-5.1406v-5.8438h2.7812c1.5078 0 2.6094-0.24219 3.2969-0.71875 0.6875-0.48047 1.2227-1.3398 1.6094-2.5781l0.25-0.78125z"
         id="path203" /></symbol><symbol
       id="d"
       overflow="visible"><path
         d="m30.5-35.938v7.8438c-2.043-0.90625-4.0312-1.5859-5.9688-2.0469-1.9375-0.46875-3.7656-0.70312-5.4844-0.70312-2.293 0-3.9844 0.32031-5.0781 0.95312-1.0938 0.625-1.6406 1.6016-1.6406 2.9219 0 0.99219 0.36719 1.7656 1.1094 2.3281 0.73828 0.55469 2.0781 1.0273 4.0156 1.4219l4.0781 0.82812c4.125 0.82422 7.0547 2.0859 8.7969 3.7812 1.7383 1.6875 2.6094 4.0898 2.6094 7.2031 0 4.0938-1.2148 7.1406-3.6406 9.1406-2.4297 1.9922-6.1367 2.9844-11.125 2.9844-2.3555 0-4.7188-0.22656-7.0938-0.67188-2.3672-0.44531-4.7305-1.1094-7.0938-1.9844v-8.0781c2.3633 1.2617 4.6484 2.2109 6.8594 2.8438 2.2188 0.63672 4.3516 0.95312 6.4062 0.95312 2.082 0 3.6797-0.34375 4.7969-1.0312 1.1133-0.69531 1.6719-1.6914 1.6719-2.9844 0-1.1641-0.38281-2.0625-1.1406-2.6875-0.75-0.63281-2.25-1.1953-4.5-1.6875l-3.7188-0.82812c-3.7109-0.78906-6.4219-2.0547-8.1406-3.7969-1.7109-1.7383-2.5625-4.082-2.5625-7.0312 0-3.6953 1.1914-6.5391 3.5781-8.5312 2.3828-1.9883 5.8164-2.9844 10.297-2.9844 2.0312 0 4.125 0.15625 6.2812 0.46875 2.1562 0.30469 4.3828 0.76172 6.6875 1.375z"
         id="path206" /></symbol><symbol
       id="o"
       overflow="visible"><path
         d="m30.078-23.219c1.125-1.7188 2.4609-3.0312 4.0156-3.9375 1.5508-0.90625 3.2539-1.3594 5.1094-1.3594 3.1953 0 5.6289 0.99219 7.2969 2.9688 1.6758 1.9688 2.5156 4.8359 2.5156 8.5938v16.953h-8.9531v-14.516c0.019531-0.21875 0.035156-0.44141 0.046875-0.67188 0.007813-0.22656 0.015625-0.5625 0.015625-1 0-1.9688-0.29297-3.3945-0.875-4.2812-0.58594-0.88281-1.5234-1.3281-2.8125-1.3281-1.6875 0-2.9961 0.69922-3.9219 2.0938-0.91797 1.3867-1.3906 3.3984-1.4219 6.0312v13.672h-8.9531v-14.516c0-3.082-0.26562-5.0664-0.79688-5.9531-0.52344-0.88281-1.4648-1.3281-2.8281-1.3281-1.7109 0-3.0273 0.70312-3.9531 2.1094-0.92969 1.3984-1.3906 3.3906-1.3906 5.9844v13.703h-8.9531v-27.844h8.9531v4.0781c1.0938-1.5703 2.3477-2.7539 3.7656-3.5469 1.4141-0.80078 2.9766-1.2031 4.6875-1.2031 1.9258 0 3.625 0.46875 5.0938 1.4062 1.4766 0.92969 2.5977 2.2266 3.3594 3.8906z"
         id="path209" /></symbol><symbol
       id="c"
       overflow="visible"><path
         d="m26.031-26.969v6.7656c-1.9062-0.80078-3.75-1.3984-5.5312-1.7969-1.7734-0.39453-3.4453-0.59375-5.0156-0.59375-1.6875 0-2.9453 0.21484-3.7656 0.64062-0.82422 0.41797-1.2344 1.0625-1.2344 1.9375 0 0.71875 0.3125 1.2734 0.9375 1.6562 0.625 0.375 1.7383 0.65234 3.3438 0.82812l1.5625 0.23438c4.5625 0.57422 7.6289 1.5273 9.2031 2.8594 1.5703 1.3242 2.3594 3.4023 2.3594 6.2344 0 2.9688-1.0938 5.1992-3.2812 6.6875-2.1875 1.4922-5.4531 2.2344-9.7969 2.2344-1.8359 0-3.7344-0.14844-5.7031-0.4375-1.9609-0.28906-3.9766-0.72266-6.0469-1.2969v-6.7656c1.7695 0.86719 3.5859 1.5156 5.4531 1.9531 1.8633 0.42969 3.7539 0.64062 5.6719 0.64062 1.7383 0 3.0469-0.23828 3.9219-0.71875 0.88281-0.48828 1.3281-1.2031 1.3281-2.1406 0-0.80078-0.30469-1.3945-0.90625-1.7812-0.60547-0.39453-1.8125-0.69531-3.625-0.90625l-1.5625-0.20312c-3.9609-0.5-6.7344-1.4141-8.3281-2.75-1.5859-1.3438-2.375-3.3828-2.375-6.125 0-2.9453 1.0078-5.1328 3.0312-6.5625 2.0195-1.4258 5.1172-2.1406 9.2969-2.1406 1.6328 0 3.3516 0.125 5.1562 0.375 1.8125 0.25 3.7812 0.64062 5.9062 1.1719z"
         id="path212" /></symbol><symbol
       id="n"
       overflow="visible"><path
         d="m32.266-16.953v16.953h-8.9531v-12.922c0-2.4375-0.054688-4.1094-0.15625-5.0156-0.10547-0.91406-0.29297-1.5859-0.5625-2.0156-0.34375-0.58203-0.82031-1.0352-1.4219-1.3594-0.59375-0.32031-1.2734-0.48438-2.0312-0.48438-1.8555 0-3.3125 0.71875-4.375 2.1562-1.0625 1.4297-1.5938 3.4062-1.5938 5.9375v13.703h-8.8906v-38.672h8.8906v14.906c1.3438-1.625 2.7695-2.8203 4.2812-3.5938 1.5078-0.76953 3.1758-1.1562 5-1.1562 3.207 0 5.6445 0.99219 7.3125 2.9688 1.6641 1.9688 2.5 4.8359 2.5 8.5938z"
         id="path215" /></symbol><symbol
       id="m"
       overflow="visible"><path
         d="m4.2812-27.844h8.8906v27.844h-8.8906zm0-10.828h8.8906v7.25h-8.8906z"
         id="path218" /></symbol><symbol
       id="l"
       overflow="visible"><path
         d="m26.766-26.969v7.25c-1.2109-0.82031-2.4219-1.4297-3.6406-1.8281-1.2188-0.39453-2.4805-0.59375-3.7812-0.59375-2.4922 0-4.4297 0.72656-5.8125 2.1719-1.3867 1.4492-2.0781 3.4766-2.0781 6.0781 0 2.5938 0.69141 4.6211 2.0781 6.0781 1.3828 1.4492 3.3203 2.1719 5.8125 2.1719 1.3828 0 2.7031-0.20703 3.9531-0.625 1.2578-0.41406 2.4141-1.0312 3.4688-1.8438v7.2969c-1.3867 0.51172-2.7969 0.89062-4.2344 1.1406-1.4375 0.25781-2.875 0.39062-4.3125 0.39062-5.0234 0-8.9492-1.2852-11.781-3.8594-2.8359-2.582-4.25-6.1641-4.25-10.75 0-4.5938 1.4141-8.1758 4.25-10.75 2.832-2.582 6.7578-3.875 11.781-3.875 1.457 0 2.8945 0.13281 4.3125 0.39062 1.4141 0.26172 2.8281 0.64844 4.2344 1.1562z"
         id="path221" /></symbol><symbol
       id="k"
       overflow="visible"><path
         d="m17.531-22.141c-1.9805 0-3.4922 0.71094-4.5312 2.125-1.0312 1.418-1.5469 3.4609-1.5469 6.125 0 2.668 0.51562 4.7109 1.5469 6.125 1.0391 1.418 2.5508 2.125 4.5312 2.125 1.9375 0 3.4141-0.70703 4.4375-2.125 1.0312-1.4141 1.5469-3.457 1.5469-6.125 0-2.6641-0.51562-4.707-1.5469-6.125-1.0234-1.4141-2.5-2.125-4.4375-2.125zm0-6.375c4.7812 0 8.5156 1.2969 11.203 3.8906 2.6953 2.5859 4.0469 6.1641 4.0469 10.734 0 4.5742-1.3516 8.1523-4.0469 10.734-2.6875 2.5859-6.4219 3.875-11.203 3.875-4.8125 0-8.5742-1.2891-11.281-3.875-2.7109-2.582-4.0625-6.1602-4.0625-10.734 0-4.5703 1.3516-8.1484 4.0625-10.734 2.707-2.5938 6.4688-3.8906 11.281-3.8906z"
         id="path224" /></symbol><symbol
       id="j"
       overflow="visible"><path
         d="m32.266-16.953v16.953h-8.9531v-12.969c0-2.4062-0.054688-4.0625-0.15625-4.9688-0.10547-0.91406-0.29297-1.5859-0.5625-2.0156-0.34375-0.58203-0.82031-1.0352-1.4219-1.3594-0.59375-0.32031-1.2734-0.48438-2.0312-0.48438-1.8555 0-3.3125 0.71875-4.375 2.1562-1.0625 1.4297-1.5938 3.4062-1.5938 5.9375v13.703h-8.8906v-27.844h8.8906v4.0781c1.3438-1.625 2.7695-2.8203 4.2812-3.5938 1.5078-0.76953 3.1758-1.1562 5-1.1562 3.207 0 5.6445 0.99219 7.3125 2.9688 1.6641 1.9688 2.5 4.8359 2.5 8.5938z"
         id="path227" /></symbol></defs><g
     inkscape:label="Capa 1"
     inkscape:groupmode="layer"
     id="layer1"><g
       id="g274"
       transform="matrix(0.29561873,0,0,0.29808052,-5.2808663,29.590311)"><path
         d="m 554.62461,515.44821 -97.266,-48.637 c -9.1758,-4.582 -14.875,-13.809 -14.875,-24.07 v -34.426 c 2.332,-2.8516 4.7852,-6.0977 7.3203,-9.6836 12.613,-17.816 22.727,-37.652 30.074,-59.043 14.367,-6.5898 23.695,-20.793 23.695,-36.828 v -40.727 c 0,-9.8047 -3.6641,-19.316 -10.184,-26.727 v -54.16 c 0.57031,-5.5977 2.8125,-38.945 -21.301,-66.445 -20.91,-23.854998 -54.859,-35.940998 -100.88,-35.940998 -46.031,0 -79.969,12.086 -100.88,35.940998 -24.109,27.5 -21.871,60.848 -21.301,66.445 v 54.16 c -6.5156,7.4102 -10.18,16.922 -10.18,26.727 v 40.727 c 0,12.391 5.6289,23.949 15.242,31.656 9.3242,36.93 28.855,64.766 35.664,73.695 v 33.68 c 0,9.8594 -5.375,18.91 -14.02,23.633 l -90.84,49.547 c -29.527,16.105 -47.867,46.996 -47.867,80.637 v 43.152 h 468.36 v -41.164 c 0,-35.016 -19.457,-66.488 -50.766,-82.148"
         fill-rule="evenodd"
         id="path232"
         style="fill:#ffffff" /></g></g></svg>
