<?xml version="1.0" encoding="UTF-8" standalone="no"?>
<svg
   width="516.91418pt"
   height="387.68826pt"
   version="1.1"
   viewBox="0 0 516.91418 387.68826"
   id="svg1725"
   sodipodi:docname="noun-vehicle-1003737.svg"
   xmlns:inkscape="http://www.inkscape.org/namespaces/inkscape"
   xmlns:sodipodi="http://sodipodi.sourceforge.net/DTD/sodipodi-0.dtd"
   xmlns="http://www.w3.org/2000/svg"
   xmlns:svg="http://www.w3.org/2000/svg">
  <sodipodi:namedview
     id="namedview1727"
     pagecolor="#ffffff"
     bordercolor="#000000"
     borderopacity="0.25"
     inkscape:showpageshadow="2"
     inkscape:pageopacity="0.0"
     inkscape:pagecheckerboard="0"
     inkscape:deskcolor="#d1d1d1"
     inkscape:document-units="pt"
     showgrid="false" />
  <defs
     id="defs1669" />
  <path
     d="M 506.143,323.07215 H 10.769 v -129.228 c 0,-23.78872 19.28513,-43.07708 43.07708,-43.07708 h 409.222 c 23.78872,0 43.07707,19.28513 43.07707,43.07708 z"
     fill="none"
     stroke="#000"
     stroke-miterlimit="10"
     stroke-width="21.538"
     id="path1671"
     style="fill:none;fill-opacity:1;stroke:#636363;stroke-opacity:1" />
  <path
     d="m 129.228,236.92015 c 0,17.84316 -14.46492,32.30377 -32.30808,32.30377 -17.84315,0 -32.30807,-14.46061 -32.30807,-32.30377 0,-17.84316 14.46492,-32.30808 32.30807,-32.30808 17.84316,0 32.30808,14.46492 32.30808,32.30808"
     fill="none"
     stroke="#000"
     stroke-miterlimit="10"
     stroke-width="21.538"
     id="path1673"
     style="fill:none;fill-opacity:1;stroke:#636363;stroke-opacity:1" />
  <path
     d="m 452.298,236.92015 c 0,17.84316 -14.46492,32.30377 -32.30808,32.30377 -17.84315,0 -32.30807,-14.46061 -32.30807,-32.30377 0,-17.84316 14.46492,-32.30808 32.30807,-32.30808 17.84316,0 32.30808,14.46492 32.30808,32.30808"
     fill="none"
     stroke="#000"
     stroke-miterlimit="10"
     stroke-width="21.538"
     id="path1675"
     style="fill:none;fill-opacity:1;stroke:#636363;stroke-opacity:1" />
  <path
     d="M 86.15092,323.07215 H 43.07815 l -8.87506,32.30808 c -3.15067,11.46948 18.51547,21.53907 30.40983,21.53907 11.89867,0 33.45701,-9.64428 33.45701,-21.53907 z"
     fill="none"
     stroke="#000000"
     stroke-miterlimit="10"
     stroke-width="21.538"
     id="path1677"
     sodipodi:nodetypes="ccsscc"
     style="fill:none;fill-opacity:1;stroke:#636363;stroke-opacity:1" />
  <path
     d="m 473.836,323.07215 h -43.07708 l -14.2001,30.27949 c 0.004,11.89436 23.84439,22.04623 35.74241,22.04623 11.89436,0 32.72805,-10.55683 29.6491,-22.04623 z"
     fill="none"
     stroke="#000000"
     stroke-miterlimit="10"
     stroke-width="21.538"
     id="path1679"
     sodipodi:nodetypes="cccssc"
     style="fill:none;fill-opacity:1;stroke:#636363;stroke-opacity:1" />
  <path
     d="M 463.067,150.76815 H 53.845 L 95.78595,34.581413 c 7.29675,-14.59307 22.21429,-23.812414 38.5304,-23.812414 h 248.29007 c 16.31611,0 31.2301,9.218584 38.52609,23.812414 z"
     fill="none"
     stroke="#000"
     stroke-miterlimit="10"
     stroke-width="21.538"
     id="path1681"
     style="fill:none;fill-opacity:1;stroke:#636363;stroke-opacity:1" />
  <path
     d="m 104.41622,150.76815 25.48807,-81.791627 c 2.80468,-8.99976 11.13623,-15.12829 20.56233,-15.12829 h 215.9723 c 9.42556,0 17.757,6.12874 20.56233,15.12829 l 25.48806,81.791627"
     fill="none"
     stroke="#000"
     stroke-miterlimit="10"
     stroke-width="21.538"
     id="path1683"
     style="fill:none;fill-opacity:1;stroke:#636363;stroke-opacity:1" />
  <path
     d="M 323.07,269.22715 H 193.842 c -5.94912,0 -10.769,-4.8202 -10.769,-10.769 v -30.11228 c 0,-1.8359 0.93356,-3.54289 2.48042,-4.53504 l 28.64016,-18.35145 c 0.86712,-0.54685 1.87499,-0.84375 2.90623,-0.84375 h 83.47913 c 1.10156,0 2.17577,0.33588 3.07811,0.96867 l 27.87878,19.43697 c 1.44531,1.00388 2.30468,2.65229 2.30468,4.41399 v 29.02677 c 0,5.94513 -4.82021,10.76544 -10.76545,10.76544 z"
     fill="none"
     stroke="#000"
     stroke-miterlimit="10"
     stroke-width="21.538"
     id="path1685"
     style="fill:none;fill-opacity:1;stroke:#636363;stroke-opacity:1" />
</svg>
