<svg width="20" height="19" viewBox="0 0 20 19" fill="none" xmlns="http://www.w3.org/2000/svg">
<g clip-path="url(#clip0_104_2)">
<path fill-rule="evenodd" clip-rule="evenodd" d="M9.78961 11.0129C11.3229 11.0129 12.094 9.30483 11.0951 8.26153C10.3646 7.49788 9.05856 7.54621 8.39322 8.36311C7.52526 9.43004 8.32151 11.0129 9.7889 11.0129L9.78961 11.0129ZM11.8316 0.548462L11.3623 1.55587C11.929 1.6547 12.4759 1.80628 12.9966 2.00565L14.0535 1.27451C14.855 1.64621 15.5938 2.12015 16.2495 2.67775L15.307 3.32964C15.7385 3.67717 16.1324 4.06468 16.482 4.48638L17.787 4.34942C18.2771 5.03734 18.6698 5.79197 18.9448 6.5961L17.7817 6.71791C17.9688 7.21481 18.1039 7.73484 18.1823 8.27155L19.3838 8.76508C19.397 8.96105 19.4048 9.1587 19.4048 9.35807C19.4048 10.0089 19.3307 10.6434 19.1914 11.2555L18.119 10.8147C18.0138 11.347 17.8524 11.8608 17.6402 12.35L18.4185 13.3427C18.0228 14.0957 17.5183 14.7897 16.9248 15.4057L16.2308 14.5203C15.8609 14.9257 15.4483 15.2957 14.9994 15.6242L15.1452 16.85C14.4129 17.3104 13.6096 17.6793 12.7536 17.9377L12.6239 16.845C12.095 17.0208 11.5414 17.1477 10.9701 17.2213L10.4447 18.35C10.2361 18.3624 10.0257 18.3697 9.81345 18.3697C9.12061 18.3697 8.44517 18.3001 7.7936 18.1693L8.26282 17.1619C7.69618 17.0631 7.14929 16.9115 6.62851 16.7121L5.57169 17.4433C4.77019 17.0716 4.03192 16.5976 3.37562 16.04L4.31819 15.3881C3.88665 15.0406 3.49278 14.6531 3.14311 14.2314L1.83819 14.3684C1.34801 13.6804 0.955394 12.9258 0.680329 12.1217L1.84346 11.9999C1.65639 11.503 1.5213 10.9829 1.4429 10.4462L0.241384 9.95207C0.228181 9.7561 0.220398 9.55894 0.220398 9.35971C0.220398 8.70886 0.294474 8.07435 0.433736 7.46227L1.50614 7.90306C1.61135 7.37076 1.77271 6.85701 1.98493 6.3678L1.20663 5.37503C1.60231 4.6221 2.10683 3.92857 2.7004 3.31205L3.39434 4.1975C3.7643 3.79211 4.17681 3.42211 4.62572 3.09363L4.47992 1.8678C5.21222 1.40733 6.01553 1.0385 6.87154 0.780109L7.00121 1.87275C7.53017 1.69701 8.08375 1.57011 8.65509 1.49647L9.18113 0.367767C9.38975 0.355364 9.59962 0.348053 9.81171 0.348053C10.5045 0.348053 11.18 0.41764 11.8316 0.548462ZM9.81352 3.15169C15.5913 3.15169 18.4956 9.58666 14.7335 13.5179C11.9797 16.3952 7.06074 16.2137 4.55523 13.136C1.28372 9.11553 4.28449 3.15183 9.81281 3.15183L9.81352 3.15169ZM9.81352 3.53188C15.2376 3.53188 17.9644 9.57245 14.4325 13.2634C11.8478 15.9643 7.22974 15.7941 4.87758 12.9046C1.80635 9.1308 4.62352 3.53175 9.81352 3.53175V3.53188ZM9.81352 4.07996C14.7274 4.07996 17.1981 9.553 13.9984 12.897C11.6558 15.3435 7.47275 15.1896 5.34189 12.5719C2.55946 9.15271 5.11173 4.08007 9.81352 4.08007V4.07996ZM9.81352 4.25347C10.3466 4.25347 10.8493 4.32031 11.3192 4.44382C10.746 5.01763 9.97669 7.052 10.8805 7.51301C10.9755 6.45286 11.59 5.49665 12.6385 4.98107C13.1041 5.2478 13.516 5.57734 13.8675 5.95308C13.1585 6.1625 11.1072 7.39787 11.6648 8.19464C12.4938 7.24796 13.8124 7.01661 14.7108 7.16257C15.2668 8.26593 15.4156 9.54905 15.0527 10.7636C14.4054 10.1937 12.247 9.53331 11.7884 10.3419C12.9175 10.4053 13.9487 10.959 14.5231 11.9309C14.3396 12.2257 14.1196 12.5103 13.8613 12.7805C13.7514 12.8956 13.6366 13.0045 13.5182 13.1078C13.275 12.4401 11.9121 10.558 11.0686 11.0947C12.0805 11.8808 12.3208 13.1318 12.1566 13.9747C10.9558 14.5076 9.58748 14.6036 8.32786 14.2723C8.97886 13.6192 9.71881 11.7337 8.68476 11.1687C8.60165 12.2294 8.00042 13.1902 6.96499 13.7164C6.51789 13.4603 6.10357 13.138 5.73959 12.7511C6.32541 12.5693 8.44851 11.2024 7.96623 10.5382C7.12342 11.4877 5.78574 11.7084 4.89081 11.5478C4.30083 10.3837 4.23799 9.10971 4.59436 7.95644C5.23757 8.52073 7.39361 9.18448 7.84544 8.37868C6.71636 8.33599 5.6769 7.80591 5.08276 6.85869C5.34391 6.41791 5.67331 6.01255 6.06191 5.65923C6.33807 6.37289 7.6901 8.17537 8.56816 7.61606C7.55803 6.82487 7.32245 5.57046 7.4916 4.72927C8.179 4.42546 8.95968 4.25259 9.81441 4.25259L9.81352 4.25347ZM9.79017 7.52149C11.5069 7.52149 12.3706 9.43406 11.2523 10.6019C10.4339 11.4571 8.97184 11.4032 8.22773 10.4884C7.25584 9.29357 8.14699 7.52137 9.79017 7.52137V7.52149ZM10.9259 8.29858C11.1011 8.46308 11.2236 8.64678 11.3001 8.83936C10.7465 9.33456 10.7449 9.39579 11.2947 9.88828C11.1357 10.2887 10.8027 10.6278 10.3503 10.785C9.82133 10.2639 9.75739 10.2634 9.22953 10.7833C8.79201 10.6288 8.44415 10.2998 8.28098 9.8905C8.83329 9.3953 8.83275 9.3351 8.27918 8.83937C8.44721 8.41089 8.80814 8.09988 9.23314 7.95222C9.75737 8.46821 9.82187 8.46714 10.3492 7.94778C10.5547 8.02024 10.7508 8.13526 10.9254 8.29872L10.9259 8.29858ZM8.7335 10.3576C8.90153 10.5155 9.18479 10.4076 9.19728 10.1909C9.20631 10.032 9.05746 9.90287 8.88943 9.92415C8.67012 9.9517 8.57269 10.2072 8.73336 10.3576L8.7335 10.3576ZM10.8453 10.3576C11.0134 10.1998 10.8986 9.93317 10.6678 9.92194C10.4987 9.91345 10.3612 10.0528 10.3839 10.2106C10.4132 10.4166 10.6852 10.5081 10.8453 10.3572L10.8453 10.3576ZM8.7335 8.37378C8.90153 8.21593 9.18479 8.32377 9.19728 8.5405C9.20631 8.69939 9.05746 8.82852 8.88943 8.80724C8.67012 8.77969 8.57269 8.52418 8.73336 8.37377L8.7335 8.37378ZM10.8453 8.37378C11.0134 8.53163 10.8986 8.79822 10.6678 8.80945C10.4987 8.81794 10.3612 8.67863 10.3839 8.52026C10.4132 8.31424 10.6852 8.22272 10.8453 8.37364L10.8453 8.37378ZM9.79032 8.60395C10.4998 8.60395 10.8567 9.39398 10.3946 9.87744C10.0563 10.2306 9.45203 10.2087 9.14416 9.83084C8.7425 9.33667 9.11066 8.60451 9.78975 8.60451L9.79032 8.60395ZM9.79032 8.74326C10.3702 8.74326 10.6624 9.38953 10.2847 9.78433C10.008 10.0735 9.51418 10.055 9.2626 9.7462C8.93391 9.34252 9.23508 8.74338 9.79046 8.74338L9.79032 8.74326Z" fill="#D82B36"/>
</g>
<defs>
<clipPath id="clip0_104_2">
<rect width="20" height="18.4906" fill="white"/>
</clipPath>
</defs>
</svg>
